{"glyphs":{"0":{"ha":770,"x_min":68,"x_max":711,"o":"m 197 71 q 68 498 68 218 q 153 857 68 707 q 257 970 195 928 q 395 1013 319 1013 q 584 923 507 1013 q 692 686 661 833 q 711 473 711 593 q 674 238 711 353 q 563 52 637 123 q 381 -20 488 -20 q 197 71 275 -20 m 228 776 q 215 744 228 776 q 189 640 202 713 q 175 484 175 567 q 195 307 175 401 q 265 144 216 212 q 389 77 315 77 q 486 115 443 77 q 553 214 529 153 q 604 493 604 341 q 584 687 604 589 q 515 850 563 784 q 395 917 467 917 q 297 878 340 917 q 228 776 254 839 z "},"1":{"ha":770,"x_min":288,"x_max":501,"o":"m 395 818 l 288 818 l 439 987 l 501 987 l 501 0 l 395 0 l 395 818 z "},"2":{"ha":770,"x_min":74,"x_max":689,"o":"m 178 753 l 83 790 q 197 949 110 884 q 386 1014 283 1014 q 612 910 529 1014 q 671 714 671 836 q 515 447 671 572 q 446 396 482 420 q 391 359 409 372 q 340 315 373 347 q 274 247 307 284 q 199 96 199 161 l 689 96 l 689 0 l 74 0 q 283 393 74 221 q 378 465 336 437 q 431 500 420 492 q 464 525 443 509 q 496 554 484 541 q 523 586 508 566 q 547 623 538 605 q 567 714 567 669 q 513 863 567 808 q 388 918 458 918 q 260 875 318 918 q 178 753 203 832 z "},"3":{"ha":764,"x_min":77,"x_max":703,"o":"m 77 171 l 182 203 q 261 112 208 147 q 371 77 315 77 q 531 134 465 77 q 596 288 596 192 q 525 444 596 387 q 374 496 458 496 l 321 496 l 321 581 l 387 581 q 502 631 453 581 q 550 753 550 681 q 500 873 550 825 q 386 921 450 921 l 382 921 q 287 892 328 921 q 224 814 245 863 l 131 857 q 235 972 167 928 q 378 1015 302 1015 q 516 983 454 1015 q 617 891 578 951 q 657 766 657 831 q 635 653 657 701 q 533 539 597 572 q 642 457 587 524 q 703 288 703 383 q 607 67 703 155 q 371 -20 511 -20 q 200 32 286 -20 q 77 171 114 84 z "},"4":{"ha":770,"x_min":60,"x_max":714,"o":"m 586 987 l 586 364 l 714 364 l 714 269 l 586 269 l 586 0 l 479 0 l 479 269 l 60 269 l 471 987 l 586 987 m 482 828 l 220 366 l 482 366 l 482 828 z "},"5":{"ha":770,"x_min":92,"x_max":711,"o":"m 418 547 q 390 547 418 547 q 338 539 361 547 q 301 527 314 532 q 277 514 289 522 q 259 503 264 507 q 244 491 253 498 q 233 482 235 483 l 135 533 l 199 987 l 654 987 l 654 892 l 288 892 l 243 602 q 412 639 304 639 q 600 573 520 639 q 711 311 711 480 q 675 148 711 223 q 568 27 639 73 q 394 -20 497 -20 q 207 47 290 -20 q 92 224 123 114 l 197 243 q 406 77 254 77 q 550 142 495 77 q 606 313 606 208 q 529 496 606 425 q 418 547 475 547 z "},"6":{"ha":770,"x_min":87,"x_max":697,"o":"m 596 277 q 521 435 596 373 q 384 481 465 481 q 245 420 302 481 q 189 279 189 359 q 263 125 189 182 q 399 82 319 82 q 538 141 480 82 q 596 277 596 201 m 296 561 q 389 582 345 582 q 583 514 498 582 q 697 277 697 422 q 613 76 697 168 q 515 7 574 33 q 387 -20 456 -20 q 195 50 275 -20 q 87 278 87 144 q 111 414 87 359 q 146 493 135 470 q 178 550 158 516 q 201 590 198 584 l 428 986 l 533 986 l 296 561 z "},"7":{"ha":770,"x_min":75,"x_max":732,"o":"m 732 987 l 355 0 l 232 0 l 582 886 l 75 886 l 75 987 l 732 987 z "},"8":{"ha":770,"x_min":71,"x_max":726,"o":"m 182 247 q 258 124 199 172 q 403 77 318 77 q 553 140 488 77 q 619 293 619 203 q 537 457 619 398 q 389 501 475 501 q 240 445 302 501 q 178 293 178 389 q 182 247 178 273 m 287 631 q 402 597 332 597 q 520 642 473 597 q 568 762 568 686 q 509 887 568 842 q 390 920 465 920 q 270 875 315 920 q 225 753 225 830 q 287 631 225 676 m 244 547 q 118 762 118 621 q 197 943 118 870 q 388 1015 277 1015 q 575 959 500 1015 q 669 814 650 903 q 675 762 675 793 q 547 547 675 622 q 655 471 605 521 q 726 302 726 399 q 681 133 726 205 q 559 21 635 61 q 395 -20 483 -20 q 190 50 279 -20 q 77 228 101 119 q 71 304 71 263 q 88 391 71 346 q 133 467 105 437 q 244 547 186 523 z "},"9":{"ha":770,"x_min":97,"x_max":707,"o":"m 199 714 q 274 556 199 618 q 411 510 329 510 q 549 571 493 510 q 606 711 606 631 q 530 866 606 807 q 395 909 475 909 q 257 850 315 909 q 199 714 199 790 m 498 429 q 406 408 449 408 q 211 476 296 408 q 97 714 97 568 q 152 880 97 803 q 302 994 211 962 q 407 1011 352 1011 q 600 941 519 1011 q 707 713 707 848 q 683 575 707 631 q 648 498 659 519 q 616 440 638 477 q 593 400 594 403 l 373 0 l 259 0 l 498 429 z "}," ":{"ha":418,"x_min":0,"x_max":0,"o":""},"!":{"ha":286,"x_min":70,"x_max":218,"o":"m 191 298 q 179 270 191 281 q 151 259 167 258 q 123 270 134 259 q 111 298 111 281 l 83 942 q 103 987 83 968 q 150 1006 123 1006 q 198 987 177 1006 q 218 943 218 968 l 191 298 m 70 62 q 70 78 70 62 q 92 116 70 94 q 141 137 113 137 q 189 121 170 137 q 216 66 216 98 q 194 13 216 34 q 145 -9 173 -9 q 97 7 117 -9 q 70 62 70 30 z "},"\"":{"ha":468,"x_min":87,"x_max":387,"o":"m 301 734 l 300 741 l 286 994 q 301 1032 286 1019 q 335 1046 315 1046 l 338 1046 q 386 1008 378 1046 q 387 994 387 1004 l 374 741 q 361 717 373 726 q 336 708 350 708 q 301 734 307 708 m 102 741 l 87 994 q 102 1032 87 1019 q 136 1046 117 1046 l 139 1046 q 170 1036 156 1046 q 189 994 189 1022 l 175 741 q 163 717 174 726 q 138 708 151 708 q 102 734 108 708 q 102 741 102 736 z "},"#":{"ha":1078,"x_min":87,"x_max":1003,"o":"m 657 371 l 657 600 l 425 600 l 425 371 l 657 371 m 758 275 l 758 36 l 657 36 l 657 275 l 425 275 l 425 36 l 323 36 l 323 275 l 87 275 l 87 371 l 323 371 l 323 600 l 87 600 l 87 694 l 323 694 l 323 951 l 425 951 l 425 694 l 657 694 l 657 951 l 758 951 l 758 694 l 1003 694 l 1003 600 l 758 600 l 758 371 l 1003 371 l 1003 275 l 758 275 z "},"$":{"ha":690,"x_min":17,"x_max":660,"o":"m 307 1042 l 395 1042 l 395 957 q 635 792 536 946 l 550 738 q 486 816 526 782 q 395 857 446 850 l 395 526 q 454 504 423 515 q 508 482 485 492 q 544 465 531 472 q 575 445 556 457 q 604 420 593 432 q 627 390 614 408 q 645 354 639 373 q 660 260 660 309 q 588 72 660 149 q 395 -18 517 -5 l 395 -105 l 309 -105 l 309 -18 q 134 43 199 -8 q 17 180 75 89 l 109 235 q 206 117 168 143 q 309 79 252 85 l 309 456 q 76 610 123 500 q 57 713 57 654 q 129 884 57 818 q 307 956 201 949 l 307 1042 m 309 554 l 309 861 q 206 813 245 853 q 167 724 167 774 q 177 647 167 674 q 208 602 187 619 q 309 554 243 571 m 395 427 l 395 81 q 509 140 468 93 q 550 252 550 188 q 395 427 550 380 z "},"%":{"ha":951,"x_min":71,"x_max":888,"o":"m 604 247 q 604 224 604 247 q 634 175 604 201 q 703 149 664 149 q 771 178 741 149 q 800 253 800 208 q 798 274 800 265 q 763 331 790 309 q 699 354 736 354 q 632 324 661 354 q 604 247 604 294 m 517 248 q 517 288 517 248 q 571 382 517 329 q 696 436 625 436 q 819 395 768 436 q 888 258 888 339 q 833 124 888 177 q 707 71 779 71 q 585 111 635 71 q 517 248 517 166 m 157 730 q 162 695 157 721 q 193 648 168 670 q 257 627 218 627 q 325 656 296 627 q 354 730 354 686 q 322 805 354 778 q 253 832 290 832 q 186 802 215 832 q 157 730 157 771 m 71 726 q 71 766 71 726 q 124 861 71 807 q 250 914 178 914 q 373 873 322 914 q 441 736 441 817 q 387 602 441 654 q 261 549 332 549 q 138 589 189 549 q 71 726 71 644 m 288 93 l 186 93 l 675 895 l 772 895 l 288 93 z "},"&":{"ha":842,"x_min":68,"x_max":786,"o":"m 550 814 q 486 891 524 865 q 383 917 449 917 q 271 873 317 917 q 224 759 224 829 q 273 642 224 688 q 385 595 323 595 l 453 595 l 453 498 l 387 498 q 233 445 290 498 q 175 293 175 391 q 237 135 175 194 q 382 77 300 77 q 521 137 465 77 q 578 277 578 197 l 446 277 l 446 371 l 786 371 l 786 275 l 690 275 q 643 122 690 197 q 380 -20 553 -20 q 163 71 257 -20 q 94 170 119 111 q 68 287 68 228 q 86 394 68 346 q 132 473 104 442 q 248 551 189 538 q 154 628 192 575 q 117 752 117 680 q 149 882 117 825 q 243 976 181 939 q 390 1013 306 1013 q 540 969 473 1013 q 642 859 607 926 l 550 814 z "},"'":{"ha":259,"x_min":87,"x_max":189,"o":"m 102 741 l 87 994 q 102 1032 87 1019 q 136 1046 117 1046 l 139 1046 q 170 1036 156 1046 q 189 994 189 1022 l 175 741 q 163 717 174 726 q 138 708 151 708 q 102 734 108 708 q 102 741 102 736 z "},"(":{"ha":372,"x_min":28,"x_max":310,"o":"m 189 -57 q 71 201 115 58 q 28 491 28 345 q 70 783 28 637 q 189 1051 111 929 l 310 1051 q 131 494 131 792 q 181 203 131 348 q 310 -57 231 58 l 189 -57 z "},")":{"ha":363,"x_min":61,"x_max":343,"o":"m 180 -57 l 61 -57 q 194 214 147 70 q 240 496 240 358 q 190 785 240 634 q 61 1051 140 936 l 180 1051 q 298 790 252 939 q 343 496 343 642 q 180 -57 343 192 z "},"*":{"ha":619,"x_min":22,"x_max":603,"o":"m 313 351 l 237 199 q 202 172 224 172 q 166 180 180 172 q 140 216 140 195 q 149 250 140 236 l 240 391 l 74 381 q 39 393 55 381 q 22 430 22 405 q 37 469 22 455 q 74 483 51 483 l 242 473 l 150 614 q 142 649 142 629 q 162 681 142 669 q 196 692 182 692 q 238 665 224 692 l 313 517 l 387 664 q 422 691 401 691 q 456 683 444 691 q 484 648 484 667 q 475 613 484 628 l 384 473 l 551 483 q 589 469 574 483 q 603 430 603 455 q 587 393 603 405 q 551 381 570 381 l 386 391 l 477 252 q 485 217 485 237 q 465 185 485 197 q 424 174 446 174 q 389 201 401 174 l 313 351 z "},"+":{"ha":606,"x_min":53,"x_max":566,"o":"m 53 482 l 261 482 l 261 693 l 357 693 l 357 482 l 566 482 l 566 386 l 357 386 l 357 175 l 261 175 l 261 386 l 53 386 l 53 482 z "},",":{"ha":271,"x_min":70,"x_max":216,"o":"m 141 137 q 155 137 141 137 q 189 120 170 137 q 212 89 209 104 q 216 56 216 74 q 210 13 216 39 q 198 -33 205 -14 q 179 -74 191 -53 q 161 -107 168 -96 q 143 -134 153 -119 q 132 -150 134 -148 l 94 -129 q 143 -8 143 -59 q 97 8 117 -8 q 70 62 70 30 q 92 116 70 94 q 141 137 113 137 z "},"-":{"ha":587,"x_min":74,"x_max":533,"o":"m 74 478 l 533 478 l 533 382 l 74 382 l 74 478 z "},".":{"ha":275,"x_min":70,"x_max":216,"o":"m 70 62 q 70 78 70 62 q 92 116 70 94 q 141 137 113 137 q 189 121 170 137 q 216 66 216 98 q 194 13 216 34 q 145 -9 173 -9 q 97 7 117 -9 q 70 62 70 30 z "},"/":{"ha":548,"x_min":-16,"x_max":578,"o":"m 92 0 l -16 0 l 471 1047 l 578 1047 l 92 0 z "},":":{"ha":287,"x_min":77,"x_max":222,"o":"m 77 556 q 77 573 77 556 q 98 610 77 589 q 148 631 120 631 q 196 615 176 631 q 222 561 222 593 q 201 507 222 528 q 152 486 180 486 q 104 502 123 486 q 77 556 77 524 m 77 62 q 77 78 77 62 q 98 116 77 94 q 148 137 120 137 q 196 121 176 137 q 222 66 222 98 q 201 13 222 34 q 152 -9 180 -9 q 104 7 123 -9 q 77 62 77 30 z "},";":{"ha":287,"x_min":77,"x_max":222,"o":"m 148 137 q 162 137 148 137 q 196 120 176 137 q 219 89 216 104 q 222 56 222 74 q 217 13 222 39 q 204 -33 212 -14 q 186 -74 197 -53 q 168 -107 175 -96 q 150 -134 160 -119 q 139 -150 140 -148 l 101 -129 q 150 -8 150 -59 q 104 8 123 -8 q 77 62 77 30 q 98 116 77 94 q 148 137 120 137 m 77 556 q 77 573 77 556 q 98 610 77 589 q 148 631 120 631 q 196 615 176 631 q 222 561 222 593 q 201 507 222 528 q 152 486 180 486 q 104 502 123 486 q 77 556 77 524 z "},"<":{"ha":572,"x_min":57,"x_max":536,"o":"m 401 16 l 57 431 l 401 838 l 536 838 l 191 429 l 536 16 l 401 16 z "},"=":{"ha":615,"x_min":45,"x_max":587,"o":"m 45 339 l 587 339 l 587 243 l 45 243 l 45 339 m 45 587 l 587 587 l 587 492 l 45 492 l 45 587 z "},">":{"ha":581,"x_min":62,"x_max":541,"o":"m 197 14 l 62 14 l 407 429 l 62 838 l 197 838 l 541 431 l 197 14 z "},"?":{"ha":668,"x_min":39,"x_max":632,"o":"m 389 340 l 389 244 l 282 244 l 282 342 q 367 517 282 442 q 404 548 380 528 q 444 582 427 567 q 467 603 460 597 q 489 627 474 610 q 509 658 504 644 q 525 742 525 697 q 473 873 525 826 q 336 920 420 920 q 234 889 281 920 q 162 817 186 859 q 138 736 138 774 l 39 753 q 134 940 52 864 q 332 1015 217 1015 q 538 949 451 1015 q 607 863 581 916 q 632 745 632 810 q 488 492 632 600 q 437 454 455 469 q 404 409 418 439 q 389 340 389 380 m 269 62 q 269 78 269 62 q 290 116 269 94 q 340 137 312 137 q 388 121 368 137 q 414 66 414 98 q 393 13 414 34 q 343 -9 372 -9 q 296 7 315 -9 q 269 62 269 30 z "},"@":{"ha":1101,"x_min":28,"x_max":1061,"o":"m 798 144 l 850 75 q 537 -24 715 -24 q 218 93 360 -24 q 39 386 77 209 q 28 496 28 441 q 97 756 28 637 q 286 944 166 875 q 546 1014 405 1014 q 725 982 638 1014 q 877 897 811 951 q 989 772 942 844 q 1061 530 1061 659 q 1043 432 1061 479 q 996 353 1025 385 q 871 283 934 283 q 793 303 833 283 q 725 351 752 322 q 647 287 695 311 q 546 264 600 264 q 399 316 463 264 q 314 488 314 386 q 382 659 314 591 q 538 726 450 726 q 685 674 626 726 q 765 496 765 604 q 799 407 765 443 q 868 371 832 371 q 939 419 905 371 q 974 530 974 468 q 916 723 974 631 q 696 901 836 848 q 540 928 624 928 q 376 892 456 928 q 238 798 296 857 q 148 659 181 739 q 114 514 114 579 q 273 160 114 292 q 546 62 390 62 q 678 85 609 62 q 798 144 747 109 m 456 381 q 551 350 495 350 q 644 392 607 350 q 681 496 681 434 q 636 601 681 559 q 540 642 591 642 q 445 598 489 642 q 401 490 401 555 q 456 381 401 425 z "},"A":{"ha":883,"x_min":49,"x_max":846,"o":"m 447 823 l 309 421 l 590 421 l 447 823 m 615 329 l 278 329 l 168 0 l 49 0 l 404 987 q 490 987 404 987 l 846 0 l 724 0 l 615 329 z "},"B":{"ha":800,"x_min":82,"x_max":736,"o":"m 189 478 l 189 96 l 406 96 q 598 180 539 96 q 631 292 631 228 q 626 335 631 315 q 558 438 613 399 q 406 478 503 478 l 189 478 m 350 892 l 189 893 l 189 572 l 350 572 q 553 650 503 572 q 576 719 576 686 q 572 771 576 751 q 555 810 568 790 q 518 850 543 831 q 350 892 465 892 m 82 987 l 350 987 q 650 857 569 987 q 685 727 685 802 q 628 591 685 652 q 513 530 572 530 q 708 403 647 530 q 736 304 736 344 q 733 242 736 264 q 722 190 730 220 q 699 135 713 161 q 660 84 685 110 q 601 41 634 58 q 406 0 525 0 l 82 0 l 82 987 z "},"C":{"ha":827,"x_min":68,"x_max":791,"o":"m 791 199 q 686 49 759 111 q 475 -20 604 -20 q 132 198 241 -20 q 68 492 68 323 q 132 789 68 659 q 328 985 201 930 q 461 1014 395 1014 q 573 1001 528 1014 q 652 968 619 989 q 712 921 686 948 q 782 810 760 871 l 681 782 q 604 881 661 844 q 476 918 547 918 l 475 918 q 347 882 404 918 q 254 784 290 845 q 180 492 180 658 q 258 202 180 323 q 351 110 295 144 q 477 75 408 75 q 608 120 547 75 q 692 227 670 164 l 791 199 z "},"D":{"ha":827,"x_min":82,"x_max":782,"o":"m 669 469 q 663 581 669 537 q 642 671 656 625 q 602 756 627 717 q 544 826 577 795 q 355 892 471 892 l 189 892 l 189 96 l 355 96 q 601 207 528 96 q 669 469 669 311 m 679 836 q 704 801 679 836 q 755 678 728 766 q 782 489 782 589 q 755 299 782 389 q 679 143 728 210 q 553 38 629 76 q 383 0 477 0 l 82 0 l 82 987 l 383 987 q 553 946 476 987 q 679 836 629 905 z "},"E":{"ha":774,"x_min":82,"x_max":707,"o":"m 82 987 l 707 987 l 707 892 l 189 892 l 189 554 l 677 554 l 677 458 l 189 458 l 189 96 l 707 96 l 707 0 l 82 0 l 82 987 z "},"F":{"ha":777,"x_min":82,"x_max":707,"o":"m 82 987 l 707 987 l 707 892 l 189 892 l 189 554 l 677 554 l 677 458 l 189 458 l 189 0 l 82 0 l 82 987 z "},"G":{"ha":924,"x_min":68,"x_max":836,"o":"m 475 -20 q 301 23 379 -20 q 172 138 222 66 q 68 496 68 289 q 132 778 68 648 q 327 982 203 924 q 490 1014 395 1014 q 771 854 670 1014 l 677 808 q 593 891 638 863 q 477 918 548 918 q 348 879 406 918 q 255 776 290 839 q 180 496 180 646 q 255 212 180 339 q 348 113 290 151 q 464 75 405 75 q 562 90 522 75 q 629 129 602 104 q 677 183 656 153 q 708 248 697 214 q 730 376 730 317 l 464 376 l 464 472 l 836 472 l 836 414 q 783 176 836 283 q 613 7 722 54 q 479 -20 552 -20 l 475 -20 z "},"H":{"ha":812,"x_min":82,"x_max":745,"o":"m 82 987 l 189 987 l 189 553 l 637 553 l 637 987 l 745 987 l 745 0 l 637 0 l 637 457 l 189 457 l 189 0 l 82 0 l 82 987 z "},"I":{"ha":301,"x_min":104,"x_max":211,"o":"m 104 0 l 104 987 l 211 987 l 211 0 l 104 0 z "},"J":{"ha":773,"x_min":77,"x_max":697,"o":"m 77 363 l 172 363 q 253 143 172 233 q 377 82 308 82 q 494 125 446 82 q 590 363 590 208 l 590 987 l 697 987 l 697 363 q 610 88 697 196 q 383 -20 522 -20 q 193 57 271 -20 q 77 363 77 170 z "},"K":{"ha":840,"x_min":82,"x_max":838,"o":"m 82 987 l 189 987 l 189 476 l 696 987 l 827 987 l 387 545 l 838 0 l 697 0 l 317 476 l 189 350 l 189 0 l 82 0 l 82 987 z "},"L":{"ha":749,"x_min":82,"x_max":708,"o":"m 82 987 l 189 987 l 189 96 l 708 96 l 708 0 l 82 0 l 82 987 z "},"M":{"ha":1059,"x_min":82,"x_max":991,"o":"m 82 0 l 82 987 l 228 987 l 539 142 l 851 987 l 991 987 l 991 0 l 888 0 l 888 817 l 597 11 l 476 11 l 186 817 l 186 0 l 82 0 z "},"N":{"ha":862,"x_min":82,"x_max":794,"o":"m 82 0 l 82 987 l 186 987 l 688 200 l 688 987 l 794 987 l 794 0 l 696 0 l 189 807 l 189 0 l 82 0 z "},"O":{"ha":904,"x_min":62,"x_max":856,"o":"m 705 267 q 716 295 705 267 q 735 378 726 323 q 743 503 743 434 q 729 637 743 572 q 695 749 715 702 q 642 835 674 795 q 458 918 574 918 q 345 891 395 918 q 264 821 295 864 q 212 720 233 778 q 175 517 175 618 q 188 352 175 416 q 222 242 201 288 q 275 159 243 197 q 458 77 342 77 q 572 103 522 77 q 653 170 622 129 q 705 267 684 212 m 197 94 q 175 121 197 94 q 123 210 152 147 q 78 344 94 272 q 62 488 62 416 q 75 630 62 560 q 119 770 88 700 q 193 893 149 840 q 306 980 237 947 q 458 1014 375 1014 q 608 983 541 1014 q 720 898 675 951 q 840 644 808 793 q 856 495 856 566 q 843 355 856 424 q 799 218 829 287 q 724 98 768 150 q 611 13 680 45 q 459 -20 542 -20 q 310 11 377 -20 q 197 94 243 41 z "},"P":{"ha":745,"x_min":82,"x_max":700,"o":"m 189 525 l 329 525 q 590 710 590 525 q 522 846 590 795 q 329 892 463 892 l 189 892 l 189 525 m 82 987 l 329 987 q 579 928 485 987 q 694 768 673 868 q 700 694 700 737 q 677 601 700 651 q 611 511 655 551 q 329 428 516 428 l 189 428 l 189 0 l 82 0 l 82 987 z "},"Q":{"ha":929,"x_min":62,"x_max":873,"o":"m 644 834 q 457 918 575 918 q 334 883 389 918 q 245 787 279 847 q 175 492 175 663 q 188 356 175 418 q 222 248 201 294 q 275 162 243 202 q 469 77 346 77 q 548 91 506 77 q 612 127 589 104 l 485 224 l 545 302 l 679 201 q 749 504 749 299 q 644 834 749 709 m 165 137 q 148 161 165 137 q 111 236 132 185 q 76 352 90 288 q 62 488 62 416 q 76 630 62 560 q 120 770 90 700 q 196 893 151 840 q 308 980 240 947 q 451 1014 376 1014 q 583 992 525 1014 q 683 936 641 971 q 758 852 725 901 q 845 640 819 762 q 861 475 861 564 q 832 291 861 386 q 761 140 804 196 l 873 58 l 812 -21 l 696 65 q 593 2 644 24 q 470 -20 541 -20 q 341 1 399 -20 q 240 55 283 21 q 165 137 198 90 z "},"R":{"ha":747,"x_min":82,"x_max":749,"o":"m 189 525 l 329 525 q 562 610 506 525 q 590 710 590 653 q 527 843 590 794 q 329 892 464 892 l 189 892 l 189 525 m 626 0 l 335 428 l 189 428 l 189 0 l 82 0 l 82 987 l 329 987 q 597 914 493 987 q 701 710 701 840 q 634 534 701 609 q 454 439 567 460 l 749 0 l 626 0 z "},"S":{"ha":732,"x_min":31,"x_max":701,"o":"m 31 222 l 146 243 q 224 130 160 184 q 374 77 288 77 q 529 125 461 77 q 597 252 597 174 q 378 472 597 385 q 332 490 360 479 q 284 509 304 501 q 244 528 264 517 q 195 554 223 538 q 148 591 167 571 q 113 636 130 610 q 77 770 77 688 q 160 948 77 882 q 362 1014 243 1014 q 564 956 482 1014 q 674 810 646 899 l 571 793 q 498 880 555 842 q 365 918 441 918 q 237 876 288 918 q 187 770 187 834 q 216 680 187 713 q 283 625 249 642 q 336 600 317 608 q 388 579 355 592 q 447 556 421 566 q 497 532 472 545 q 555 499 522 519 q 612 456 588 479 q 657 401 635 432 q 701 251 701 340 q 655 99 701 161 q 366 -20 566 -20 q 153 47 236 -20 q 31 222 70 113 z "},"T":{"ha":843,"x_min":60,"x_max":800,"o":"m 60 987 l 800 987 l 800 892 l 490 892 l 490 0 l 383 0 l 383 892 l 60 892 l 60 987 z "},"U":{"ha":858,"x_min":82,"x_max":790,"o":"m 681 987 l 790 987 l 790 437 q 696 101 790 222 q 436 -20 603 -20 q 216 58 303 -20 q 82 437 82 178 l 82 987 l 192 987 l 192 437 q 291 133 192 222 q 436 77 353 77 q 608 162 540 77 q 681 437 681 253 l 681 987 z "},"V":{"ha":844,"x_min":54,"x_max":804,"o":"m 693 987 l 804 987 l 505 0 l 357 0 l 54 987 l 170 987 l 431 114 l 693 987 z "},"W":{"ha":1069,"x_min":57,"x_max":1028,"o":"m 57 987 l 165 987 l 290 123 l 476 962 l 608 962 l 794 123 l 920 987 l 1028 987 l 872 0 l 724 0 l 543 833 l 363 0 l 211 0 l 57 987 z "},"X":{"ha":823,"x_min":50,"x_max":787,"o":"m 50 987 l 174 987 l 419 576 l 660 987 l 783 987 l 476 494 l 787 0 l 659 0 l 419 397 l 175 0 l 54 0 l 363 494 l 50 987 z "},"Y":{"ha":800,"x_min":52,"x_max":762,"o":"m 52 987 l 165 987 l 407 581 l 648 987 l 762 987 l 460 507 l 460 0 l 353 0 l 353 507 l 52 987 z "},"Z":{"ha":899,"x_min":68,"x_max":844,"o":"m 87 987 l 836 987 l 250 96 l 844 96 l 844 0 l 68 0 l 660 892 l 87 892 l 87 987 z "},"[":{"ha":425,"x_min":89,"x_max":357,"o":"m 357 -65 l 89 -65 l 89 1038 l 357 1038 l 357 942 l 191 942 l 191 29 l 357 29 l 357 -65 z "},"\\":{"ha":550,"x_min":-20,"x_max":583,"o":"m 468 0 l -20 1047 l 97 1047 l 583 0 l 468 0 z "},"]":{"ha":433,"x_min":87,"x_max":355,"o":"m 87 -65 l 87 31 l 254 31 l 254 942 l 87 942 l 87 1038 l 355 1038 l 355 -65 l 87 -65 z "},"^":{"ha":629,"x_min":90,"x_max":557,"o":"m 557 779 l 429 779 l 323 924 l 216 781 l 90 781 l 278 1013 l 367 1013 l 557 779 z "},"_":{"ha":842,"x_min":60,"x_max":799,"o":"m 60 -157 l 60 -61 l 799 -61 l 799 -157 l 60 -157 z "},"`":{"ha":373,"x_min":41,"x_max":326,"o":"m 315 1137 q 326 1113 326 1126 q 317 1089 326 1100 q 291 1073 305 1073 q 268 1079 276 1073 l 61 1227 q 41 1265 41 1245 q 52 1299 41 1284 q 88 1318 67 1318 q 124 1306 109 1318 l 315 1137 z "},"a":{"ha":673,"x_min":57,"x_max":587,"o":"m 493 234 q 493 268 493 234 q 443 349 493 302 q 325 395 393 395 q 209 348 256 395 q 161 232 161 300 q 210 118 161 163 q 328 72 258 72 q 445 119 397 72 q 493 234 493 166 m 310 486 q 432 449 380 486 q 492 379 484 412 l 492 444 q 449 594 492 541 q 326 647 406 647 q 238 632 279 647 q 174 595 197 618 l 121 665 q 325 739 212 739 q 513 661 439 739 q 587 444 587 583 l 587 0 l 493 0 l 493 106 q 433 27 488 73 q 309 -20 379 -20 q 128 50 199 -20 q 57 231 57 120 q 131 414 57 342 q 310 486 204 486 z "},"b":{"ha":708,"x_min":87,"x_max":661,"o":"m 191 601 q 393 747 252 747 q 515 716 462 747 q 599 629 568 684 q 661 366 661 521 q 599 101 661 212 q 514 13 568 45 q 406 -20 461 -20 q 316 -8 350 -20 q 258 26 282 4 q 191 125 218 62 l 191 0 l 87 0 l 87 986 l 191 986 l 191 601 m 505 151 q 531 190 505 151 q 557 366 557 230 q 505 578 557 501 q 374 655 453 655 q 241 577 296 655 q 187 365 187 499 q 241 151 187 230 q 374 72 296 72 q 505 151 452 72 z "},"c":{"ha":625,"x_min":52,"x_max":594,"o":"m 505 549 q 452 616 493 583 q 364 650 412 650 q 217 569 278 650 q 155 360 155 488 q 215 152 155 233 q 363 72 275 72 q 494 149 441 72 q 511 179 505 165 l 594 127 q 498 23 557 66 q 357 -20 439 -20 q 202 32 274 -20 q 91 171 131 83 q 52 364 52 259 q 170 665 52 549 q 364 742 250 742 q 499 701 441 742 q 594 593 557 659 l 505 549 z "},"d":{"ha":708,"x_min":50,"x_max":623,"o":"m 317 747 q 520 601 458 747 l 520 986 l 623 986 l 623 0 l 520 0 l 520 125 q 445 20 492 59 q 324 -20 399 -20 q 196 13 250 -20 q 112 101 143 45 q 50 366 50 212 q 112 629 50 521 q 196 716 143 684 q 317 747 249 747 m 206 578 q 180 540 206 578 q 154 366 154 501 q 206 151 154 230 q 337 72 258 72 q 469 151 415 72 q 524 365 524 230 q 469 577 524 499 q 336 655 415 655 q 206 578 258 655 z "},"e":{"ha":687,"x_min":66,"x_max":627,"o":"m 174 410 l 528 410 q 475 579 522 508 q 351 650 427 650 q 259 613 300 650 q 174 410 183 544 m 627 383 l 627 318 l 174 318 q 260 109 186 176 q 350 72 300 72 q 448 98 400 72 q 517 165 496 124 l 608 127 q 502 20 573 60 q 347 -20 431 -20 q 198 32 263 -20 q 99 170 132 84 q 66 364 66 256 q 100 557 66 472 q 198 692 133 642 q 340 742 263 742 q 471 711 417 742 q 557 629 524 680 q 627 383 627 524 z "},"f":{"ha":486,"x_min":85,"x_max":490,"o":"m 282 636 l 282 0 l 179 0 l 179 636 l 85 636 l 85 728 l 178 728 l 178 819 q 198 896 178 860 q 248 955 218 932 q 360 1004 312 1004 q 435 990 409 1004 q 490 949 461 977 l 416 878 q 383 907 399 901 q 345 913 368 913 q 302 895 321 913 q 283 847 283 878 l 283 728 l 415 728 l 415 636 l 282 636 z "},"g":{"ha":692,"x_min":50,"x_max":623,"o":"m 317 747 q 520 601 458 747 l 520 728 l 623 728 l 623 -12 q 600 -136 623 -79 q 537 -228 576 -192 q 348 -304 455 -304 q 233 -282 286 -304 q 145 -225 180 -260 q 66 -74 76 -155 l 163 -74 q 226 -173 172 -133 q 346 -212 279 -212 q 466 -163 412 -212 q 520 -22 520 -113 l 520 125 q 395 -8 473 20 q 312 -20 361 -20 q 217 2 263 -20 q 141 60 172 24 q 90 146 111 97 q 50 341 50 241 q 65 508 50 441 q 112 630 81 575 q 196 716 143 684 q 317 747 249 747 m 206 578 q 180 540 206 578 q 154 366 154 501 q 206 151 154 230 q 337 72 258 72 q 469 151 415 72 q 524 365 524 230 q 469 577 524 499 q 336 655 415 655 q 206 578 258 655 z "},"h":{"ha":722,"x_min":87,"x_max":648,"o":"m 191 0 l 87 0 l 87 987 l 191 987 l 191 605 q 265 706 210 665 q 397 747 321 747 q 580 653 512 747 q 648 367 648 558 l 648 0 l 546 0 l 546 367 q 451 632 546 570 q 363 654 416 654 q 269 614 310 654 q 191 366 191 538 l 191 0 z "},"i":{"ha":292,"x_min":89,"x_max":216,"o":"m 89 902 q 89 916 89 902 q 108 949 89 930 q 151 968 127 968 q 193 954 176 968 q 216 906 216 933 q 197 859 216 878 q 154 840 178 840 q 113 854 130 840 q 89 902 89 874 m 102 728 l 204 728 l 204 0 l 102 0 l 102 728 z "},"j":{"ha":317,"x_min":-81,"x_max":243,"o":"m 179 840 q 167 840 179 840 q 135 859 154 840 q 115 904 115 878 q 134 949 115 930 q 179 968 153 968 q 223 949 204 968 q 243 904 243 930 q 224 859 243 878 q 179 840 205 840 m -81 -235 l -8 -165 q 3 -176 2 -175 q 9 -180 4 -176 q 16 -185 14 -184 q 22 -190 18 -186 q 30 -194 26 -193 q 38 -196 33 -195 q 58 -199 47 -199 q 127 -115 127 -199 l 127 728 l 231 728 l 231 -94 q 126 -264 231 -208 q 43 -290 77 -290 q -16 -280 9 -290 q -51 -261 -40 -270 q -81 -235 -62 -253 z "},"k":{"ha":640,"x_min":87,"x_max":637,"o":"m 325 418 l 637 0 l 519 0 l 262 347 l 191 257 l 191 0 l 87 0 l 87 986 l 191 986 l 191 395 l 468 728 l 586 728 l 325 418 z "},"l":{"ha":292,"x_min":102,"x_max":285,"o":"m 204 140 q 285 69 204 69 l 285 -20 q 164 5 208 -20 q 102 138 102 41 l 102 986 l 204 986 l 204 140 z "},"m":{"ha":1040,"x_min":87,"x_max":968,"o":"m 579 0 l 476 0 l 476 371 q 438 597 476 532 q 338 654 406 654 q 191 373 191 654 l 191 0 l 87 0 l 87 728 l 191 728 l 191 604 q 269 718 231 690 q 377 747 309 747 q 497 701 446 747 q 566 583 547 654 q 634 701 583 654 q 759 747 685 747 q 917 666 867 747 q 968 443 968 585 l 968 0 l 865 0 l 865 368 q 842 564 865 506 q 781 640 819 622 q 730 650 759 650 q 579 372 579 650 l 579 0 z "},"n":{"ha":722,"x_min":87,"x_max":648,"o":"m 191 0 l 87 0 l 87 728 l 191 728 l 191 605 q 265 706 210 665 q 397 747 321 747 q 580 653 512 747 q 648 367 648 558 l 648 0 l 546 0 l 546 367 q 451 632 546 570 q 363 654 416 654 q 269 614 310 654 q 191 366 191 538 l 191 0 z "},"o":{"ha":715,"x_min":69,"x_max":661,"o":"m 203 33 q 169 59 203 33 q 102 170 135 85 q 69 350 69 256 q 89 513 69 445 q 144 633 108 582 q 366 742 221 742 q 528 691 459 742 q 661 364 661 591 q 529 33 661 133 q 366 -20 460 -20 q 203 33 271 -20 m 255 610 q 233 590 255 610 q 192 508 211 570 q 174 375 174 446 q 184 252 174 303 q 218 159 195 200 q 366 72 265 72 q 546 252 508 72 q 557 375 557 303 q 538 508 557 446 q 475 610 519 570 q 365 650 431 650 q 255 610 299 650 z "},"p":{"ha":708,"x_min":87,"x_max":661,"o":"m 191 601 q 393 747 252 747 q 515 716 462 747 q 599 629 568 684 q 661 366 661 521 q 599 101 661 212 q 514 13 568 45 q 406 -20 461 -20 q 316 -8 350 -20 q 258 26 282 4 q 191 125 218 62 l 191 -290 l 87 -290 l 87 728 l 191 728 l 191 601 m 505 151 q 531 190 505 151 q 557 366 557 230 q 505 578 557 501 q 374 655 453 655 q 241 577 296 655 q 187 365 187 499 q 241 151 187 230 q 374 72 296 72 q 505 151 452 72 z "},"q":{"ha":711,"x_min":50,"x_max":703,"o":"m 317 747 q 520 601 458 747 l 520 728 l 623 728 l 623 -135 q 641 -194 623 -176 q 703 -212 659 -212 l 703 -304 q 567 -265 614 -304 q 520 -139 520 -225 l 520 125 q 316 -20 458 -20 q 195 13 248 -20 q 111 102 142 46 q 50 366 50 212 q 112 629 50 521 q 196 716 143 684 q 317 747 249 747 m 206 578 q 180 540 206 578 q 154 366 154 501 q 206 151 154 230 q 337 72 258 72 q 469 151 415 72 q 524 365 524 230 q 469 577 524 499 q 336 655 415 655 q 206 578 258 655 z "},"r":{"ha":465,"x_min":87,"x_max":500,"o":"m 500 723 l 446 634 q 361 654 412 654 q 269 614 310 654 q 191 366 191 538 l 191 0 l 87 0 l 87 728 l 191 728 l 191 605 q 265 706 210 665 q 387 747 321 747 q 500 723 453 747 z "},"s":{"ha":625,"x_min":65,"x_max":570,"o":"m 327 321 q 302 329 327 321 q 250 348 277 337 q 188 378 222 359 q 132 420 153 398 q 82 557 82 473 q 150 692 82 642 q 318 745 218 743 q 534 640 463 745 q 558 591 550 616 l 459 570 q 319 653 422 653 q 225 626 265 653 q 186 551 186 600 q 195 507 186 521 q 211 484 205 492 q 228 468 216 476 q 246 456 239 460 q 266 446 252 452 q 285 438 280 440 q 311 428 294 434 q 349 415 328 422 q 382 403 370 407 q 415 390 393 399 q 449 374 436 381 q 479 356 461 368 q 509 334 498 345 q 533 307 520 323 q 553 275 546 292 q 570 195 570 237 q 496 41 570 102 q 320 -20 423 -20 q 154 26 218 -20 q 65 147 91 71 l 165 166 q 220 96 185 121 q 321 72 256 72 q 426 104 387 72 q 465 195 465 137 q 415 281 465 249 q 327 321 377 304 z "},"t":{"ha":472,"x_min":69,"x_max":401,"o":"m 165 636 l 69 636 l 69 728 l 165 728 l 165 897 l 268 897 l 268 728 l 401 728 l 401 636 l 268 636 l 268 146 q 347 66 268 66 l 395 66 l 395 -20 l 347 -20 q 206 18 247 -20 q 165 143 165 56 l 165 636 z "},"u":{"ha":722,"x_min":81,"x_max":642,"o":"m 539 728 l 642 728 l 642 0 l 539 0 l 539 123 q 465 21 520 62 q 332 -20 409 -20 q 150 75 218 -20 q 81 361 81 170 l 81 728 l 184 728 l 184 361 q 279 96 184 157 q 367 73 313 73 q 461 114 420 73 q 539 361 539 190 l 539 728 z "},"v":{"ha":694,"x_min":56,"x_max":656,"o":"m 302 0 l 56 728 l 164 728 l 354 132 l 549 728 l 656 728 l 406 0 l 302 0 z "},"w":{"ha":932,"x_min":46,"x_max":901,"o":"m 473 585 l 319 0 l 240 0 l 46 728 l 150 728 l 281 170 l 422 722 q 525 722 422 722 l 667 170 l 798 728 l 901 728 l 707 0 l 624 0 l 473 585 z "},"x":{"ha":611,"x_min":36,"x_max":590,"o":"m 590 0 l 475 0 l 311 298 l 155 0 l 36 0 l 249 366 l 37 728 l 153 728 l 311 433 l 469 728 l 585 728 l 374 368 l 590 0 z "},"y":{"ha":722,"x_min":81,"x_max":642,"o":"m 642 -12 q 616 -135 642 -79 q 549 -228 591 -192 q 353 -304 461 -304 q 106 -186 208 -304 l 178 -129 q 353 -212 248 -212 q 477 -167 420 -212 q 539 -22 539 -117 l 539 123 q 465 21 520 62 q 332 -20 409 -20 q 150 75 218 -20 q 81 361 81 170 l 81 728 l 184 728 l 184 361 q 279 96 184 157 q 367 73 313 73 q 461 114 420 73 q 539 361 539 190 l 539 728 l 642 728 l 642 -12 z "},"z":{"ha":652,"x_min":61,"x_max":615,"o":"m 232 96 l 595 96 l 595 0 l 61 0 l 444 632 l 89 632 l 89 728 l 615 728 l 232 96 z "},"{":{"ha":507,"x_min":61,"x_max":431,"o":"m 194 798 l 194 825 q 204 942 194 921 q 223 975 214 964 q 241 995 233 987 q 264 1010 249 1003 q 286 1021 279 1017 q 313 1028 294 1025 q 340 1033 333 1031 q 370 1035 347 1034 q 399 1037 394 1036 q 431 1038 404 1037 l 431 946 q 392 949 412 949 q 342 938 372 949 q 301 910 311 927 q 290 839 290 893 l 290 808 q 257 571 290 675 q 205 494 237 507 q 268 377 246 479 q 290 161 290 275 l 290 132 q 293 77 290 90 q 303 53 296 64 q 341 31 311 41 q 392 20 372 20 q 431 22 412 20 l 431 -69 q 399 -68 404 -68 q 370 -67 394 -68 q 340 -64 347 -66 q 313 -59 333 -62 q 286 -52 294 -56 q 264 -41 279 -48 q 241 -26 249 -35 q 202 35 208 7 q 194 171 196 62 q 179 338 192 279 q 61 494 152 467 q 133 543 104 508 q 172 620 161 577 q 194 798 194 701 z "},"|":{"ha":250,"x_min":85,"x_max":182,"o":"m 85 0 l 85 986 l 182 986 l 182 0 l 85 0 z "},"}":{"ha":507,"x_min":90,"x_max":460,"o":"m 327 181 l 327 153 q 317 30 327 52 q 298 -3 307 9 q 280 -22 288 -14 q 257 -37 272 -31 q 235 -48 242 -44 q 208 -55 227 -52 q 181 -60 188 -58 q 151 -63 174 -62 q 122 -64 127 -64 q 90 -65 117 -64 l 90 26 q 129 24 109 24 q 179 35 149 24 q 222 64 210 45 q 231 136 231 79 l 231 165 q 264 416 231 307 q 315 494 284 483 q 252 611 273 511 q 231 808 231 711 l 231 839 q 228 891 231 878 q 217 916 224 904 q 179 938 210 927 q 129 949 149 949 q 90 946 109 949 l 90 1038 q 122 1037 117 1037 q 151 1035 127 1036 q 181 1033 174 1034 q 208 1028 188 1031 q 235 1021 227 1025 q 257 1010 242 1017 q 280 995 272 1003 q 311 956 303 972 q 321 923 318 940 q 327 806 325 906 q 341 650 329 705 q 460 494 368 524 q 388 446 416 481 q 349 366 359 410 q 327 181 327 281 z "},"~":{"ha":498,"x_min":43,"x_max":475,"o":"m 43 518 q 59 531 46 521 q 77 547 71 542 q 96 560 83 551 q 119 572 109 568 q 164 583 144 583 q 204 573 185 583 q 239 547 223 562 q 272 517 256 532 q 347 481 311 481 q 397 493 376 481 q 425 510 417 505 q 451 530 432 515 q 475 547 471 545 l 475 449 q 455 433 472 447 q 434 416 438 420 q 415 404 429 413 q 393 392 401 395 q 346 382 366 382 q 304 392 326 382 q 265 418 283 403 q 231 449 248 433 q 198 474 215 464 q 165 485 180 485 q 137 482 151 485 q 109 470 124 479 q 88 457 94 460 q 64 437 83 453 q 43 419 45 420 l 43 518 z "},"":{"ha":904,"x_min":62,"x_max":856,"o":"m 484 372 l 484 305 l 410 305 l 410 374 q 469 496 410 444 q 498 520 475 499 q 525 543 522 541 q 529 547 527 545 q 533 550 531 549 q 536 553 534 551 q 543 561 538 555 q 551 569 549 566 q 556 574 554 572 q 561 581 558 576 q 565 589 563 585 q 569 595 567 593 q 572 604 571 598 q 576 618 574 612 q 580 654 580 632 q 543 745 580 713 q 457 778 507 778 q 375 756 408 778 q 326 706 342 735 q 309 650 309 677 l 239 661 q 307 792 248 739 q 445 845 365 845 q 624 761 566 845 q 655 663 655 716 q 637 575 655 610 q 532 463 609 518 q 491 416 498 437 q 484 372 484 395 m 502 179 q 487 143 502 157 q 453 128 473 128 q 417 141 434 128 q 400 187 400 155 q 415 215 400 199 q 450 230 431 230 q 484 219 469 230 q 502 190 498 208 l 502 179 m 653 170 q 743 502 743 290 q 642 835 743 709 q 458 918 575 918 q 264 821 336 918 q 175 492 175 701 q 275 159 175 281 q 458 77 341 77 q 572 103 522 77 q 653 170 623 130 m 123 210 q 62 490 62 337 q 119 770 62 640 q 307 981 184 921 q 458 1014 375 1014 q 608 982 541 1014 q 795 781 727 926 q 856 492 856 650 q 799 218 856 345 q 723 96 767 147 q 610 13 679 45 q 459 -20 541 -20 q 123 210 231 -20 z "},"¡":{"ha":210,"x_min":19,"x_max":168,"o":"m 47 688 q 59 716 47 705 q 87 727 71 728 q 115 716 103 727 q 126 688 126 705 l 154 44 q 134 -1 154 18 q 87 -20 114 -20 q 40 -1 60 -20 q 19 43 19 18 l 47 688 m 168 924 q 168 908 168 924 q 146 870 168 892 q 96 849 124 849 q 48 865 68 849 q 22 920 22 888 q 43 974 22 952 q 93 995 64 995 q 140 979 121 995 q 168 924 168 956 z "},"¢":{"ha":548,"x_min":54,"x_max":501,"o":"m 258 189 q 132 247 186 198 q 54 446 54 319 q 188 649 54 585 q 256 673 220 665 l 256 819 l 347 819 l 347 673 q 482 597 414 656 l 421 533 q 302 587 367 587 q 194 546 237 587 q 151 443 151 505 q 156 395 151 420 q 206 307 168 338 q 298 275 244 275 q 440 347 385 275 l 501 286 q 350 186 460 221 l 350 53 l 258 53 l 258 189 z "},"£":{"ha":760,"x_min":57,"x_max":721,"o":"m 211 404 l 57 404 l 57 496 l 218 496 q 262 868 218 742 q 404 994 307 994 q 627 793 555 994 l 529 789 q 486 870 517 836 q 404 904 454 904 q 363 859 383 904 q 322 633 322 763 l 322 496 l 566 496 l 566 404 l 318 404 q 245 92 309 279 l 587 92 q 667 140 633 94 l 721 62 q 641 10 694 22 q 603 3 623 6 q 579 0 583 1 l 98 0 q 134 105 105 28 q 211 404 204 294 z "},"¤":{"ha":581,"x_min":43,"x_max":551,"o":"m 176 514 q 176 487 176 514 q 216 428 176 460 q 302 395 255 395 q 386 431 350 395 q 421 518 421 467 q 382 609 421 576 q 295 641 343 641 q 212 605 248 641 q 176 514 176 569 m 469 642 q 510 516 510 586 q 465 387 510 446 l 551 387 l 551 254 l 418 254 l 418 342 q 297 304 363 304 q 176 342 231 304 l 176 254 l 43 254 l 43 387 l 129 387 q 85 516 85 446 q 125 642 85 587 l 43 642 l 43 775 l 176 775 l 176 692 q 297 729 231 729 q 418 692 363 729 l 418 775 l 551 775 l 551 642 l 469 642 z "},"¥":{"ha":753,"x_min":50,"x_max":714,"o":"m 319 463 l 109 463 l 109 554 l 283 554 l 50 947 l 155 947 l 375 564 l 608 947 l 714 947 l 461 554 l 629 554 l 629 463 l 422 463 l 422 317 l 629 317 l 629 225 l 422 225 l 422 0 l 319 0 l 319 225 l 109 225 l 109 317 l 319 317 l 319 463 z "},"¦":{"ha":207,"x_min":61,"x_max":158,"o":"m 158 437 l 158 0 l 61 0 l 61 437 l 158 437 m 61 534 l 61 972 l 158 972 l 158 534 l 61 534 z "},"§":{"ha":465,"x_min":29,"x_max":453,"o":"m 351 302 l 310 293 q 137 351 215 293 q 29 591 29 432 q 56 731 29 666 q 132 837 82 796 q 245 878 181 878 q 349 853 309 878 q 436 766 389 829 l 332 755 q 296 777 320 768 q 254 786 273 786 l 252 786 q 126 650 157 786 q 171 656 145 656 q 345 590 264 656 q 446 422 425 524 q 453 359 453 389 q 389 158 453 245 q 237 71 326 71 q 35 197 109 71 l 136 204 q 177 175 149 186 q 227 163 205 163 l 229 163 q 310 201 277 163 q 354 298 343 239 l 354 300 q 351 302 354 302 m 343 395 q 281 522 343 467 q 170 564 233 564 q 132 554 147 564 q 192 435 132 486 q 306 385 251 385 l 318 385 q 343 395 343 385 z "},"¨":{"ha":538,"x_min":52,"x_max":498,"o":"m 371 1143 q 390 1187 371 1168 q 433 1206 409 1206 q 475 1192 458 1206 q 498 1144 498 1173 q 479 1097 498 1116 q 437 1078 460 1078 q 395 1093 413 1078 q 374 1124 377 1107 q 371 1143 371 1141 m 179 1143 q 179 1129 179 1143 q 160 1096 179 1115 q 117 1077 141 1077 q 76 1092 94 1077 q 55 1120 58 1106 q 52 1151 52 1134 q 71 1186 52 1167 q 114 1205 90 1205 q 155 1191 138 1205 q 179 1143 179 1171 z "},"©":{"ha":639,"x_min":28,"x_max":623,"o":"m 427 414 q 328 368 381 368 q 236 399 275 368 q 184 504 184 441 q 225 607 184 566 q 327 648 267 648 q 427 608 387 648 l 374 553 q 325 572 351 572 q 280 553 299 572 q 261 509 261 534 q 282 462 261 479 q 329 444 302 444 q 376 463 356 444 l 427 414 m 187 338 q 331 289 247 289 q 479 353 415 289 q 543 509 543 418 q 538 555 543 528 q 463 679 522 629 q 319 728 403 728 q 171 664 235 728 q 107 502 107 600 q 187 338 107 405 m 28 499 q 28 565 28 499 q 115 719 28 631 q 317 806 202 806 q 513 739 431 806 q 623 517 623 649 q 535 298 623 385 q 333 211 448 211 q 138 278 219 211 q 28 499 28 368 z "},"ª":{"ha":517,"x_min":74,"x_max":366,"o":"m 272 802 q 282 811 272 802 q 292 849 292 821 q 272 897 292 878 q 222 916 252 916 q 173 897 193 916 q 153 849 153 877 q 173 802 153 821 q 222 783 193 783 q 272 802 252 783 m 292 742 q 206 709 259 709 q 113 748 153 709 q 74 848 74 787 q 115 950 74 910 q 205 989 156 989 q 287 965 262 989 q 291 962 290 962 q 273 1021 290 1000 q 229 1042 255 1042 q 155 1020 178 1042 l 144 1009 l 100 1067 l 111 1076 q 222 1116 160 1116 q 325 1073 284 1116 q 366 955 366 1029 l 366 719 l 292 719 l 292 742 z "},"«":{"ha":591,"x_min":40,"x_max":534,"o":"m 443 758 l 534 758 l 404 561 l 534 364 l 443 364 l 313 561 l 443 758 m 171 758 l 262 758 l 132 561 l 262 364 l 171 364 l 40 561 l 171 758 z "},"¬":{"ha":696,"x_min":104,"x_max":624,"o":"m 624 370 l 532 370 l 532 509 l 104 509 l 104 606 l 624 606 l 624 370 z "},"­":{"ha":644,"x_min":74,"x_max":533,"o":"m 74 595 l 533 595 l 533 498 l 74 498 l 74 595 z "},"®":{"ha":806,"x_min":64,"x_max":754,"o":"m 231 710 q 167 626 191 678 q 143 524 143 573 q 152 435 143 475 q 188 355 160 395 q 252 292 215 315 q 408 243 326 243 q 587 312 505 243 q 650 396 626 345 q 675 494 675 448 q 666 579 675 540 q 629 659 658 618 q 562 725 600 701 q 408 775 484 775 q 231 710 311 775 m 144 283 q 64 522 64 374 q 85 636 64 578 q 141 734 106 694 q 222 801 176 773 q 420 854 309 854 q 626 779 531 854 q 747 584 721 703 q 754 509 754 545 q 704 329 754 410 q 574 207 653 249 q 416 164 496 164 q 144 283 250 164 m 484 587 q 448 625 481 617 q 364 632 415 632 l 345 632 l 345 543 l 379 543 q 475 564 457 543 q 484 587 484 573 m 289 685 l 345 685 q 474 665 421 685 q 538 587 538 642 q 495 515 538 534 q 443 498 473 505 l 553 336 l 485 336 l 389 490 l 345 489 l 345 336 l 289 336 l 289 685 z "},"¯":{"ha":644,"x_min":127,"x_max":587,"o":"m 127 896 l 587 896 l 587 824 l 127 824 l 127 896 z "},"°":{"ha":406,"x_min":33,"x_max":389,"o":"m 113 795 q 113 772 113 795 q 144 723 113 749 q 214 697 176 697 q 280 727 252 697 q 309 799 309 756 q 277 874 309 848 q 208 901 246 901 q 141 871 170 901 q 113 795 113 841 m 33 791 q 33 830 33 791 q 85 920 33 869 q 206 971 137 971 q 323 932 275 971 q 389 801 389 880 q 337 672 389 723 q 216 621 285 621 q 99 660 147 621 q 33 791 33 713 z "},"±":{"ha":667,"x_min":102,"x_max":614,"o":"m 102 677 l 310 677 l 310 888 l 406 888 l 406 677 l 614 677 l 614 581 l 406 581 l 406 370 l 310 370 l 310 581 l 102 581 l 102 677 m 128 282 l 587 282 l 587 186 l 128 186 l 128 282 z "},"²":{"ha":450,"x_min":46,"x_max":401,"o":"m 137 1007 l 46 1043 l 52 1063 q 117 1155 67 1117 q 227 1192 167 1192 q 358 1131 310 1192 q 393 1019 393 1088 q 305 867 393 934 q 282 849 286 852 l 248 826 q 201 785 229 814 q 163 733 174 755 l 401 733 l 401 638 l 46 638 l 46 662 q 118 837 46 763 q 204 910 155 875 l 219 921 q 232 929 229 928 q 235 931 235 930 l 250 943 l 264 956 l 275 968 l 285 984 l 290 1000 l 293 1021 q 273 1077 293 1057 q 226 1097 252 1097 q 177 1080 199 1097 q 144 1031 154 1062 l 137 1007 z "},"³":{"ha":454,"x_min":35,"x_max":404,"o":"m 338 945 q 404 816 404 894 q 348 688 404 738 q 214 638 293 638 q 116 668 165 638 q 45 748 66 698 l 35 772 l 132 802 l 141 783 q 172 747 152 761 q 222 734 193 734 q 278 756 252 734 q 303 806 303 779 q 248 890 303 873 q 216 896 232 896 l 165 896 l 165 985 l 222 985 q 263 1004 245 985 q 280 1048 280 1023 q 262 1091 280 1074 q 222 1108 245 1108 l 220 1108 q 163 1069 181 1108 l 153 1047 l 62 1089 l 73 1111 q 134 1178 95 1153 q 216 1203 173 1203 q 357 1130 310 1203 q 381 1041 381 1094 q 338 945 381 987 z "},"´":{"ha":373,"x_min":41,"x_max":326,"o":"m 98 1079 q 76 1073 90 1073 q 51 1086 61 1073 q 41 1113 41 1100 q 52 1137 41 1126 l 242 1306 q 270 1318 257 1318 q 293 1316 283 1318 q 314 1299 303 1313 q 326 1275 326 1284 q 305 1227 326 1245 l 98 1079 z "},"µ":{"ha":680,"x_min":104,"x_max":590,"o":"m 203 281 q 336 75 203 75 q 469 172 425 75 q 493 281 493 225 l 493 591 l 590 591 l 590 0 l 493 0 l 493 66 q 422 5 462 28 q 354 -18 382 -18 q 311 -17 326 -18 q 283 -9 296 -15 q 262 -1 270 -4 q 243 11 255 1 q 229 23 232 20 q 214 37 226 25 q 201 50 202 50 l 201 -268 l 104 -268 l 104 591 l 203 591 l 203 281 z "},"¶":{"ha":780,"x_min":82,"x_max":688,"o":"m 585 863 l 437 854 l 437 507 l 585 501 l 585 863 m 340 832 q 193 735 224 793 q 179 684 179 709 q 183 639 179 659 q 199 601 187 619 q 225 572 212 583 q 262 551 239 561 q 340 525 296 536 l 340 832 m 585 415 l 437 422 l 437 92 l 585 92 l 585 415 m 340 0 l 340 436 q 149 513 207 465 q 87 618 102 553 q 82 675 82 647 q 121 794 82 741 q 227 880 160 848 q 554 947 365 947 l 688 947 l 688 0 l 340 0 z "},"·":{"ha":297,"x_min":96,"x_max":242,"o":"m 96 493 q 96 509 96 493 q 118 546 96 525 q 168 568 140 568 q 216 551 196 568 q 242 497 242 529 q 221 443 242 465 q 171 422 199 422 q 123 438 143 422 q 96 493 96 460 z "},"¸":{"ha":321,"x_min":79,"x_max":250,"o":"m 193 50 q 250 -66 250 -5 q 213 -142 250 -110 q 149 -190 182 -170 q 109 -214 115 -210 l 79 -129 q 135 -80 127 -93 q 143 -61 143 -67 q 142 -48 143 -55 q 137 -34 140 -42 q 130 -22 133 -26 q 118 -5 127 -17 q 106 12 109 7 l 193 50 z "},"¹":{"ha":308,"x_min":33,"x_max":217,"o":"m 117 1047 l 33 1047 l 151 1179 l 217 1179 l 217 638 l 117 638 l 117 1047 z "},"º":{"ha":456,"x_min":31,"x_max":387,"o":"m 111 1074 q 116 1040 111 1062 q 147 995 120 1017 q 212 972 174 972 q 278 1001 250 972 q 307 1074 307 1031 q 275 1149 307 1122 q 206 1175 244 1175 q 140 1146 168 1175 q 111 1074 111 1116 m 83 1195 q 204 1246 134 1246 q 321 1206 273 1246 q 387 1076 387 1154 q 334 946 387 998 q 213 895 282 895 q 96 935 144 895 q 31 1066 31 987 q 83 1195 31 1144 z "},"»":{"ha":633,"x_min":66,"x_max":561,"o":"m 158 758 l 289 561 l 158 364 l 66 364 l 197 561 l 66 758 l 158 758 m 431 758 l 561 561 l 431 364 l 339 364 l 469 561 l 339 758 l 431 758 z "},"¼":{"ha":886,"x_min":33,"x_max":852,"o":"m 774 8 l 838 8 l 838 -87 l 774 -87 l 774 -222 l 674 -222 l 674 -87 l 447 -87 l 680 319 l 774 319 l 774 8 m 608 9 l 675 9 l 675 126 l 608 9 m 130 1047 l 47 1047 l 165 1179 l 231 1179 l 231 638 l 130 638 l 130 1047 m 134 -100 l 33 -100 l 755 1084 l 852 1084 l 134 -100 z "},"½":{"ha":886,"x_min":33,"x_max":852,"o":"m 574 147 l 483 183 l 489 203 q 554 295 504 257 q 663 332 604 332 q 795 271 747 332 q 829 159 829 228 q 742 7 829 74 q 719 -11 723 -8 l 684 -34 q 638 -75 665 -45 q 600 -127 611 -105 l 838 -127 l 838 -222 l 483 -222 l 483 -198 q 555 -23 483 -97 q 641 50 591 15 l 656 61 q 669 69 666 68 q 672 71 671 71 l 687 83 l 701 96 l 712 109 l 722 124 l 727 140 l 730 161 q 709 217 730 197 q 663 237 689 237 q 613 220 636 237 q 581 171 591 202 l 574 147 m 130 1047 l 47 1047 l 165 1179 l 231 1179 l 231 638 l 130 638 l 130 1047 m 134 -100 l 33 -100 l 755 1084 l 852 1084 l 134 -100 z "},"¾":{"ha":886,"x_min":32,"x_max":852,"o":"m 336 945 q 401 816 401 894 q 346 688 401 738 q 212 638 290 638 q 113 668 163 638 q 43 748 64 698 l 32 772 l 130 802 l 138 783 q 170 747 149 761 q 220 734 190 734 q 275 756 250 734 q 300 806 300 779 q 245 890 300 873 q 213 896 229 896 l 163 896 l 163 985 l 220 985 q 260 1004 243 985 q 277 1048 277 1023 q 260 1091 277 1074 q 219 1108 242 1108 l 217 1108 q 160 1069 178 1108 l 150 1047 l 59 1089 l 71 1111 q 131 1178 92 1153 q 214 1203 170 1203 q 355 1130 307 1203 q 378 1041 378 1094 q 336 945 378 987 m 774 8 l 838 8 l 838 -87 l 774 -87 l 774 -222 l 674 -222 l 674 -87 l 447 -87 l 680 319 l 774 319 l 774 8 m 608 9 l 675 9 l 675 126 l 608 9 m 134 -100 l 33 -100 l 755 1084 l 852 1084 l 134 -100 z "},"¿":{"ha":647,"x_min":12,"x_max":606,"o":"m 256 612 l 256 707 l 362 707 l 362 609 q 277 435 362 509 q 240 404 264 423 q 200 370 217 385 q 177 348 184 355 q 155 325 170 342 q 135 294 140 307 q 119 210 119 254 q 172 79 119 125 q 308 32 224 32 q 411 62 363 32 q 482 135 458 93 q 507 216 507 177 l 606 199 q 510 12 593 87 q 313 -64 427 -64 q 106 3 193 -64 q 38 88 63 35 q 12 207 12 141 q 157 459 12 352 q 208 498 189 483 q 241 542 226 513 q 256 612 256 572 m 376 889 q 376 873 376 889 q 354 836 376 857 q 304 814 332 814 q 256 831 276 814 q 230 885 230 853 q 251 939 230 918 q 301 960 273 960 q 349 944 329 960 q 376 889 376 922 z "},"À":{"ha":883,"x_min":43,"x_max":840,"o":"m 441 823 l 303 421 l 585 421 l 441 823 m 610 329 l 273 329 l 163 0 l 43 0 l 399 987 q 485 987 399 987 l 840 0 l 718 0 l 610 329 m 483 1137 q 494 1113 494 1126 q 486 1089 494 1100 q 459 1073 473 1073 q 436 1079 444 1073 l 229 1227 q 209 1265 209 1245 q 220 1299 209 1284 q 256 1318 235 1318 q 292 1306 277 1318 l 483 1137 z "},"Á":{"ha":883,"x_min":43,"x_max":840,"o":"m 441 823 l 303 421 l 585 421 l 441 823 m 610 329 l 273 329 l 163 0 l 43 0 l 399 987 q 485 987 399 987 l 840 0 l 718 0 l 610 329 m 439 1079 q 417 1073 431 1073 q 392 1086 402 1073 q 382 1113 382 1100 q 393 1137 382 1126 l 583 1306 q 611 1318 598 1318 q 634 1316 624 1318 q 655 1299 644 1313 q 667 1275 667 1284 q 646 1227 667 1245 l 439 1079 z "},"Â":{"ha":876,"x_min":56,"x_max":852,"o":"m 684 1059 l 557 1059 l 451 1203 l 344 1060 l 218 1060 l 406 1292 l 494 1292 l 684 1059 m 454 823 l 315 421 l 597 421 l 454 823 m 622 329 l 285 329 l 175 0 l 56 0 l 411 987 q 497 987 411 987 l 852 0 l 730 0 l 622 329 z "},"Ã":{"ha":876,"x_min":56,"x_max":852,"o":"m 235 1200 q 251 1214 238 1203 q 269 1229 263 1224 q 288 1242 275 1234 q 311 1255 301 1251 q 356 1265 336 1265 q 396 1255 377 1265 q 431 1229 415 1244 q 464 1199 448 1214 q 539 1163 503 1163 q 589 1175 568 1163 q 616 1192 609 1187 q 643 1212 624 1197 q 667 1230 663 1227 l 667 1131 q 647 1116 664 1129 q 626 1099 630 1102 q 607 1086 621 1095 q 585 1074 593 1077 q 538 1064 558 1064 q 496 1075 517 1064 q 457 1100 475 1085 q 423 1131 439 1116 q 390 1157 407 1146 q 357 1167 372 1167 q 329 1164 342 1167 q 301 1152 316 1162 q 280 1139 286 1143 q 256 1119 275 1135 q 235 1101 237 1103 l 235 1200 m 454 823 l 315 421 l 597 421 l 454 823 m 622 329 l 285 329 l 175 0 l 56 0 l 411 987 q 497 987 411 987 l 852 0 l 730 0 l 622 329 z "},"Ä":{"ha":876,"x_min":56,"x_max":852,"o":"m 546 1142 q 565 1187 546 1168 q 608 1206 584 1206 q 650 1192 633 1206 q 673 1144 673 1172 q 654 1097 673 1116 q 612 1078 635 1078 q 570 1092 588 1078 q 549 1123 552 1107 q 546 1142 546 1140 m 354 1142 q 354 1128 354 1142 q 335 1095 354 1114 q 292 1076 316 1076 q 251 1091 269 1076 q 230 1119 233 1105 q 227 1150 227 1133 q 245 1185 227 1166 q 289 1204 264 1204 q 330 1190 313 1204 q 354 1142 354 1171 m 454 823 l 315 421 l 597 421 l 454 823 m 622 329 l 285 329 l 175 0 l 56 0 l 411 987 q 497 987 411 987 l 852 0 l 730 0 l 622 329 z "},"Å":{"ha":876,"x_min":56,"x_max":852,"o":"m 356 1176 q 356 1153 356 1176 q 387 1104 356 1130 q 457 1078 418 1078 q 523 1107 495 1078 q 551 1179 551 1137 q 520 1255 551 1228 q 451 1281 489 1281 q 384 1251 412 1281 q 356 1176 356 1221 m 276 1171 q 276 1210 276 1171 q 328 1300 276 1249 q 449 1352 380 1352 q 566 1312 517 1352 q 631 1182 631 1260 q 579 1052 631 1103 q 459 1001 528 1001 q 342 1040 390 1001 q 276 1171 276 1093 m 454 823 l 315 421 l 597 421 l 454 823 m 622 329 l 285 329 l 175 0 l 56 0 l 411 987 q 497 987 411 987 l 852 0 l 730 0 l 622 329 z "},"Æ":{"ha":941,"x_min":56,"x_max":938,"o":"m 532 437 l 353 437 l 178 0 l 56 0 l 457 987 l 938 987 l 938 886 l 638 886 l 638 534 l 938 534 l 938 435 l 638 435 l 638 100 l 938 100 l 938 0 l 532 0 l 532 437 m 531 839 l 531 889 l 394 534 l 532 534 l 531 839 z "},"Ç":{"ha":827,"x_min":81,"x_max":805,"o":"m 503 -24 q 560 -140 560 -79 q 523 -216 560 -184 q 458 -264 492 -244 q 418 -288 425 -283 l 389 -203 q 445 -154 437 -167 q 453 -135 453 -141 q 452 -122 453 -129 q 447 -108 450 -116 q 440 -96 443 -100 q 428 -79 437 -91 q 416 -62 419 -67 l 503 -24 m 805 199 q 699 49 772 111 q 488 -20 618 -20 q 145 198 255 -20 q 81 492 81 323 q 145 789 81 659 q 341 985 214 930 q 475 1014 409 1014 q 587 1001 541 1014 q 666 968 633 989 q 726 921 699 948 q 795 810 774 871 l 694 782 q 617 881 675 844 q 490 918 560 918 l 488 918 q 360 882 418 918 q 267 784 303 845 q 194 492 194 658 q 271 202 194 323 q 365 110 309 144 q 491 75 421 75 q 622 120 560 75 q 705 227 684 164 l 805 199 z "},"È":{"ha":774,"x_min":82,"x_max":707,"o":"m 82 987 l 707 987 l 707 892 l 189 892 l 189 554 l 677 554 l 677 458 l 189 458 l 189 96 l 707 96 l 707 0 l 82 0 l 82 987 m 505 1137 q 515 1113 515 1126 q 507 1089 515 1100 q 480 1073 495 1073 q 458 1079 466 1073 l 251 1227 q 231 1265 231 1245 q 241 1299 231 1284 q 278 1318 257 1318 q 314 1306 299 1318 l 505 1137 z "},"É":{"ha":774,"x_min":82,"x_max":707,"o":"m 82 987 l 707 987 l 707 892 l 189 892 l 189 554 l 677 554 l 677 458 l 189 458 l 189 96 l 707 96 l 707 0 l 82 0 l 82 987 m 359 1079 q 336 1073 351 1073 q 311 1086 321 1073 q 301 1113 301 1100 q 312 1137 301 1126 l 503 1306 q 530 1318 517 1318 q 553 1316 543 1318 q 575 1299 564 1313 q 586 1275 586 1284 q 566 1227 586 1245 l 359 1079 z "},"Ê":{"ha":777,"x_min":89,"x_max":713,"o":"m 644 1043 l 517 1043 l 411 1187 l 304 1044 l 178 1044 l 366 1276 l 454 1276 l 644 1043 m 89 987 l 713 987 l 713 892 l 196 892 l 196 554 l 684 554 l 684 458 l 196 458 l 196 96 l 713 96 l 713 0 l 89 0 l 89 987 z "},"Ë":{"ha":777,"x_min":89,"x_max":713,"o":"m 500 1154 q 519 1199 500 1180 q 562 1218 538 1218 q 604 1204 587 1218 q 627 1156 627 1184 q 608 1109 627 1128 q 566 1090 589 1090 q 524 1104 542 1090 q 503 1136 506 1119 q 500 1154 500 1152 m 308 1155 q 308 1141 308 1155 q 289 1107 308 1126 q 246 1088 270 1088 q 205 1103 222 1088 q 184 1132 187 1118 q 180 1162 180 1145 q 199 1198 180 1179 q 243 1217 218 1217 q 284 1202 267 1217 q 308 1155 308 1183 m 89 987 l 713 987 l 713 892 l 196 892 l 196 554 l 684 554 l 684 458 l 196 458 l 196 96 l 713 96 l 713 0 l 89 0 l 89 987 z "},"Ì":{"ha":301,"x_min":-76,"x_max":211,"o":"m 104 0 l 104 987 l 211 987 l 211 0 l 104 0 m 198 1137 q 209 1113 209 1126 q 201 1089 209 1100 q 174 1073 189 1073 q 151 1079 159 1073 l -56 1227 q -76 1265 -76 1245 q -65 1299 -76 1284 q -28 1318 -50 1318 q 7 1306 -7 1318 l 198 1137 z "},"Í":{"ha":298,"x_min":111,"x_max":396,"o":"m 111 0 l 111 987 l 218 987 l 218 0 l 111 0 m 169 1079 q 146 1073 161 1073 q 121 1086 132 1073 q 111 1113 111 1100 q 122 1137 111 1126 l 313 1306 q 340 1318 328 1318 q 363 1316 353 1318 q 385 1299 374 1313 q 396 1275 396 1284 q 376 1227 396 1245 l 169 1079 z "},"Î":{"ha":298,"x_min":-70,"x_max":397,"o":"m 397 1051 l 269 1051 l 163 1196 l 56 1053 l -70 1053 l 118 1284 l 207 1284 l 397 1051 m 111 0 l 111 987 l 218 987 l 218 0 l 111 0 z "},"Ï":{"ha":298,"x_min":-61,"x_max":386,"o":"m 258 1143 q 277 1188 258 1169 q 321 1207 296 1207 q 362 1193 345 1207 q 386 1145 386 1173 q 367 1098 386 1117 q 324 1079 348 1079 q 282 1094 300 1079 q 261 1125 264 1108 q 258 1143 258 1141 m 66 1144 q 66 1130 66 1144 q 47 1097 66 1116 q 5 1078 28 1078 q -37 1092 -19 1078 q -58 1121 -54 1107 q -61 1151 -61 1135 q -42 1187 -61 1168 q 1 1206 -23 1206 q 43 1192 26 1206 q 66 1144 66 1172 m 111 0 l 111 987 l 218 987 l 218 0 l 111 0 z "},"Ð":{"ha":935,"x_min":98,"x_max":889,"o":"m 221 449 l 98 449 l 98 545 l 221 545 l 221 987 l 479 987 q 736 888 630 987 q 889 492 889 745 q 838 243 889 355 q 693 65 787 131 q 479 0 599 0 l 221 0 l 221 449 m 328 449 l 328 97 l 479 97 q 697 207 611 97 q 783 492 783 317 q 665 814 783 701 q 479 890 587 890 l 328 890 l 328 545 l 531 545 l 531 449 l 328 449 z "},"Ñ":{"ha":876,"x_min":89,"x_max":801,"o":"m 245 1186 q 261 1199 249 1189 q 280 1215 274 1210 q 299 1228 286 1219 q 321 1240 312 1236 q 367 1251 347 1251 q 407 1241 388 1251 q 442 1215 426 1230 q 475 1185 458 1200 q 550 1149 514 1149 q 600 1161 579 1149 q 627 1178 620 1173 q 654 1198 635 1183 q 677 1215 673 1213 l 677 1117 q 658 1101 675 1115 q 636 1084 641 1088 q 618 1072 632 1081 q 595 1060 604 1063 q 549 1050 569 1050 q 507 1060 528 1050 q 468 1086 486 1071 q 434 1117 450 1101 q 400 1142 418 1132 q 368 1153 383 1153 q 340 1150 353 1153 q 312 1138 327 1147 q 291 1125 296 1128 q 267 1105 286 1121 q 245 1087 248 1088 l 245 1186 m 89 0 l 89 987 l 193 987 l 694 200 l 694 987 l 801 987 l 801 0 l 703 0 l 196 807 l 196 0 l 89 0 z "},"Ò":{"ha":904,"x_min":62,"x_max":856,"o":"m 705 267 q 716 295 705 267 q 735 378 726 323 q 743 503 743 434 q 729 637 743 572 q 695 749 715 702 q 642 835 674 795 q 458 918 574 918 q 345 891 395 918 q 264 821 295 864 q 212 720 233 778 q 175 517 175 618 q 188 352 175 416 q 222 242 201 288 q 275 159 243 197 q 458 77 342 77 q 572 103 522 77 q 653 170 622 129 q 705 267 684 212 m 197 94 q 175 121 197 94 q 123 210 152 147 q 78 344 94 272 q 62 488 62 416 q 75 630 62 560 q 119 770 88 700 q 193 893 149 840 q 306 980 237 947 q 458 1014 375 1014 q 608 983 541 1014 q 720 898 675 951 q 840 644 808 793 q 856 495 856 566 q 843 355 856 424 q 799 218 829 287 q 724 98 768 150 q 611 13 680 45 q 459 -20 542 -20 q 310 11 377 -20 q 197 94 243 41 m 475 1137 q 486 1113 486 1126 q 477 1089 486 1100 q 451 1073 465 1073 q 428 1079 436 1073 l 221 1227 q 201 1265 201 1245 q 212 1299 201 1284 q 248 1318 227 1318 q 284 1306 269 1318 l 475 1137 z "},"Ó":{"ha":904,"x_min":62,"x_max":856,"o":"m 705 267 q 716 295 705 267 q 735 378 726 323 q 743 503 743 434 q 729 637 743 572 q 695 749 715 702 q 642 835 674 795 q 458 918 574 918 q 345 891 395 918 q 264 821 295 864 q 212 720 233 778 q 175 517 175 618 q 188 352 175 416 q 222 242 201 288 q 275 159 243 197 q 458 77 342 77 q 572 103 522 77 q 653 170 622 129 q 705 267 684 212 m 197 94 q 175 121 197 94 q 123 210 152 147 q 78 344 94 272 q 62 488 62 416 q 75 630 62 560 q 119 770 88 700 q 193 893 149 840 q 306 980 237 947 q 458 1014 375 1014 q 608 983 541 1014 q 720 898 675 951 q 840 644 808 793 q 856 495 856 566 q 843 355 856 424 q 799 218 829 287 q 724 98 768 150 q 611 13 680 45 q 459 -20 542 -20 q 310 11 377 -20 q 197 94 243 41 m 448 1079 q 426 1073 440 1073 q 401 1086 411 1073 q 391 1113 391 1100 q 401 1137 391 1126 l 592 1306 q 620 1318 607 1318 q 643 1316 633 1318 q 664 1299 653 1313 q 675 1275 675 1284 q 655 1227 675 1245 l 448 1079 z "},"Ô":{"ha":901,"x_min":69,"x_max":863,"o":"m 699 1060 l 571 1060 l 465 1204 l 358 1061 l 232 1061 l 420 1293 l 509 1293 l 699 1060 m 712 267 q 723 295 712 267 q 742 378 733 323 q 750 503 750 434 q 736 637 750 572 q 702 749 722 702 q 649 835 681 795 q 465 918 581 918 q 352 891 402 918 q 271 821 302 864 q 218 720 239 778 q 182 517 182 618 q 195 352 182 416 q 229 242 208 288 q 281 159 250 197 q 465 77 349 77 q 578 103 528 77 q 660 170 629 129 q 712 267 691 212 m 204 94 q 181 121 204 94 q 130 210 159 147 q 85 344 100 272 q 69 488 69 416 q 82 630 69 560 q 125 770 95 700 q 200 893 156 840 q 313 980 244 947 q 465 1014 382 1014 q 614 983 547 1014 q 727 898 682 951 q 846 644 814 793 q 863 495 863 566 q 849 355 863 424 q 806 218 836 287 q 731 98 775 150 q 617 13 686 45 q 466 -20 549 -20 q 317 11 384 -20 q 204 94 250 41 z "},"Õ":{"ha":901,"x_min":69,"x_max":863,"o":"m 251 1200 q 267 1214 254 1203 q 286 1229 279 1224 q 304 1242 292 1234 q 327 1255 317 1251 q 373 1265 352 1265 q 412 1255 393 1265 q 448 1229 431 1244 q 480 1199 464 1214 q 555 1163 519 1163 q 605 1175 585 1163 q 633 1192 625 1187 q 660 1212 640 1197 q 683 1230 679 1227 l 683 1131 q 663 1116 680 1129 q 642 1099 646 1102 q 623 1086 637 1095 q 601 1074 609 1077 q 554 1064 574 1064 q 512 1075 534 1064 q 473 1100 491 1085 q 439 1131 456 1116 q 406 1157 423 1146 q 374 1167 389 1167 q 346 1164 359 1167 q 317 1152 332 1162 q 296 1139 302 1143 q 272 1119 291 1135 q 251 1101 253 1103 l 251 1200 m 712 267 q 723 295 712 267 q 742 378 733 323 q 750 503 750 434 q 736 637 750 572 q 702 749 722 702 q 649 835 681 795 q 465 918 581 918 q 352 891 402 918 q 271 821 302 864 q 218 720 239 778 q 182 517 182 618 q 195 352 182 416 q 229 242 208 288 q 281 159 250 197 q 465 77 349 77 q 578 103 528 77 q 660 170 629 129 q 712 267 691 212 m 204 94 q 181 121 204 94 q 130 210 159 147 q 85 344 100 272 q 69 488 69 416 q 82 630 69 560 q 125 770 95 700 q 200 893 156 840 q 313 980 244 947 q 465 1014 382 1014 q 614 983 547 1014 q 727 898 682 951 q 846 644 814 793 q 863 495 863 566 q 849 355 863 424 q 806 218 836 287 q 731 98 775 150 q 617 13 686 45 q 466 -20 549 -20 q 317 11 384 -20 q 204 94 250 41 z "},"Ö":{"ha":901,"x_min":69,"x_max":863,"o":"m 550 1145 q 569 1190 550 1171 q 612 1209 588 1209 q 654 1195 637 1209 q 677 1147 677 1175 q 659 1100 677 1119 q 616 1081 640 1081 q 574 1096 592 1081 q 553 1127 556 1110 q 550 1145 550 1143 m 358 1146 q 358 1132 358 1146 q 339 1099 358 1118 q 296 1080 320 1080 q 255 1094 273 1080 q 234 1123 237 1109 q 231 1153 231 1137 q 250 1189 231 1170 q 293 1208 269 1208 q 334 1194 317 1208 q 358 1146 358 1174 m 712 267 q 723 295 712 267 q 742 378 733 323 q 750 503 750 434 q 736 637 750 572 q 702 749 722 702 q 649 835 681 795 q 465 918 581 918 q 352 891 402 918 q 271 821 302 864 q 218 720 239 778 q 182 517 182 618 q 195 352 182 416 q 229 242 208 288 q 281 159 250 197 q 465 77 349 77 q 578 103 528 77 q 660 170 629 129 q 712 267 691 212 m 204 94 q 181 121 204 94 q 130 210 159 147 q 85 344 100 272 q 69 488 69 416 q 82 630 69 560 q 125 770 95 700 q 200 893 156 840 q 313 980 244 947 q 465 1014 382 1014 q 614 983 547 1014 q 727 898 682 951 q 846 644 814 793 q 863 495 863 566 q 849 355 863 424 q 806 218 836 287 q 731 98 775 150 q 617 13 686 45 q 466 -20 549 -20 q 317 11 384 -20 q 204 94 250 41 z "},"×":{"ha":565,"x_min":73,"x_max":511,"o":"m 765 216 l 911 68 l 1062 216 l 1129 148 l 978 0 l 1125 -149 l 1056 -217 l 910 -68 l 759 -216 l 692 -147 l 843 1 l 697 149 l 765 216 z "},"Ø":{"ha":871,"x_min":65,"x_max":823,"o":"m 271 28 l 250 -20 l 147 -20 l 197 91 q 81 339 113 185 q 65 478 65 414 q 74 600 65 543 q 101 715 83 656 q 150 825 119 774 q 222 916 181 876 q 444 1002 309 1002 q 593 968 527 1002 l 614 1015 l 717 1015 l 670 912 q 807 640 771 814 q 823 498 823 566 q 814 375 823 431 q 787 260 805 318 q 738 153 769 203 q 666 64 707 103 q 444 -20 580 -20 q 271 28 347 -20 m 311 115 q 437 75 369 75 q 553 101 505 75 q 632 168 602 127 q 684 264 663 210 q 721 465 721 364 q 628 819 721 701 l 311 115 m 241 189 l 553 882 q 444 907 504 907 q 335 881 384 907 q 256 811 287 854 q 205 712 226 769 q 168 507 168 608 q 241 189 168 300 z "},"Ù":{"ha":858,"x_min":82,"x_max":790,"o":"m 681 987 l 790 987 l 790 437 q 696 101 790 222 q 436 -20 603 -20 q 216 58 303 -20 q 82 437 82 178 l 82 987 l 192 987 l 192 437 q 291 133 192 222 q 436 77 353 77 q 608 162 540 77 q 681 437 681 253 l 681 987 m 480 1137 q 491 1113 491 1126 q 483 1089 491 1100 q 456 1073 471 1073 q 433 1079 441 1073 l 227 1227 q 206 1265 206 1245 q 217 1299 206 1284 q 254 1318 233 1318 q 290 1306 275 1318 l 480 1137 z "},"Ú":{"ha":858,"x_min":82,"x_max":790,"o":"m 681 987 l 790 987 l 790 437 q 696 101 790 222 q 436 -20 603 -20 q 216 58 303 -20 q 82 437 82 178 l 82 987 l 192 987 l 192 437 q 291 133 192 222 q 436 77 353 77 q 608 162 540 77 q 681 437 681 253 l 681 987 m 421 1079 q 398 1073 413 1073 q 374 1086 384 1073 q 363 1113 363 1100 q 374 1137 363 1126 l 565 1306 q 593 1318 580 1318 q 616 1316 606 1318 q 637 1299 626 1313 q 648 1275 648 1284 q 628 1227 648 1245 l 421 1079 z "},"Û":{"ha":880,"x_min":89,"x_max":797,"o":"m 668 1063 l 541 1063 l 435 1207 l 328 1064 l 201 1064 l 389 1296 l 478 1296 l 668 1063 m 688 987 l 797 987 l 797 437 q 703 101 797 222 q 443 -20 610 -20 q 222 58 310 -20 q 89 437 89 178 l 89 987 l 199 987 l 199 437 q 298 133 199 222 q 443 77 360 77 q 614 162 547 77 q 688 437 688 253 l 688 987 z "},"Ü":{"ha":880,"x_min":89,"x_max":797,"o":"m 535 1145 q 554 1190 535 1171 q 597 1209 573 1209 q 639 1195 622 1209 q 663 1147 663 1175 q 644 1100 663 1119 q 601 1081 625 1081 q 559 1096 577 1081 q 538 1127 541 1110 q 535 1145 535 1143 m 343 1146 q 343 1132 343 1146 q 324 1099 343 1118 q 281 1080 305 1080 q 240 1094 258 1080 q 219 1123 222 1109 q 216 1153 216 1137 q 235 1189 216 1170 q 278 1208 254 1208 q 319 1194 302 1208 q 343 1146 343 1174 m 688 987 l 797 987 l 797 437 q 703 101 797 222 q 443 -20 610 -20 q 222 58 310 -20 q 89 437 89 178 l 89 987 l 199 987 l 199 437 q 298 133 199 222 q 443 77 360 77 q 614 162 547 77 q 688 437 688 253 l 688 987 z "},"Ý":{"ha":800,"x_min":52,"x_max":762,"o":"m 52 987 l 165 987 l 407 581 l 648 987 l 762 987 l 460 507 l 460 0 l 353 0 l 353 507 l 52 987 m 380 1079 q 357 1073 372 1073 q 332 1086 342 1073 q 322 1113 322 1100 q 333 1137 322 1126 l 524 1306 q 551 1318 538 1318 q 574 1316 564 1318 q 596 1299 585 1313 q 607 1275 607 1284 q 587 1227 607 1245 l 380 1079 z "},"Þ":{"ha":901,"x_min":98,"x_max":696,"o":"m 205 323 q 567 432 493 323 q 590 509 590 465 q 587 538 590 523 q 205 685 555 685 l 205 323 m 205 780 q 696 509 696 780 q 624 332 696 394 q 444 250 551 270 q 205 229 337 229 l 205 0 l 98 0 l 98 987 l 205 987 l 205 780 z "},"ß":{"ha":822,"x_min":62,"x_max":758,"o":"m 118 781 q 238 942 155 880 q 439 1003 321 1003 q 638 948 556 1003 q 741 796 720 892 q 746 737 746 767 l 746 728 q 640 556 746 626 q 529 507 588 522 q 641 456 591 490 q 758 256 758 374 q 414 -20 758 -20 q 288 16 360 -20 l 350 99 q 371 90 357 96 q 429 75 401 75 q 491 79 457 75 q 557 96 525 83 q 610 127 589 108 q 658 256 658 172 q 554 411 658 351 q 374 460 470 460 l 350 460 q 321 456 333 460 l 321 559 q 346 557 332 557 l 374 557 q 496 577 435 557 q 601 637 557 597 q 645 728 645 678 q 640 780 645 755 q 444 910 612 910 q 245 814 307 910 q 210 735 228 787 q 182 551 192 683 q 170 239 173 418 q 163 0 166 60 l 62 0 q 75 265 71 88 q 87 578 79 442 q 118 781 96 714 z "},"à":{"ha":675,"x_min":57,"x_max":587,"o":"m 493 234 q 493 268 493 234 q 443 349 493 302 q 325 395 393 395 q 209 348 256 395 q 161 232 161 300 q 210 118 161 163 q 328 72 258 72 q 445 119 397 72 q 493 234 493 166 m 310 486 q 432 449 380 486 q 492 379 484 412 l 492 444 q 449 594 492 541 q 326 647 406 647 q 238 632 279 647 q 174 595 197 618 l 121 665 q 325 739 212 739 q 513 661 439 739 q 587 444 587 583 l 587 0 l 493 0 l 493 106 q 433 27 488 73 q 309 -20 379 -20 q 128 50 199 -20 q 57 231 57 120 q 131 414 57 342 q 310 486 204 486 m 411 901 q 422 878 422 890 q 414 854 422 865 q 387 838 401 838 q 364 844 372 838 l 157 992 q 137 1029 137 1010 q 148 1063 137 1049 q 184 1083 163 1083 q 220 1071 205 1083 l 411 901 z "},"á":{"ha":675,"x_min":57,"x_max":587,"o":"m 493 234 q 493 268 493 234 q 443 349 493 302 q 325 395 393 395 q 209 348 256 395 q 161 232 161 300 q 210 118 161 163 q 328 72 258 72 q 445 119 397 72 q 493 234 493 166 m 310 486 q 432 449 380 486 q 492 379 484 412 l 492 444 q 449 594 492 541 q 326 647 406 647 q 238 632 279 647 q 174 595 197 618 l 121 665 q 325 739 212 739 q 513 661 439 739 q 587 444 587 583 l 587 0 l 493 0 l 493 106 q 433 27 488 73 q 309 -20 379 -20 q 128 50 199 -20 q 57 231 57 120 q 131 414 57 342 q 310 486 204 486 m 326 844 q 303 838 317 838 q 278 851 288 838 q 268 878 268 865 q 279 901 268 890 l 469 1071 q 497 1083 484 1083 q 520 1080 510 1083 q 542 1063 530 1078 q 553 1040 553 1049 q 532 992 553 1010 l 326 844 z "},"â":{"ha":703,"x_min":64,"x_max":594,"o":"m 566 772 l 439 772 l 333 917 l 226 774 l 100 774 l 288 1006 l 376 1006 l 566 772 m 500 234 q 500 268 500 234 q 450 349 500 302 q 332 395 400 395 q 216 348 263 395 q 168 232 168 300 q 217 118 168 163 q 334 72 265 72 q 452 119 404 72 q 500 234 500 166 m 317 486 q 439 449 387 486 q 498 379 490 412 l 498 444 q 455 594 498 541 q 333 647 412 647 q 245 632 286 647 q 180 595 203 618 l 127 665 q 332 739 218 739 q 520 661 446 739 q 594 444 594 583 l 594 0 l 500 0 l 500 106 q 440 27 494 73 q 316 -20 386 -20 q 135 50 206 -20 q 64 231 64 120 q 137 414 64 342 q 317 486 211 486 z "},"ã":{"ha":703,"x_min":64,"x_max":594,"o":"m 125 917 q 141 930 128 920 q 159 945 153 941 q 178 959 165 950 q 201 971 191 967 q 247 982 226 982 q 286 971 267 982 q 321 946 305 961 q 354 916 338 930 q 429 880 393 880 q 479 892 458 880 q 507 909 499 904 q 533 928 514 913 q 557 946 553 943 l 557 848 q 537 832 554 846 q 516 815 520 819 q 497 803 511 812 q 475 791 483 793 q 428 781 448 781 q 386 791 408 781 q 347 817 365 802 q 313 847 330 832 q 280 873 297 863 q 248 884 262 884 q 219 881 233 884 q 191 869 206 878 q 170 856 176 859 q 146 836 165 852 q 125 818 127 819 l 125 917 m 500 234 q 500 268 500 234 q 450 349 500 302 q 332 395 400 395 q 216 348 263 395 q 168 232 168 300 q 217 118 168 163 q 334 72 265 72 q 452 119 404 72 q 500 234 500 166 m 317 486 q 439 449 387 486 q 498 379 490 412 l 498 444 q 455 594 498 541 q 333 647 412 647 q 245 632 286 647 q 180 595 203 618 l 127 665 q 332 739 218 739 q 520 661 446 739 q 594 444 594 583 l 594 0 l 500 0 l 500 106 q 440 27 494 73 q 316 -20 386 -20 q 135 50 206 -20 q 64 231 64 120 q 137 414 64 342 q 317 486 211 486 z "},"ä":{"ha":703,"x_min":64,"x_max":594,"o":"m 435 893 q 454 938 435 919 q 497 957 473 957 q 538 943 522 957 q 562 895 562 923 q 543 848 562 867 q 500 829 524 829 q 459 843 477 829 q 438 874 441 858 q 435 893 435 891 m 243 893 q 243 879 243 893 q 224 846 243 865 q 181 827 205 827 q 140 842 157 827 q 119 870 122 857 q 115 901 115 884 q 134 937 115 918 q 178 956 153 956 q 219 941 202 956 q 243 893 243 922 m 500 234 q 500 268 500 234 q 450 349 500 302 q 332 395 400 395 q 216 348 263 395 q 168 232 168 300 q 217 118 168 163 q 334 72 265 72 q 452 119 404 72 q 500 234 500 166 m 317 486 q 439 449 387 486 q 498 379 490 412 l 498 444 q 455 594 498 541 q 333 647 412 647 q 245 632 286 647 q 180 595 203 618 l 127 665 q 332 739 218 739 q 520 661 446 739 q 594 444 594 583 l 594 0 l 500 0 l 500 106 q 440 27 494 73 q 316 -20 386 -20 q 135 50 206 -20 q 64 231 64 120 q 137 414 64 342 q 317 486 211 486 z "},"å":{"ha":703,"x_min":64,"x_max":594,"o":"m 247 924 q 247 901 247 924 q 278 852 247 878 q 348 826 309 826 q 414 856 386 826 q 442 928 442 885 q 411 1003 442 977 q 341 1029 380 1029 q 275 1000 303 1029 q 247 924 247 970 m 167 920 q 167 959 167 920 q 219 1049 167 998 q 339 1100 271 1100 q 457 1061 408 1100 q 522 930 522 1008 q 470 801 522 852 q 350 749 418 749 q 233 789 281 749 q 167 920 167 842 m 500 234 q 500 268 500 234 q 450 349 500 302 q 332 395 400 395 q 216 348 263 395 q 168 232 168 300 q 217 118 168 163 q 334 72 265 72 q 452 119 404 72 q 500 234 500 166 m 317 486 q 439 449 387 486 q 498 379 490 412 l 498 444 q 455 594 498 541 q 333 647 412 647 q 245 632 286 647 q 180 595 203 618 l 127 665 q 332 739 218 739 q 520 661 446 739 q 594 444 594 583 l 594 0 l 500 0 l 500 106 q 440 27 494 73 q 316 -20 386 -20 q 135 50 206 -20 q 64 231 64 120 q 137 414 64 342 q 317 486 211 486 z "},"æ":{"ha":1008,"x_min":57,"x_max":933,"o":"m 424 301 q 420 322 424 301 q 381 375 416 342 q 286 408 347 408 q 192 361 224 408 q 160 240 160 313 q 165 182 160 207 q 296 72 189 72 q 395 121 358 72 q 432 240 432 170 q 424 301 432 261 m 434 469 q 298 647 434 647 q 227 634 254 647 q 174 595 200 621 l 121 664 q 138 678 125 667 q 155 692 151 689 q 172 705 159 696 q 192 716 184 713 q 212 725 199 720 q 237 733 225 731 q 298 739 271 739 q 407 709 362 739 q 489 617 452 679 q 570 712 528 682 q 679 742 611 742 q 837 681 777 742 q 919 513 897 620 q 933 364 933 449 l 931 318 l 531 318 q 587 115 531 188 q 679 72 621 72 q 741 92 723 72 q 775 138 764 117 q 787 160 786 159 q 789 165 787 161 l 880 127 q 797 17 842 53 q 679 -20 753 -20 q 598 -5 623 -20 q 561 17 573 9 q 534 45 549 26 q 488 111 513 71 q 477 92 485 106 q 466 73 469 78 q 455 55 463 68 q 442 37 447 43 q 427 22 437 32 q 409 8 418 12 q 388 -3 401 3 q 362 -12 376 -9 q 296 -20 326 -20 q 143 32 203 -20 q 64 170 82 84 q 57 240 57 208 q 125 425 57 351 q 296 500 193 500 q 382 483 355 500 q 435 429 410 465 l 434 469 m 828 410 q 679 650 808 650 q 610 627 640 650 q 564 568 580 605 q 531 410 532 495 l 828 410 z "},"ç":{"ha":686,"x_min":58,"x_max":601,"o":"m 375 -20 q 432 -137 432 -75 q 395 -213 432 -180 q 330 -260 363 -241 q 290 -284 297 -280 l 261 -199 q 317 -151 309 -163 q 325 -132 325 -138 q 323 -119 325 -125 q 318 -105 322 -113 q 312 -92 315 -97 q 300 -76 309 -87 q 288 -58 291 -64 l 375 -20 m 512 549 q 459 616 500 583 q 371 650 418 650 q 223 569 285 650 q 162 360 162 488 q 222 152 162 233 q 370 72 281 72 q 500 149 448 72 q 518 179 511 165 l 601 127 q 505 23 564 66 q 363 -20 446 -20 q 209 32 281 -20 q 98 171 138 83 q 58 364 58 259 q 176 665 58 549 q 371 742 256 742 q 506 701 448 742 q 601 593 564 659 l 512 549 z "},"è":{"ha":675,"x_min":66,"x_max":627,"o":"m 174 410 l 528 410 q 475 579 522 508 q 351 650 427 650 q 259 613 300 650 q 174 410 183 544 m 627 383 l 627 318 l 174 318 q 260 109 186 176 q 350 72 300 72 q 448 98 400 72 q 517 165 496 124 l 608 127 q 502 20 573 60 q 347 -20 431 -20 q 198 32 263 -20 q 99 170 132 84 q 66 364 66 256 q 100 557 66 472 q 198 692 133 642 q 340 742 263 742 q 471 711 417 742 q 557 629 524 680 q 627 383 627 524 m 397 901 q 408 878 408 890 q 400 854 408 865 q 373 838 388 838 q 351 844 359 838 l 144 992 q 123 1029 123 1010 q 134 1063 123 1049 q 171 1083 150 1083 q 207 1071 192 1083 l 397 901 z "},"é":{"ha":709,"x_min":73,"x_max":634,"o":"m 181 410 l 535 410 q 481 579 529 508 q 358 650 434 650 q 266 613 307 650 q 181 410 190 544 m 633 383 l 634 318 l 181 318 q 267 109 193 176 q 357 72 307 72 q 455 98 407 72 q 524 165 503 124 l 614 127 q 509 20 580 60 q 354 -20 438 -20 q 204 32 270 -20 q 106 170 139 84 q 73 364 73 256 q 106 557 73 472 q 205 692 140 642 q 347 742 270 742 q 477 711 424 742 q 564 629 531 680 q 633 383 633 524 m 339 844 q 316 838 331 838 q 292 851 302 838 q 281 878 281 865 q 292 901 281 890 l 483 1071 q 511 1083 498 1083 q 534 1080 524 1083 q 555 1063 544 1078 q 566 1040 566 1049 q 546 992 566 1010 l 339 844 z "},"ê":{"ha":709,"x_min":73,"x_max":634,"o":"m 593 782 l 465 782 l 359 926 l 252 783 l 126 783 l 314 1015 l 403 1015 l 593 782 m 181 410 l 535 410 q 481 579 529 508 q 358 650 434 650 q 266 613 307 650 q 181 410 190 544 m 633 383 l 634 318 l 181 318 q 267 109 193 176 q 357 72 307 72 q 455 98 407 72 q 524 165 503 124 l 614 127 q 509 20 580 60 q 354 -20 438 -20 q 204 32 270 -20 q 106 170 139 84 q 73 364 73 256 q 106 557 73 472 q 205 692 140 642 q 347 742 270 742 q 477 711 424 742 q 564 629 531 680 q 633 383 633 524 z "},"ë":{"ha":709,"x_min":73,"x_max":634,"o":"m 457 895 q 476 939 457 920 q 519 958 495 958 q 561 944 544 958 q 585 896 585 924 q 566 849 585 868 q 523 830 547 830 q 481 845 499 830 q 460 876 463 859 q 457 895 457 892 m 265 895 q 265 881 265 895 q 246 848 265 867 q 203 829 227 829 q 162 843 180 829 q 141 872 144 858 q 138 902 138 886 q 157 938 138 919 q 200 957 176 957 q 241 943 224 957 q 265 895 265 923 m 181 410 l 535 410 q 481 579 529 508 q 358 650 434 650 q 266 613 307 650 q 181 410 190 544 m 633 383 l 634 318 l 181 318 q 267 109 193 176 q 357 72 307 72 q 455 98 407 72 q 524 165 503 124 l 614 127 q 509 20 580 60 q 354 -20 438 -20 q 204 32 270 -20 q 106 170 139 84 q 73 364 73 256 q 106 557 73 472 q 205 692 140 642 q 347 742 270 742 q 477 711 424 742 q 564 629 531 680 q 633 383 633 524 z "},"ì":{"ha":292,"x_min":-79,"x_max":205,"o":"m 102 728 l 204 728 l 204 0 l 102 0 l 102 728 m 195 901 q 205 878 205 890 q 197 853 205 865 q 171 838 185 838 q 148 844 156 838 l -59 992 q -79 1029 -79 1010 q -68 1063 -79 1049 q -32 1083 -53 1083 q 4 1071 -11 1083 l 195 901 z "},"í":{"ha":286,"x_min":102,"x_max":387,"o":"m 102 728 l 204 728 l 204 0 l 102 0 l 102 728 m 160 844 q 137 838 152 838 q 113 851 123 838 q 102 878 102 865 q 113 901 102 890 l 304 1071 q 332 1083 319 1083 q 355 1080 345 1083 q 376 1063 365 1078 q 387 1040 387 1049 q 367 992 387 1010 l 160 844 z "},"î":{"ha":602,"x_min":78,"x_max":545,"o":"m 265 728 l 368 728 l 368 0 l 265 0 l 265 728 m 545 758 l 417 758 l 311 903 l 204 760 l 78 760 l 266 991 l 355 991 l 545 758 z "},"ï":{"ha":452,"x_min":5,"x_max":452,"o":"m 184 728 l 288 728 l 288 0 l 184 0 l 184 728 m 325 871 q 344 916 325 897 q 387 935 363 935 q 429 920 412 935 q 452 872 452 901 q 433 825 452 844 q 391 806 414 806 q 349 821 367 806 q 328 852 331 836 q 325 871 325 869 m 133 871 q 133 857 133 871 q 114 824 133 843 q 71 805 95 805 q 30 820 47 805 q 9 848 12 834 q 5 879 5 862 q 24 914 5 895 q 68 933 43 933 q 109 919 92 933 q 133 871 133 899 z "},"ð":{"ha":699,"x_min":56,"x_max":629,"o":"m 232 500 q 214 483 232 500 q 177 412 197 465 q 158 319 158 359 q 233 118 158 186 q 334 72 284 72 q 468 145 410 72 q 526 309 526 218 q 441 484 526 414 q 307 536 377 536 q 232 500 267 536 m 464 875 q 553 744 509 823 q 623 522 616 633 q 629 366 629 411 l 629 340 q 546 83 629 185 q 343 -20 462 -20 q 156 43 224 -20 q 56 311 56 134 q 131 535 56 443 q 314 628 205 628 q 465 574 406 628 q 491 551 475 566 q 515 528 507 535 q 470 692 515 601 q 387 817 425 783 l 283 720 l 216 787 l 309 875 q 216 892 260 892 q 122 886 172 892 l 113 986 q 168 987 131 987 q 390 940 298 987 l 496 1035 l 561 961 l 464 875 z "},"ñ":{"ha":708,"x_min":94,"x_max":655,"o":"m 137 925 q 153 938 140 928 q 172 954 165 949 q 191 967 178 958 q 213 979 203 975 q 259 990 238 990 q 298 980 279 990 q 334 954 317 969 q 366 924 350 939 q 441 888 406 888 q 491 900 471 888 q 519 917 511 912 q 546 937 526 922 q 569 954 565 951 l 569 856 q 549 840 566 854 q 528 823 532 827 q 509 811 524 820 q 487 799 495 802 q 440 789 460 789 q 398 799 420 789 q 359 825 377 810 q 326 856 342 840 q 292 881 309 871 q 260 892 275 892 q 232 889 245 892 q 203 877 218 886 q 182 864 188 867 q 158 844 177 860 q 137 826 139 827 l 137 925 m 197 0 l 94 0 l 94 728 l 197 728 l 197 605 q 272 706 216 665 q 404 747 328 747 q 587 653 519 747 q 655 367 655 558 l 655 0 l 553 0 l 553 367 q 458 632 553 570 q 370 654 423 654 q 275 614 317 654 q 197 366 197 538 l 197 0 z "},"ò":{"ha":675,"x_min":69,"x_max":661,"o":"m 203 33 q 169 59 203 33 q 102 170 135 85 q 69 350 69 256 q 89 513 69 445 q 144 633 108 582 q 366 742 221 742 q 528 691 459 742 q 661 364 661 591 q 529 33 661 133 q 366 -20 460 -20 q 203 33 271 -20 m 255 610 q 233 590 255 610 q 192 508 211 570 q 174 375 174 446 q 184 252 174 303 q 218 159 195 200 q 366 72 265 72 q 546 252 508 72 q 557 375 557 303 q 538 508 557 446 q 475 610 519 570 q 365 650 431 650 q 255 610 299 650 m 370 901 q 381 877 381 890 q 373 853 381 864 q 346 837 361 837 q 323 843 332 837 l 117 991 q 96 1029 96 1009 q 107 1063 96 1048 q 144 1082 123 1082 q 180 1070 165 1082 l 370 901 z "},"ó":{"ha":675,"x_min":69,"x_max":661,"o":"m 203 33 q 169 59 203 33 q 102 170 135 85 q 69 350 69 256 q 89 513 69 445 q 144 633 108 582 q 366 742 221 742 q 528 691 459 742 q 661 364 661 591 q 529 33 661 133 q 366 -20 460 -20 q 203 33 271 -20 m 255 610 q 233 590 255 610 q 192 508 211 570 q 174 375 174 446 q 184 252 174 303 q 218 159 195 200 q 366 72 265 72 q 546 252 508 72 q 557 375 557 303 q 538 508 557 446 q 475 610 519 570 q 365 650 431 650 q 255 610 299 650 m 382 844 q 359 838 374 838 q 334 851 345 838 q 324 878 324 865 q 335 901 324 890 l 526 1071 q 553 1083 541 1083 q 576 1080 566 1083 q 598 1063 587 1078 q 609 1040 609 1049 q 589 992 609 1010 l 382 844 z "},"ô":{"ha":720,"x_min":76,"x_max":668,"o":"m 591 761 l 464 761 l 358 905 l 251 762 l 125 762 l 313 994 l 401 994 l 591 761 m 210 33 q 176 59 210 33 q 109 170 142 85 q 76 350 76 256 q 95 513 76 445 q 151 633 115 582 q 372 742 228 742 q 534 691 466 742 q 668 364 668 591 q 536 33 668 133 q 373 -20 467 -20 q 210 33 278 -20 m 262 610 q 240 590 262 610 q 199 508 218 570 q 180 375 180 446 q 191 252 180 303 q 224 159 202 200 q 372 72 272 72 q 553 252 515 72 q 564 375 564 303 q 545 508 564 446 q 482 610 526 570 q 372 650 438 650 q 262 610 306 650 z "},"õ":{"ha":720,"x_min":76,"x_max":668,"o":"m 154 897 q 170 910 157 900 q 189 926 182 921 q 208 939 195 930 q 230 951 220 947 q 276 962 255 962 q 315 952 296 962 q 351 926 334 941 q 383 896 367 911 q 458 860 422 860 q 508 872 488 860 q 536 889 528 884 q 563 909 543 894 q 586 926 582 924 l 586 828 q 566 812 583 826 q 545 795 549 799 q 526 783 541 792 q 504 771 512 774 q 457 761 477 761 q 415 771 437 761 q 376 797 394 782 q 342 828 359 812 q 309 853 326 843 q 277 864 292 864 q 249 861 262 864 q 220 849 235 859 q 199 836 205 840 q 175 816 194 832 q 154 798 156 800 l 154 897 m 210 33 q 176 59 210 33 q 109 170 142 85 q 76 350 76 256 q 95 513 76 445 q 151 633 115 582 q 372 742 228 742 q 534 691 466 742 q 668 364 668 591 q 536 33 668 133 q 373 -20 467 -20 q 210 33 278 -20 m 262 610 q 240 590 262 610 q 199 508 218 570 q 180 375 180 446 q 191 252 180 303 q 224 159 202 200 q 372 72 272 72 q 553 252 515 72 q 564 375 564 303 q 545 508 564 446 q 482 610 526 570 q 372 650 438 650 q 262 610 306 650 z "},"ö":{"ha":719,"x_min":76,"x_max":668,"o":"m 467 890 q 486 935 467 916 q 529 954 505 954 q 570 940 553 954 q 594 892 594 920 q 575 845 594 864 q 532 826 556 826 q 491 841 509 826 q 470 872 473 855 q 467 890 467 888 m 275 891 q 275 877 275 891 q 256 844 275 863 q 213 825 237 825 q 172 839 189 825 q 151 868 154 854 q 147 898 147 882 q 166 934 147 915 q 210 953 185 953 q 251 939 234 953 q 275 891 275 919 m 210 33 q 176 59 210 33 q 109 170 142 85 q 76 350 76 256 q 95 513 76 445 q 151 633 115 582 q 372 742 228 742 q 534 691 466 742 q 668 364 668 591 q 536 33 668 133 q 373 -20 467 -20 q 210 33 278 -20 m 262 610 q 240 590 262 610 q 199 508 218 570 q 180 375 180 446 q 191 252 180 303 q 224 159 202 200 q 372 72 272 72 q 553 252 515 72 q 564 375 564 303 q 545 508 564 446 q 482 610 526 570 q 372 650 438 650 q 262 610 306 650 z "},"÷":{"ha":618,"x_min":81,"x_max":540,"o":"m 81 478 l 540 478 l 540 382 l 81 382 l 81 478 m 233 681 q 233 697 233 681 q 255 735 233 713 q 305 756 277 756 q 353 740 333 756 q 379 685 379 718 q 358 632 379 653 q 308 610 336 610 q 260 627 280 610 q 233 681 233 649 m 233 187 q 233 203 233 187 q 255 240 233 219 q 305 262 277 262 q 353 245 333 262 q 379 191 379 223 q 358 137 379 159 q 308 116 336 116 q 260 132 280 116 q 233 187 233 155 z "},"ø":{"ha":694,"x_min":58,"x_max":643,"o":"m 504 523 l 250 118 q 346 72 294 72 q 434 98 398 72 q 490 168 470 125 q 530 364 530 254 q 504 523 530 462 m 452 607 q 357 650 408 650 q 272 624 307 650 q 216 556 237 598 q 172 364 172 471 q 199 203 172 268 l 452 607 m 566 622 q 633 364 633 516 q 504 32 633 134 q 352 -20 439 -20 q 197 33 264 -20 l 165 -20 l 58 -20 l 136 104 q 69 364 69 212 q 198 692 69 591 q 352 742 263 742 q 505 691 440 742 l 538 745 l 643 745 l 566 622 z "},"ù":{"ha":675,"x_min":81,"x_max":642,"o":"m 539 728 l 642 728 l 642 0 l 539 0 l 539 123 q 465 21 520 62 q 332 -20 409 -20 q 150 75 218 -20 q 81 361 81 170 l 81 728 l 184 728 l 184 361 q 279 96 184 157 q 367 73 313 73 q 461 114 420 73 q 539 361 539 190 l 539 728 m 383 901 q 394 878 394 890 q 386 854 394 865 q 359 838 374 838 q 336 844 345 838 l 130 992 q 109 1029 109 1010 q 120 1063 109 1049 q 157 1083 136 1083 q 193 1071 178 1083 l 383 901 z "},"ú":{"ha":675,"x_min":110,"x_max":671,"o":"m 568 728 l 671 728 l 671 0 l 568 0 l 568 123 q 493 21 549 62 q 361 -20 437 -20 q 178 75 246 -20 q 110 361 110 170 l 110 728 l 212 728 l 212 361 q 307 96 212 157 q 395 73 342 73 q 490 114 448 73 q 568 361 568 190 l 568 728 m 367 844 q 344 838 359 838 q 319 851 330 838 q 309 878 309 865 q 320 901 309 890 l 511 1071 q 538 1083 526 1083 q 562 1080 551 1083 q 583 1063 572 1078 q 594 1040 594 1049 q 574 992 594 1010 l 367 844 z "},"û":{"ha":722,"x_min":88,"x_max":649,"o":"m 590 811 l 463 811 l 357 956 l 250 812 l 123 812 l 311 1044 l 400 1044 l 590 811 m 546 728 l 649 728 l 649 0 l 546 0 l 546 123 q 471 21 527 62 q 339 -20 416 -20 q 156 75 224 -20 q 88 361 88 170 l 88 728 l 191 728 l 191 361 q 286 96 191 157 q 373 73 320 73 q 468 114 427 73 q 546 361 546 190 l 546 728 z "},"ü":{"ha":722,"x_min":88,"x_max":649,"o":"m 457 896 q 476 941 457 922 q 519 960 495 960 q 561 945 544 960 q 585 898 585 926 q 566 850 585 869 q 523 831 547 831 q 481 846 499 831 q 460 877 463 861 q 457 896 457 894 m 265 896 q 265 882 265 896 q 246 849 265 868 q 203 830 227 830 q 162 845 180 830 q 141 873 144 859 q 138 904 138 887 q 157 939 138 920 q 200 958 176 958 q 241 944 224 958 q 265 896 265 924 m 546 728 l 649 728 l 649 0 l 546 0 l 546 123 q 471 21 527 62 q 339 -20 416 -20 q 156 75 224 -20 q 88 361 88 170 l 88 728 l 191 728 l 191 361 q 286 96 191 157 q 373 73 320 73 q 468 114 427 73 q 546 361 546 190 l 546 728 z "},"ý":{"ha":675,"x_min":81,"x_max":642,"o":"m 642 -12 q 616 -135 642 -79 q 549 -228 591 -192 q 353 -304 461 -304 q 106 -186 208 -304 l 178 -129 q 353 -212 248 -212 q 477 -167 420 -212 q 539 -22 539 -117 l 539 123 q 465 21 520 62 q 332 -20 409 -20 q 150 75 218 -20 q 81 361 81 170 l 81 728 l 184 728 l 184 361 q 279 96 184 157 q 367 73 313 73 q 461 114 420 73 q 539 361 539 190 l 539 728 l 642 728 l 642 -12 m 334 844 q 312 838 326 838 q 287 851 297 838 q 277 878 277 865 q 288 901 277 890 l 478 1071 q 506 1083 493 1083 q 529 1080 519 1083 q 550 1063 539 1078 q 562 1040 562 1049 q 541 992 562 1010 l 334 844 z "},"þ":{"ha":680,"x_min":87,"x_max":633,"o":"m 191 0 l 87 0 l 87 986 l 191 986 l 191 754 q 316 862 250 842 q 380 871 345 871 q 536 803 475 871 q 633 497 633 695 q 467 133 633 208 q 370 111 418 111 q 295 121 323 111 q 248 146 267 132 q 191 211 211 177 l 191 0 m 468 734 q 392 779 433 779 q 316 759 351 779 q 252 703 281 739 q 187 494 187 623 q 198 391 187 439 q 264 252 217 301 q 361 203 311 203 q 484 280 438 203 q 530 505 530 357 q 468 734 530 653 z "},"ÿ":{"ha":722,"x_min":88,"x_max":649,"o":"m 471 888 q 490 933 471 914 q 533 952 509 952 q 574 938 557 952 q 598 890 598 918 q 579 843 598 862 q 536 824 560 824 q 495 839 513 824 q 474 870 477 853 q 471 888 471 886 m 279 889 q 279 875 279 889 q 260 842 279 861 q 217 823 241 823 q 176 837 193 823 q 155 866 158 852 q 151 896 151 880 q 170 932 151 913 q 214 951 189 951 q 255 937 238 951 q 279 889 279 917 m 649 -12 q 623 -135 649 -79 q 556 -228 597 -192 q 359 -304 468 -304 q 113 -186 215 -304 l 185 -129 q 359 -212 255 -212 q 484 -167 427 -212 q 546 -22 546 -117 l 546 123 q 471 21 527 62 q 339 -20 416 -20 q 156 75 224 -20 q 88 361 88 170 l 88 728 l 191 728 l 191 361 q 286 96 191 157 q 373 73 320 73 q 468 114 427 73 q 546 361 546 190 l 546 728 l 649 728 l 649 -12 z "},"Ā":{"ha":883,"x_min":43,"x_max":840,"o":"m 441 823 l 303 421 l 585 421 l 441 823 m 610 329 l 273 329 l 163 0 l 43 0 l 399 987 q 485 987 399 987 l 840 0 l 718 0 l 610 329 m 208 1179 l 667 1179 l 667 1107 l 208 1107 l 208 1179 z "},"ā":{"ha":675,"x_min":57,"x_max":587,"o":"m 493 234 q 493 268 493 234 q 443 349 493 302 q 325 395 393 395 q 209 348 256 395 q 161 232 161 300 q 210 118 161 163 q 328 72 258 72 q 445 119 397 72 q 493 234 493 166 m 310 486 q 432 449 380 486 q 492 379 484 412 l 492 444 q 449 594 492 541 q 326 647 406 647 q 238 632 279 647 q 174 595 197 618 l 121 665 q 325 739 212 739 q 513 661 439 739 q 587 444 587 583 l 587 0 l 493 0 l 493 106 q 433 27 488 73 q 309 -20 379 -20 q 128 50 199 -20 q 57 231 57 120 q 131 414 57 342 q 310 486 204 486 m 120 896 l 579 896 l 579 824 l 120 824 l 120 896 z "},"Ă":{"ha":883,"x_min":43,"x_max":840,"o":"m 448 1118 q 509 1135 485 1120 q 595 1246 549 1164 l 650 1246 q 650 1240 650 1246 q 605 1118 650 1194 q 535 1053 581 1080 q 444 1027 489 1027 q 353 1053 399 1027 q 283 1118 307 1080 q 239 1240 239 1194 l 239 1246 l 294 1246 q 380 1135 327 1171 q 448 1118 406 1119 m 441 823 l 303 421 l 585 421 l 441 823 m 610 329 l 273 329 l 163 0 l 43 0 l 399 987 q 485 987 399 987 l 840 0 l 718 0 l 610 329 z "},"ă":{"ha":675,"x_min":57,"x_max":587,"o":"m 347 882 q 408 900 385 884 q 495 1011 448 928 l 549 1011 q 549 1004 549 1011 q 505 883 549 958 q 435 818 481 844 q 344 791 389 791 q 253 818 299 791 q 183 883 207 844 q 138 1004 138 958 l 138 1011 l 193 1011 q 279 900 227 935 q 347 882 305 884 m 493 234 q 493 268 493 234 q 443 349 493 302 q 325 395 393 395 q 209 348 256 395 q 161 232 161 300 q 210 118 161 163 q 328 72 258 72 q 445 119 397 72 q 493 234 493 166 m 310 486 q 432 449 380 486 q 492 379 484 412 l 492 444 q 449 594 492 541 q 326 647 406 647 q 238 632 279 647 q 174 595 197 618 l 121 665 q 325 739 212 739 q 513 661 439 739 q 587 444 587 583 l 587 0 l 493 0 l 493 106 q 433 27 488 73 q 309 -20 379 -20 q 128 50 199 -20 q 57 231 57 120 q 131 414 57 342 q 310 486 204 486 z "},"Ą":{"ha":883,"x_min":43,"x_max":857,"o":"m 857 -129 l 827 -214 q 763 -175 777 -184 q 696 -111 707 -134 q 686 -72 686 -89 q 743 50 686 -4 l 830 12 q 793 -52 793 -37 q 813 -95 793 -77 q 837 -114 834 -112 q 857 -129 839 -115 m 441 823 l 303 421 l 585 421 l 441 823 m 610 329 l 273 329 l 163 0 l 43 0 l 399 987 q 485 987 399 987 l 840 0 l 718 0 l 610 329 z "},"ą":{"ha":675,"x_min":57,"x_max":616,"o":"m 616 -129 l 587 -214 q 522 -175 536 -184 q 455 -111 466 -134 q 445 -72 445 -89 q 502 50 445 -4 l 589 12 q 552 -52 552 -37 q 573 -95 552 -77 q 596 -114 593 -112 q 616 -129 598 -115 m 493 234 q 493 268 493 234 q 443 349 493 302 q 325 395 393 395 q 209 348 256 395 q 161 232 161 300 q 210 118 161 163 q 328 72 258 72 q 445 119 397 72 q 493 234 493 166 m 310 486 q 432 449 380 486 q 492 379 484 412 l 492 444 q 449 594 492 541 q 326 647 406 647 q 238 632 279 647 q 174 595 197 618 l 121 665 q 325 739 212 739 q 513 661 439 739 q 587 444 587 583 l 587 0 l 493 0 l 493 106 q 433 27 488 73 q 309 -20 379 -20 q 128 50 199 -20 q 57 231 57 120 q 131 414 57 342 q 310 486 204 486 z "},"Ć":{"ha":827,"x_min":68,"x_max":791,"o":"m 437 1079 q 415 1073 429 1073 q 390 1086 400 1073 q 380 1113 380 1100 q 391 1137 380 1126 l 581 1306 q 609 1318 596 1318 q 632 1316 622 1318 q 653 1299 642 1313 q 665 1275 665 1284 q 644 1227 665 1245 l 437 1079 m 791 199 q 686 49 759 111 q 475 -20 604 -20 q 132 198 241 -20 q 68 492 68 323 q 132 789 68 659 q 328 985 201 930 q 461 1014 395 1014 q 573 1001 528 1014 q 652 968 619 989 q 712 921 686 948 q 782 810 760 871 l 681 782 q 604 881 661 844 q 476 918 547 918 l 475 918 q 347 882 404 918 q 254 784 290 845 q 180 492 180 658 q 258 202 180 323 q 351 110 295 144 q 477 75 408 75 q 608 120 547 75 q 692 227 670 164 l 791 199 z "},"ć":{"ha":625,"x_min":52,"x_max":594,"o":"m 351 844 q 329 838 343 838 q 304 851 314 838 q 294 878 294 865 q 304 901 294 890 l 495 1071 q 523 1083 510 1083 q 546 1080 536 1083 q 567 1063 556 1078 q 578 1040 578 1049 q 558 992 578 1010 l 351 844 m 505 549 q 452 616 493 583 q 364 650 412 650 q 217 569 278 650 q 155 360 155 488 q 215 152 155 233 q 363 72 275 72 q 494 149 441 72 q 511 179 505 165 l 594 127 q 498 23 557 66 q 357 -20 439 -20 q 202 32 274 -20 q 91 171 131 83 q 52 364 52 259 q 170 665 52 549 q 364 742 250 742 q 499 701 441 742 q 594 593 557 659 l 505 549 z "},"Ĉ":{"ha":827,"x_min":68,"x_max":791,"o":"m 709 1027 l 582 1027 l 476 1171 l 369 1028 l 243 1028 l 431 1260 l 519 1260 l 709 1027 m 791 199 q 686 49 759 111 q 475 -20 604 -20 q 132 198 241 -20 q 68 492 68 323 q 132 789 68 659 q 328 985 201 930 q 461 1014 395 1014 q 573 1001 528 1014 q 652 968 619 989 q 712 921 686 948 q 782 810 760 871 l 681 782 q 604 881 661 844 q 476 918 547 918 l 475 918 q 347 882 404 918 q 254 784 290 845 q 180 492 180 658 q 258 202 180 323 q 351 110 295 144 q 477 75 408 75 q 608 120 547 75 q 692 227 670 164 l 791 199 z "},"ĉ":{"ha":625,"x_min":47,"x_max":595,"o":"m 595 795 l 467 795 l 361 939 l 254 796 l 128 796 l 316 1028 l 405 1028 l 595 795 m 500 549 q 448 616 488 583 q 359 650 407 650 q 212 569 273 650 q 151 360 151 488 q 210 152 151 233 q 358 72 270 72 q 489 149 436 72 q 507 179 500 165 l 589 127 q 494 23 553 66 q 352 -20 435 -20 q 198 32 269 -20 q 86 171 126 83 q 47 364 47 259 q 165 665 47 549 q 359 742 245 742 q 495 701 437 742 q 589 593 553 659 l 500 549 z "},"Ċ":{"ha":827,"x_min":68,"x_max":791,"o":"m 496 1143 q 496 1129 496 1143 q 477 1096 496 1115 q 435 1077 458 1077 q 393 1092 411 1077 q 372 1120 376 1106 q 369 1151 369 1134 q 388 1186 369 1167 q 431 1205 407 1205 q 473 1191 456 1205 q 496 1143 496 1171 m 791 199 q 686 49 759 111 q 475 -20 604 -20 q 132 198 241 -20 q 68 492 68 323 q 132 789 68 659 q 328 985 201 930 q 461 1014 395 1014 q 573 1001 528 1014 q 652 968 619 989 q 712 921 686 948 q 782 810 760 871 l 681 782 q 604 881 661 844 q 476 918 547 918 l 475 918 q 347 882 404 918 q 254 784 290 845 q 180 492 180 658 q 258 202 180 323 q 351 110 295 144 q 477 75 408 75 q 608 120 547 75 q 692 227 670 164 l 791 199 z "},"ċ":{"ha":625,"x_min":52,"x_max":594,"o":"m 431 921 q 431 907 431 921 q 412 874 431 893 q 370 855 393 855 q 328 870 346 855 q 307 898 311 884 q 304 929 304 912 q 323 964 304 945 q 366 983 342 983 q 408 969 391 983 q 431 921 431 949 m 505 549 q 452 616 493 583 q 364 650 412 650 q 217 569 278 650 q 155 360 155 488 q 215 152 155 233 q 363 72 275 72 q 494 149 441 72 q 511 179 505 165 l 594 127 q 498 23 557 66 q 357 -20 439 -20 q 202 32 274 -20 q 91 171 131 83 q 52 364 52 259 q 170 665 52 549 q 364 742 250 742 q 499 701 441 742 q 594 593 557 659 l 505 549 z "},"Č":{"ha":827,"x_min":68,"x_max":791,"o":"m 711 1260 l 521 1027 l 432 1027 l 244 1259 l 370 1259 l 477 1116 l 583 1260 l 711 1260 m 791 199 q 686 49 759 111 q 475 -20 604 -20 q 132 198 241 -20 q 68 492 68 323 q 132 789 68 659 q 328 985 201 930 q 461 1014 395 1014 q 573 1001 528 1014 q 652 968 619 989 q 712 921 686 948 q 782 810 760 871 l 681 782 q 604 881 661 844 q 476 918 547 918 l 475 918 q 347 882 404 918 q 254 784 290 845 q 180 492 180 658 q 258 202 180 323 q 351 110 295 144 q 477 75 408 75 q 608 120 547 75 q 692 227 670 164 l 791 199 z "},"č":{"ha":625,"x_min":47,"x_max":610,"o":"m 610 1027 l 420 793 l 332 793 l 144 1025 l 270 1025 l 377 882 l 483 1027 l 610 1027 m 501 549 q 448 616 489 583 q 360 650 408 650 q 213 569 274 650 q 151 360 151 488 q 211 152 151 233 q 359 72 271 72 q 490 149 437 72 q 507 179 500 165 l 590 127 q 494 23 553 66 q 353 -20 435 -20 q 198 32 270 -20 q 87 171 127 83 q 47 364 47 259 q 165 665 47 549 q 360 742 245 742 q 495 701 437 742 q 590 593 553 659 l 501 549 z "},"Ď":{"ha":827,"x_min":82,"x_max":782,"o":"m 591 1260 l 401 1027 l 313 1027 l 125 1259 l 251 1259 l 358 1116 l 464 1260 l 591 1260 m 669 469 q 663 581 669 537 q 642 671 656 625 q 602 756 627 717 q 544 826 577 795 q 355 892 471 892 l 189 892 l 189 96 l 355 96 q 601 207 528 96 q 669 469 669 311 m 679 836 q 704 801 679 836 q 755 678 728 766 q 782 489 782 589 q 755 299 782 389 q 679 143 728 210 q 553 38 629 76 q 383 0 477 0 l 82 0 l 82 987 l 383 987 q 553 946 476 987 q 679 836 629 905 z "},"ď":{"ha":819,"x_min":50,"x_max":799,"o":"m 799 968 q 788 888 799 915 q 751 813 766 838 l 741 798 l 715 814 q 749 911 749 869 q 716 924 730 911 q 697 967 697 942 q 712 1009 697 992 q 747 1027 728 1027 q 783 1012 766 1027 q 799 977 799 997 l 799 968 m 317 747 q 520 601 458 747 l 520 986 l 623 986 l 623 0 l 520 0 l 520 125 q 445 20 492 59 q 324 -20 399 -20 q 196 13 250 -20 q 112 101 143 45 q 50 366 50 212 q 112 629 50 521 q 196 716 143 684 q 317 747 249 747 m 206 578 q 180 540 206 578 q 154 366 154 501 q 206 151 154 230 q 337 72 258 72 q 469 151 415 72 q 524 365 524 230 q 469 577 524 499 q 336 655 415 655 q 206 578 258 655 z "},"Đ":{"ha":935,"x_min":72,"x_max":863,"o":"m 195 449 l 72 449 l 72 545 l 195 545 l 195 987 l 453 987 q 709 888 603 987 q 849 629 815 789 q 863 492 863 558 q 812 242 863 355 q 667 65 761 130 q 453 0 572 0 l 195 0 l 195 449 m 302 449 l 302 97 l 453 97 q 671 208 585 97 q 757 492 757 318 q 639 814 757 701 q 453 890 561 890 l 302 890 l 302 545 l 505 545 l 505 449 l 302 449 z "},"đ":{"ha":708,"x_min":87,"x_max":750,"o":"m 507 577 q 480 616 507 577 q 374 655 453 655 q 243 578 294 655 q 191 366 191 501 q 243 151 191 231 q 374 72 295 72 q 507 151 453 72 q 561 365 561 231 q 507 577 561 498 m 557 986 l 661 986 l 661 896 l 750 896 l 750 800 l 661 800 l 661 0 l 557 0 l 557 125 q 432 -8 513 21 q 351 -20 400 -20 q 255 2 301 -20 q 179 60 210 23 q 87 366 87 170 q 149 629 87 520 q 355 747 217 747 q 557 601 494 747 l 557 800 l 390 800 l 390 896 l 557 896 l 557 986 z "},"Ē":{"ha":774,"x_min":82,"x_max":707,"o":"m 189 1201 l 648 1201 l 648 1129 l 189 1129 l 189 1201 m 82 987 l 707 987 l 707 892 l 189 892 l 189 554 l 677 554 l 677 458 l 189 458 l 189 96 l 707 96 l 707 0 l 82 0 l 82 987 z "},"ē":{"ha":675,"x_min":66,"x_max":627,"o":"m 121 896 l 581 896 l 581 824 l 121 824 l 121 896 m 174 410 l 528 410 q 475 579 522 508 q 351 650 427 650 q 259 613 300 650 q 174 410 183 544 m 627 383 l 627 318 l 174 318 q 260 109 186 176 q 350 72 300 72 q 448 98 400 72 q 517 165 496 124 l 608 127 q 502 20 573 60 q 347 -20 431 -20 q 198 32 263 -20 q 99 170 132 84 q 66 364 66 256 q 100 557 66 472 q 198 692 133 642 q 340 742 263 742 q 471 711 417 742 q 557 629 524 680 q 627 383 627 524 z "},"Ĕ":{"ha":774,"x_min":82,"x_max":707,"o":"m 422 1118 q 483 1135 459 1120 q 570 1246 523 1164 l 624 1246 q 624 1240 624 1246 q 579 1118 624 1194 q 509 1053 555 1080 q 418 1027 463 1027 q 328 1053 374 1027 q 258 1118 281 1080 q 213 1240 213 1194 l 213 1246 l 268 1246 q 354 1135 301 1171 q 422 1118 380 1119 m 82 987 l 707 987 l 707 892 l 189 892 l 189 554 l 677 554 l 677 458 l 189 458 l 189 96 l 707 96 l 707 0 l 82 0 l 82 987 z "},"ĕ":{"ha":675,"x_min":66,"x_max":627,"o":"m 359 882 q 420 900 397 884 q 507 1011 460 928 l 562 1011 q 562 1004 562 1011 q 517 883 562 958 q 447 818 493 844 q 356 791 401 791 q 265 818 311 791 q 195 883 219 844 q 151 1004 151 958 l 151 1011 l 205 1011 q 292 900 239 935 q 359 882 317 884 m 174 410 l 528 410 q 475 579 522 508 q 351 650 427 650 q 259 613 300 650 q 174 410 183 544 m 627 383 l 627 318 l 174 318 q 260 109 186 176 q 350 72 300 72 q 448 98 400 72 q 517 165 496 124 l 608 127 q 502 20 573 60 q 347 -20 431 -20 q 198 32 263 -20 q 99 170 132 84 q 66 364 66 256 q 100 557 66 472 q 198 692 133 642 q 340 742 263 742 q 471 711 417 742 q 557 629 524 680 q 627 383 627 524 z "},"Ė":{"ha":774,"x_min":82,"x_max":707,"o":"m 469 1143 q 469 1129 469 1143 q 450 1096 469 1115 q 408 1077 431 1077 q 366 1092 384 1077 q 345 1120 349 1106 q 342 1151 342 1134 q 361 1186 342 1167 q 404 1205 380 1205 q 446 1191 429 1205 q 469 1143 469 1171 m 82 987 l 707 987 l 707 892 l 189 892 l 189 554 l 677 554 l 677 458 l 189 458 l 189 96 l 707 96 l 707 0 l 82 0 l 82 987 z "},"ė":{"ha":675,"x_min":66,"x_max":627,"o":"m 399 921 q 399 907 399 921 q 380 874 399 893 q 337 855 361 855 q 296 870 313 855 q 275 898 278 884 q 271 929 271 912 q 290 964 271 945 q 334 983 309 983 q 375 969 358 983 q 399 921 399 949 m 174 410 l 528 410 q 475 579 522 508 q 351 650 427 650 q 259 613 300 650 q 174 410 183 544 m 627 383 l 627 318 l 174 318 q 260 109 186 176 q 350 72 300 72 q 448 98 400 72 q 517 165 496 124 l 608 127 q 502 20 573 60 q 347 -20 431 -20 q 198 32 263 -20 q 99 170 132 84 q 66 364 66 256 q 100 557 66 472 q 198 692 133 642 q 340 742 263 742 q 471 711 417 742 q 557 629 524 680 q 627 383 627 524 z "},"Ę":{"ha":774,"x_min":82,"x_max":707,"o":"m 694 -129 l 665 -214 q 600 -175 614 -184 q 533 -111 544 -134 q 523 -72 523 -89 q 580 50 523 -4 l 667 12 q 630 -52 630 -37 q 651 -95 630 -77 q 674 -114 671 -112 q 694 -129 676 -115 m 82 987 l 707 987 l 707 892 l 189 892 l 189 554 l 677 554 l 677 458 l 189 458 l 189 96 l 707 96 l 707 0 l 82 0 l 82 987 z "},"ę":{"ha":675,"x_min":66,"x_max":627,"o":"m 421 -129 l 392 -214 q 328 -175 341 -184 q 261 -111 271 -134 q 250 -72 250 -89 q 307 50 250 -4 l 395 12 q 357 -52 357 -37 q 378 -95 357 -77 q 401 -114 399 -112 q 421 -129 404 -115 m 174 410 l 528 410 q 475 579 522 508 q 351 650 427 650 q 259 613 300 650 q 174 410 183 544 m 627 383 l 627 318 l 174 318 q 260 109 186 176 q 350 72 300 72 q 448 98 400 72 q 517 165 496 124 l 608 127 q 502 20 573 60 q 347 -20 431 -20 q 198 32 263 -20 q 99 170 132 84 q 66 364 66 256 q 100 557 66 472 q 198 692 133 642 q 340 742 263 742 q 471 711 417 742 q 557 629 524 680 q 627 383 627 524 z "},"Ě":{"ha":774,"x_min":82,"x_max":707,"o":"m 658 1260 l 468 1027 l 379 1027 l 191 1259 l 317 1259 l 425 1116 l 530 1260 l 658 1260 m 82 987 l 707 987 l 707 892 l 189 892 l 189 554 l 677 554 l 677 458 l 189 458 l 189 96 l 707 96 l 707 0 l 82 0 l 82 987 z "},"ě":{"ha":675,"x_min":66,"x_max":627,"o":"m 589 1025 l 399 791 l 311 791 l 123 1023 l 249 1023 l 356 880 l 462 1025 l 589 1025 m 174 410 l 528 410 q 475 579 522 508 q 351 650 427 650 q 259 613 300 650 q 174 410 183 544 m 627 383 l 627 318 l 174 318 q 260 109 186 176 q 350 72 300 72 q 448 98 400 72 q 517 165 496 124 l 608 127 q 502 20 573 60 q 347 -20 431 -20 q 198 32 263 -20 q 99 170 132 84 q 66 364 66 256 q 100 557 66 472 q 198 692 133 642 q 340 742 263 742 q 471 711 417 742 q 557 629 524 680 q 627 383 627 524 z "},"Ĝ":{"ha":924,"x_min":68,"x_max":836,"o":"m 709 1027 l 582 1027 l 476 1171 l 369 1028 l 243 1028 l 431 1260 l 519 1260 l 709 1027 m 475 -20 q 301 23 379 -20 q 172 138 222 66 q 68 496 68 289 q 132 778 68 648 q 327 982 203 924 q 490 1014 395 1014 q 771 854 670 1014 l 677 808 q 593 891 638 863 q 477 918 548 918 q 348 879 406 918 q 255 776 290 839 q 180 496 180 646 q 255 212 180 339 q 348 113 290 151 q 464 75 405 75 q 562 90 522 75 q 629 129 602 104 q 677 183 656 153 q 708 248 697 214 q 730 376 730 317 l 464 376 l 464 472 l 836 472 l 836 414 q 783 176 836 283 q 613 7 722 54 q 479 -20 552 -20 l 475 -20 z "},"ĝ":{"ha":708,"x_min":50,"x_max":623,"o":"m 589 791 l 462 791 l 356 935 l 249 792 l 123 792 l 311 1024 l 399 1024 l 589 791 m 317 747 q 520 601 458 747 l 520 728 l 623 728 l 623 -12 q 600 -136 623 -79 q 537 -228 576 -192 q 348 -304 455 -304 q 233 -282 286 -304 q 145 -225 180 -260 q 66 -74 76 -155 l 163 -74 q 226 -173 172 -133 q 346 -212 279 -212 q 466 -163 412 -212 q 520 -22 520 -113 l 520 125 q 395 -8 473 20 q 312 -20 361 -20 q 217 2 263 -20 q 141 60 172 24 q 90 146 111 97 q 50 341 50 241 q 65 508 50 441 q 112 630 81 575 q 196 716 143 684 q 317 747 249 747 m 206 578 q 180 540 206 578 q 154 366 154 501 q 206 151 154 230 q 337 72 258 72 q 469 151 415 72 q 524 365 524 230 q 469 577 524 499 q 336 655 415 655 q 206 578 258 655 z "},"Ğ":{"ha":924,"x_min":68,"x_max":836,"o":"m 449 1118 q 510 1135 486 1120 q 597 1246 550 1164 l 651 1246 q 651 1240 651 1246 q 606 1118 651 1194 q 536 1053 583 1080 q 446 1027 490 1027 q 355 1053 401 1027 q 285 1118 309 1080 q 240 1240 240 1194 l 240 1246 l 295 1246 q 381 1135 328 1171 q 449 1118 407 1119 m 475 -20 q 301 23 379 -20 q 172 138 222 66 q 68 496 68 289 q 132 778 68 648 q 327 982 203 924 q 490 1014 395 1014 q 771 854 670 1014 l 677 808 q 593 891 638 863 q 477 918 548 918 q 348 879 406 918 q 255 776 290 839 q 180 496 180 646 q 255 212 180 339 q 348 113 290 151 q 464 75 405 75 q 562 90 522 75 q 629 129 602 104 q 677 183 656 153 q 708 248 697 214 q 730 376 730 317 l 464 376 l 464 472 l 836 472 l 836 414 q 783 176 836 283 q 613 7 722 54 q 479 -20 552 -20 l 475 -20 z "},"ğ":{"ha":708,"x_min":50,"x_max":623,"o":"m 357 884 q 418 901 394 886 q 505 1013 458 930 l 559 1013 q 559 1006 559 1013 q 514 884 559 960 q 444 819 490 846 q 353 793 398 793 q 262 819 309 793 q 193 884 216 846 q 148 1006 148 960 l 148 1013 l 203 1013 q 289 901 236 937 q 357 884 315 885 m 317 747 q 520 601 458 747 l 520 728 l 623 728 l 623 -12 q 600 -136 623 -79 q 537 -228 576 -192 q 348 -304 455 -304 q 233 -282 286 -304 q 145 -225 180 -260 q 66 -74 76 -155 l 163 -74 q 226 -173 172 -133 q 346 -212 279 -212 q 466 -163 412 -212 q 520 -22 520 -113 l 520 125 q 395 -8 473 20 q 312 -20 361 -20 q 217 2 263 -20 q 141 60 172 24 q 90 146 111 97 q 50 341 50 241 q 65 508 50 441 q 112 630 81 575 q 196 716 143 684 q 317 747 249 747 m 206 578 q 180 540 206 578 q 154 366 154 501 q 206 151 154 230 q 337 72 258 72 q 469 151 415 72 q 524 365 524 230 q 469 577 524 499 q 336 655 415 655 q 206 578 258 655 z "},"Ġ":{"ha":924,"x_min":68,"x_max":836,"o":"m 539 1143 q 539 1129 539 1143 q 520 1096 539 1115 q 477 1077 501 1077 q 436 1092 454 1077 q 415 1120 418 1106 q 412 1151 412 1134 q 431 1186 412 1167 q 474 1205 450 1205 q 515 1191 498 1205 q 539 1143 539 1171 m 475 -20 q 301 23 379 -20 q 172 138 222 66 q 68 496 68 289 q 132 778 68 648 q 327 982 203 924 q 490 1014 395 1014 q 771 854 670 1014 l 677 808 q 593 891 638 863 q 477 918 548 918 q 348 879 406 918 q 255 776 290 839 q 180 496 180 646 q 255 212 180 339 q 348 113 290 151 q 464 75 405 75 q 562 90 522 75 q 629 129 602 104 q 677 183 656 153 q 708 248 697 214 q 730 376 730 317 l 464 376 l 464 472 l 836 472 l 836 414 q 783 176 836 283 q 613 7 722 54 q 479 -20 552 -20 l 475 -20 z "},"ġ":{"ha":708,"x_min":50,"x_max":623,"o":"m 420 921 q 420 907 420 921 q 401 874 420 893 q 359 855 382 855 q 317 870 335 855 q 296 898 300 884 q 293 929 293 912 q 312 964 293 945 q 355 983 331 983 q 397 969 380 983 q 420 921 420 949 m 317 747 q 520 601 458 747 l 520 728 l 623 728 l 623 -12 q 600 -136 623 -79 q 537 -228 576 -192 q 348 -304 455 -304 q 233 -282 286 -304 q 145 -225 180 -260 q 66 -74 76 -155 l 163 -74 q 226 -173 172 -133 q 346 -212 279 -212 q 466 -163 412 -212 q 520 -22 520 -113 l 520 125 q 395 -8 473 20 q 312 -20 361 -20 q 217 2 263 -20 q 141 60 172 24 q 90 146 111 97 q 50 341 50 241 q 65 508 50 441 q 112 630 81 575 q 196 716 143 684 q 317 747 249 747 m 206 578 q 180 540 206 578 q 154 366 154 501 q 206 151 154 230 q 337 72 258 72 q 469 151 415 72 q 524 365 524 230 q 469 577 524 499 q 336 655 415 655 q 206 578 258 655 z "},"Ģ":{"ha":924,"x_min":68,"x_max":836,"o":"m 459 -18 q 473 -18 459 -18 q 507 -34 487 -18 q 530 -66 526 -51 q 533 -98 533 -81 q 528 -142 533 -116 q 515 -188 522 -168 q 497 -229 508 -208 q 478 -262 486 -250 q 461 -288 471 -274 q 450 -304 451 -302 l 412 -283 q 460 -163 460 -214 q 414 -146 434 -163 q 387 -93 387 -125 q 409 -39 387 -60 q 459 -18 431 -18 m 475 -20 q 301 23 379 -20 q 172 138 222 66 q 68 496 68 289 q 132 778 68 648 q 327 982 203 924 q 490 1014 395 1014 q 771 854 670 1014 l 677 808 q 593 891 638 863 q 477 918 548 918 q 348 879 406 918 q 255 776 290 839 q 180 496 180 646 q 255 212 180 339 q 348 113 290 151 q 464 75 405 75 q 562 90 522 75 q 629 129 602 104 q 677 183 656 153 q 708 248 697 214 q 730 376 730 317 l 464 376 l 464 472 l 836 472 l 836 414 q 783 176 836 283 q 613 7 722 54 q 479 -20 552 -20 l 475 -20 z "},"ģ":{"ha":708,"x_min":50,"x_max":623,"o":"m 388 1075 q 402 1075 388 1075 q 436 1058 416 1075 q 459 1027 456 1042 q 463 994 463 1012 q 457 950 463 977 q 445 905 452 924 q 426 864 437 885 q 408 830 415 842 q 390 804 400 819 q 379 788 380 790 l 341 809 q 390 930 390 879 q 344 946 363 930 q 317 1000 317 968 q 338 1054 317 1032 q 388 1075 360 1075 m 317 747 q 520 601 458 747 l 520 728 l 623 728 l 623 -12 q 600 -136 623 -79 q 537 -228 576 -192 q 348 -304 455 -304 q 233 -282 286 -304 q 145 -225 180 -260 q 66 -74 76 -155 l 163 -74 q 226 -173 172 -133 q 346 -212 279 -212 q 466 -163 412 -212 q 520 -22 520 -113 l 520 125 q 395 -8 473 20 q 312 -20 361 -20 q 217 2 263 -20 q 141 60 172 24 q 90 146 111 97 q 50 341 50 241 q 65 508 50 441 q 112 630 81 575 q 196 716 143 684 q 317 747 249 747 m 206 578 q 180 540 206 578 q 154 366 154 501 q 206 151 154 230 q 337 72 258 72 q 469 151 415 72 q 524 365 524 230 q 469 577 524 499 q 336 655 415 655 q 206 578 258 655 z "},"Ĥ":{"ha":812,"x_min":82,"x_max":745,"o":"m 646 1027 l 519 1027 l 413 1171 l 306 1028 l 180 1028 l 368 1260 l 456 1260 l 646 1027 m 82 987 l 189 987 l 189 553 l 637 553 l 637 987 l 745 987 l 745 0 l 637 0 l 637 457 l 189 457 l 189 0 l 82 0 l 82 987 z "},"ĥ":{"ha":673,"x_min":87,"x_max":648,"o":"m 593 1027 l 465 1027 l 359 1171 l 252 1028 l 126 1028 l 314 1260 l 403 1260 l 593 1027 m 191 0 l 87 0 l 87 987 l 191 987 l 191 605 q 265 706 210 665 q 397 747 321 747 q 580 653 512 747 q 648 367 648 558 l 648 0 l 546 0 l 546 367 q 451 632 546 570 q 363 654 416 654 q 269 614 310 654 q 191 366 191 538 l 191 0 z "},"Ħ":{"ha":812,"x_min":28,"x_max":783,"o":"m 82 987 l 189 987 l 189 726 l 637 726 l 637 987 l 745 987 l 745 726 l 783 726 l 783 657 l 745 657 l 745 0 l 637 0 l 637 457 l 189 457 l 189 0 l 82 0 l 82 657 l 28 657 l 28 726 l 82 726 l 82 987 m 637 657 l 189 657 l 189 553 l 637 553 l 637 657 z "},"ħ":{"ha":673,"x_min":20,"x_max":648,"o":"m 191 0 l 87 0 l 87 800 l 20 800 l 20 896 l 87 896 l 87 987 l 191 987 l 191 896 l 381 896 l 381 800 l 191 800 l 191 605 q 265 707 210 667 q 387 747 319 747 q 629 538 576 747 q 648 367 648 463 l 648 0 l 546 0 l 546 367 q 451 632 546 570 q 370 654 416 654 q 233 568 279 654 q 191 366 191 487 l 191 0 z "},"Ĩ":{"ha":301,"x_min":-28,"x_max":404,"o":"m -28 1228 q 5 1256 -12 1240 q 96 1293 47 1293 q 168 1257 128 1293 q 204 1224 190 1238 q 269 1191 239 1191 q 363 1227 317 1191 q 404 1257 381 1241 l 404 1159 q 357 1122 370 1133 q 288 1092 321 1092 q 194 1128 235 1092 q 163 1156 183 1137 q 96 1195 123 1195 q 9 1160 48 1195 q -28 1129 -9 1145 l -28 1228 m 104 0 l 104 987 l 211 987 l 211 0 l 104 0 z "},"ĩ":{"ha":292,"x_min":-57,"x_max":375,"o":"m 102 728 l 204 728 l 204 0 l 102 0 l 102 728 m -57 927 q -23 955 -41 939 q 67 992 19 992 q 140 956 100 992 q 175 924 161 937 q 240 890 211 890 q 334 926 288 890 q 375 956 353 940 l 375 858 q 329 821 342 832 q 259 791 293 791 q 165 827 206 791 q 134 856 155 836 q 68 894 94 894 q -20 859 20 894 q -57 828 -38 844 l -57 927 z "},"Ī":{"ha":301,"x_min":-80,"x_max":379,"o":"m -80 1179 l 379 1179 l 379 1107 l -80 1107 l -80 1179 m 104 0 l 104 987 l 211 987 l 211 0 l 104 0 z "},"ī":{"ha":292,"x_min":-66,"x_max":393,"o":"m 102 728 l 204 728 l 204 0 l 102 0 l 102 728 m -66 895 l 393 895 l 393 823 l -66 823 l -66 895 z "},"Ĭ":{"ha":301,"x_min":-51,"x_max":360,"o":"m 158 1118 q 219 1135 195 1120 q 306 1246 259 1164 l 360 1246 q 360 1240 360 1246 q 315 1118 360 1194 q 245 1053 292 1080 q 155 1027 199 1027 q 64 1053 110 1027 q -6 1118 18 1080 q -51 1240 -51 1194 l -51 1246 l 4 1246 q 90 1135 37 1171 q 158 1118 116 1119 m 104 0 l 104 987 l 211 987 l 211 0 l 104 0 z "},"ĭ":{"ha":292,"x_min":-60,"x_max":351,"o":"m 95 728 l 197 728 l 197 0 l 95 0 l 95 728 m 149 854 q 210 872 186 857 q 297 983 250 901 l 351 983 q 351 977 351 983 q 307 855 351 930 q 237 790 283 817 q 146 764 191 764 q 55 790 101 764 q -15 855 9 817 q -60 977 -60 930 l -60 983 l -5 983 q 81 872 28 907 q 149 854 107 856 z "},"Į":{"ha":301,"x_min":79,"x_max":250,"o":"m 250 -129 l 221 -214 q 157 -175 170 -184 q 90 -111 100 -134 q 79 -72 79 -89 q 136 50 79 -4 l 224 12 q 186 -52 186 -37 q 207 -95 186 -77 q 230 -114 228 -112 q 250 -129 233 -115 m 104 0 l 104 987 l 211 987 l 211 0 l 104 0 z "},"į":{"ha":292,"x_min":79,"x_max":250,"o":"m 250 -129 l 221 -214 q 157 -175 170 -184 q 90 -111 100 -134 q 79 -72 79 -89 q 136 50 79 -4 l 224 12 q 186 -52 186 -37 q 207 -95 186 -77 q 230 -114 228 -112 q 250 -129 233 -115 m 89 902 q 89 916 89 902 q 108 949 89 930 q 151 968 127 968 q 193 954 176 968 q 216 906 216 933 q 197 859 216 878 q 154 840 178 840 q 113 854 130 840 q 89 902 89 874 m 102 728 l 204 728 l 204 0 l 102 0 l 102 728 z "},"İ":{"ha":301,"x_min":92,"x_max":219,"o":"m 219 1143 q 219 1129 219 1143 q 200 1096 219 1115 q 157 1077 181 1077 q 116 1092 134 1077 q 95 1120 98 1106 q 92 1151 92 1134 q 111 1186 92 1167 q 154 1205 130 1205 q 195 1191 178 1205 q 219 1143 219 1171 m 104 0 l 104 987 l 211 987 l 211 0 l 104 0 z "},"ı":{"ha":292,"x_min":95,"x_max":197,"o":"m 95 728 l 197 728 l 197 0 l 95 0 l 95 728 z "},"Ĳ":{"ha":918,"x_min":104,"x_max":842,"o":"m 842 993 l 842 368 q 739 79 842 201 q 656 9 704 39 q 543 -20 609 -20 q 352 71 418 -20 q 281 361 281 168 l 281 368 l 383 368 l 383 361 q 478 96 383 157 q 559 73 513 73 q 696 160 651 73 q 739 361 739 241 l 739 993 l 842 993 m 104 0 l 104 987 l 211 987 l 211 0 l 104 0 z "},"ĳ":{"ha":481,"x_min":83,"x_max":407,"o":"m 298 859 q 279 903 279 877 q 298 949 279 930 q 343 968 317 968 q 388 949 369 968 q 407 905 407 931 q 388 859 407 878 q 343 840 369 840 q 298 859 317 840 m 156 -165 q 222 -199 189 -199 q 292 -115 292 -199 l 292 728 l 395 728 l 395 -94 q 340 -228 395 -178 q 201 -290 271 -290 q 113 -262 153 -290 q 83 -235 108 -258 l 156 -165 m 89 904 q 108 949 89 930 q 151 968 127 968 q 193 954 175 968 q 216 906 216 934 q 197 859 216 878 q 154 840 178 840 q 113 854 130 840 q 92 885 96 869 q 89 904 89 902 m 102 728 l 204 728 l 204 0 l 102 0 l 102 728 z "},"Ĵ":{"ha":773,"x_min":77,"x_max":876,"o":"m 876 1027 l 748 1027 l 642 1171 l 535 1028 l 409 1028 l 597 1260 l 686 1260 l 876 1027 m 77 363 l 172 363 q 253 143 172 233 q 377 82 308 82 q 494 125 446 82 q 590 363 590 208 l 590 987 l 697 987 l 697 363 q 610 88 697 196 q 383 -20 522 -20 q 193 57 271 -20 q 77 363 77 170 z "},"ĵ":{"ha":317,"x_min":-81,"x_max":409,"o":"m -8 -165 q 58 -199 25 -199 q 127 -115 127 -199 l 127 728 l 231 728 l 231 -94 q 176 -228 231 -178 q 37 -290 107 -290 q -51 -262 -11 -290 q -81 -235 -56 -258 l -8 -165 m 409 794 l 281 794 l 176 939 l 68 795 l -58 795 l 130 1027 l 219 1027 l 409 794 z "},"Ķ":{"ha":840,"x_min":82,"x_max":838,"o":"m 362 -16 q 377 -16 362 -16 q 410 -32 391 -16 q 433 -64 430 -49 q 437 -96 437 -79 q 431 -140 437 -114 q 419 -186 426 -166 q 400 -227 412 -205 q 382 -260 389 -248 q 365 -286 374 -272 q 353 -302 355 -300 l 315 -281 q 364 -161 364 -212 q 318 -144 338 -161 q 291 -91 291 -123 q 313 -37 291 -58 q 362 -16 334 -16 m 82 987 l 189 987 l 189 476 l 696 987 l 827 987 l 387 545 l 838 0 l 697 0 l 317 476 l 189 350 l 189 0 l 82 0 l 82 987 z "},"ķ":{"ha":604,"x_min":87,"x_max":637,"o":"m 328 -16 q 342 -16 328 -16 q 376 -32 356 -16 q 399 -64 395 -49 q 402 -96 402 -79 q 397 -140 402 -114 q 384 -186 391 -166 q 366 -227 377 -205 q 347 -260 355 -248 q 330 -286 340 -272 q 319 -302 320 -300 l 281 -281 q 330 -161 330 -212 q 283 -144 303 -161 q 256 -91 256 -123 q 278 -37 256 -58 q 328 -16 300 -16 m 325 418 l 637 0 l 519 0 l 262 347 l 191 257 l 191 0 l 87 0 l 87 986 l 191 986 l 191 395 l 468 728 l 586 728 l 325 418 z "},"ĸ":{"ha":719,"x_min":82,"x_max":635,"o":"m 82 727 l 189 727 l 189 434 l 472 730 l 598 730 l 255 366 l 635 0 l 488 0 l 190 275 l 189 0 l 82 0 l 82 727 z "},"Ĺ":{"ha":749,"x_min":81,"x_max":708,"o":"m 138 1079 q 116 1073 130 1073 q 91 1086 101 1073 q 81 1113 81 1100 q 92 1137 81 1126 l 282 1306 q 310 1318 297 1318 q 333 1316 323 1318 q 354 1299 343 1313 q 366 1275 366 1284 q 345 1227 366 1245 l 138 1079 m 82 987 l 189 987 l 189 96 l 708 96 l 708 0 l 82 0 l 82 987 z "},"ĺ":{"ha":320,"x_min":87,"x_max":372,"o":"m 144 1079 q 122 1073 136 1073 q 97 1086 107 1073 q 87 1113 87 1100 q 98 1137 87 1126 l 288 1306 q 316 1318 303 1318 q 339 1316 329 1318 q 360 1299 349 1313 q 372 1275 372 1284 q 351 1227 372 1245 l 144 1079 m 204 140 q 285 69 204 69 l 285 -20 q 164 5 208 -20 q 102 138 102 41 l 102 986 l 204 986 l 204 140 z "},"Ļ":{"ha":749,"x_min":82,"x_max":708,"o":"m 365 -16 q 379 -16 365 -16 q 413 -32 393 -16 q 436 -64 433 -49 q 439 -96 439 -79 q 434 -140 439 -114 q 421 -186 429 -166 q 403 -227 414 -205 q 385 -260 392 -248 q 367 -286 377 -272 q 356 -302 357 -300 l 318 -281 q 367 -161 367 -212 q 321 -144 340 -161 q 294 -91 294 -123 q 315 -37 294 -58 q 365 -16 337 -16 m 82 987 l 189 987 l 189 96 l 708 96 l 708 0 l 82 0 l 82 987 z "},"ļ":{"ha":320,"x_min":102,"x_max":285,"o":"m 202 -18 q 217 -18 202 -18 q 250 -35 231 -18 q 273 -66 270 -52 q 277 -99 277 -81 q 271 -143 277 -117 q 259 -189 266 -169 q 240 -230 252 -208 q 222 -263 229 -251 q 204 -289 214 -275 q 193 -305 195 -303 l 155 -284 q 204 -163 204 -214 q 158 -147 178 -163 q 131 -93 131 -125 q 153 -40 131 -61 q 202 -18 174 -18 m 204 140 q 285 69 204 69 l 285 -20 q 164 5 208 -20 q 102 138 102 41 l 102 986 l 204 986 l 204 140 z "},"Ľ":{"ha":749,"x_min":82,"x_max":708,"o":"m 331 968 q 320 888 331 915 q 283 813 298 838 l 273 798 l 247 814 q 281 911 281 869 q 248 924 262 911 q 229 967 229 942 q 244 1009 229 992 q 279 1027 260 1027 q 315 1012 298 1027 q 331 977 331 997 l 331 968 m 82 987 l 189 987 l 189 96 l 708 96 l 708 0 l 82 0 l 82 987 z "},"ľ":{"ha":363,"x_min":102,"x_max":331,"o":"m 331 968 q 320 888 331 915 q 283 813 298 838 l 273 798 l 247 814 q 281 911 281 869 q 248 924 262 911 q 229 967 229 942 q 244 1009 229 992 q 279 1027 260 1027 q 315 1012 298 1027 q 331 977 331 997 l 331 968 m 204 140 q 285 69 204 69 l 285 -20 q 164 5 208 -20 q 102 138 102 41 l 102 986 l 204 986 l 204 140 z "},"Ŀ":{"ha":749,"x_min":82,"x_max":708,"o":"m 374 493 q 374 509 374 493 q 396 546 374 525 q 446 568 418 568 q 494 551 474 568 q 520 497 520 529 q 499 443 520 465 q 449 422 477 422 q 401 438 421 422 q 374 493 374 460 m 82 987 l 189 987 l 189 96 l 708 96 l 708 0 l 82 0 l 82 987 z "},"ŀ":{"ha":424,"x_min":102,"x_max":454,"o":"m 308 493 q 308 509 308 493 q 330 546 308 525 q 379 568 351 568 q 427 551 408 568 q 454 497 454 529 q 432 443 454 465 q 383 422 411 422 q 335 438 355 422 q 308 493 308 460 m 204 140 q 285 69 204 69 l 285 -20 q 164 5 208 -20 q 102 138 102 41 l 102 986 l 204 986 l 204 140 z "},"Ł":{"ha":749,"x_min":12,"x_max":708,"o":"m 12 346 l 12 483 l 82 553 l 82 987 l 189 987 l 189 662 l 274 747 l 275 606 l 189 522 l 189 96 l 708 96 l 708 0 l 82 0 l 82 416 l 12 346 z "},"ł":{"ha":320,"x_min":12,"x_max":275,"o":"m 188 140 q 269 69 188 69 l 269 -20 q 148 5 192 -20 q 85 138 85 41 l 85 419 l 12 346 l 12 483 l 85 557 l 85 986 l 188 986 l 188 661 l 274 747 l 275 606 l 188 520 l 188 140 z "},"Ń":{"ha":862,"x_min":82,"x_max":794,"o":"m 405 1079 q 382 1073 397 1073 q 357 1086 368 1073 q 347 1113 347 1100 q 358 1137 347 1126 l 549 1306 q 576 1318 564 1318 q 600 1316 589 1318 q 621 1299 610 1313 q 632 1275 632 1284 q 612 1227 632 1245 l 405 1079 m 82 0 l 82 987 l 186 987 l 688 200 l 688 987 l 794 987 l 794 0 l 696 0 l 189 807 l 189 0 l 82 0 z "},"ń":{"ha":675,"x_min":94,"x_max":655,"o":"m 318 842 q 295 836 310 836 q 271 849 281 836 q 260 876 260 863 q 271 899 260 888 l 462 1069 q 490 1081 477 1081 q 513 1078 503 1081 q 534 1061 523 1076 q 545 1038 545 1047 q 525 990 545 1008 l 318 842 m 197 0 l 94 0 l 94 728 l 197 728 l 197 605 q 272 706 216 665 q 404 747 328 747 q 587 653 519 747 q 655 367 655 558 l 655 0 l 553 0 l 553 367 q 458 632 553 570 q 370 654 423 654 q 275 614 317 654 q 197 366 197 538 l 197 0 z "},"Ņ":{"ha":862,"x_min":82,"x_max":794,"o":"m 395 -18 q 409 -18 395 -18 q 443 -34 423 -18 q 466 -66 463 -51 q 469 -98 469 -81 q 464 -142 469 -116 q 451 -188 458 -168 q 433 -229 444 -208 q 414 -262 422 -250 q 397 -288 407 -274 q 386 -304 387 -302 l 348 -283 q 397 -163 397 -214 q 351 -146 370 -163 q 323 -93 323 -125 q 345 -39 323 -60 q 395 -18 367 -18 m 82 0 l 82 987 l 186 987 l 688 200 l 688 987 l 794 987 l 794 0 l 696 0 l 189 807 l 189 0 l 82 0 z "},"ņ":{"ha":675,"x_min":87,"x_max":648,"o":"m 360 -18 q 374 -18 360 -18 q 408 -34 388 -18 q 431 -66 427 -51 q 434 -98 434 -81 q 429 -142 434 -116 q 416 -188 423 -168 q 398 -229 409 -208 q 379 -262 387 -250 q 362 -288 372 -274 q 351 -304 352 -302 l 313 -283 q 361 -163 361 -214 q 315 -146 335 -163 q 288 -93 288 -125 q 310 -39 288 -60 q 360 -18 332 -18 m 191 0 l 87 0 l 87 728 l 191 728 l 191 605 q 265 706 210 665 q 397 747 321 747 q 580 653 512 747 q 648 367 648 558 l 648 0 l 546 0 l 546 367 q 451 632 546 570 q 363 654 416 654 q 269 614 310 654 q 191 366 191 538 l 191 0 z "},"Ň":{"ha":862,"x_min":82,"x_max":794,"o":"m 670 1260 l 480 1027 l 391 1027 l 203 1259 l 330 1259 l 437 1116 l 543 1260 l 670 1260 m 82 0 l 82 987 l 186 987 l 688 200 l 688 987 l 794 987 l 794 0 l 696 0 l 189 807 l 189 0 l 82 0 z "},"ň":{"ha":675,"x_min":87,"x_max":648,"o":"m 597 1027 l 407 793 l 318 793 l 130 1025 l 256 1025 l 363 882 l 469 1027 l 597 1027 m 191 0 l 87 0 l 87 728 l 191 728 l 191 605 q 265 706 210 665 q 397 747 321 747 q 580 653 512 747 q 648 367 648 558 l 648 0 l 546 0 l 546 367 q 451 632 546 570 q 363 654 416 654 q 269 614 310 654 q 191 366 191 538 l 191 0 z "},"ŉ":{"ha":892,"x_min":70,"x_max":819,"o":"m 141 1075 q 155 1075 141 1075 q 189 1058 170 1075 q 212 1027 209 1042 q 216 994 216 1012 q 210 950 216 977 q 198 905 205 924 q 179 864 191 885 q 161 830 168 842 q 143 804 153 819 q 132 788 134 790 l 94 809 q 143 930 143 879 q 97 946 117 930 q 70 1000 70 968 q 92 1054 70 1032 q 141 1075 113 1075 m 361 0 l 258 0 l 258 728 l 361 728 l 361 605 q 436 706 380 665 q 568 747 492 747 q 751 653 683 747 q 819 367 819 558 l 819 0 l 717 0 l 717 367 q 622 632 717 570 q 534 654 587 654 q 439 614 481 654 q 361 366 361 538 l 361 0 z "},"Ŋ":{"ha":862,"x_min":75,"x_max":787,"o":"m 787 245 l 787 239 q 763 110 787 200 q 703 20 749 64 q 514 -59 618 -59 l 511 -59 q 514 32 512 -52 q 634 82 584 32 q 684 223 684 132 l 684 612 q 589 878 684 816 q 517 900 554 900 q 413 877 479 900 q 299 817 372 861 q 193 722 227 773 q 182 612 182 705 l 182 0 l 79 0 l 75 987 l 178 987 l 182 850 q 359 953 264 913 q 522 993 453 993 q 636 970 591 993 q 786 612 786 895 l 786 246 l 787 245 z "},"ŋ":{"ha":708,"x_min":73,"x_max":635,"o":"m 362 -214 q 482 -164 432 -214 q 532 -22 532 -114 l 532 367 q 437 632 532 570 q 355 654 402 654 q 186 477 223 654 q 176 366 176 426 l 176 0 l 73 0 l 73 728 l 176 728 l 176 605 q 251 707 196 667 q 372 747 305 747 q 615 538 562 747 q 634 367 634 463 l 634 1 l 635 0 l 635 -6 q 611 -136 635 -48 q 551 -225 598 -181 q 362 -304 466 -304 l 359 -304 q 362 -214 360 -298 z "},"Ō":{"ha":904,"x_min":62,"x_max":856,"o":"m 231 1179 l 690 1179 l 690 1107 l 231 1107 l 231 1179 m 705 267 q 716 295 705 267 q 735 378 726 323 q 743 503 743 434 q 729 637 743 572 q 695 749 715 702 q 642 835 674 795 q 458 918 574 918 q 345 891 395 918 q 264 821 295 864 q 212 720 233 778 q 175 517 175 618 q 188 352 175 416 q 222 242 201 288 q 275 159 243 197 q 458 77 342 77 q 572 103 522 77 q 653 170 622 129 q 705 267 684 212 m 197 94 q 175 121 197 94 q 123 210 152 147 q 78 344 94 272 q 62 488 62 416 q 75 630 62 560 q 119 770 88 700 q 193 893 149 840 q 306 980 237 947 q 458 1014 375 1014 q 608 983 541 1014 q 720 898 675 951 q 840 644 808 793 q 856 495 856 566 q 843 355 856 424 q 799 218 829 287 q 724 98 768 150 q 611 13 680 45 q 459 -20 542 -20 q 310 11 377 -20 q 197 94 243 41 z "},"ō":{"ha":675,"x_min":69,"x_max":661,"o":"m 126 898 l 585 898 l 585 826 l 126 826 l 126 898 m 203 33 q 169 59 203 33 q 102 170 135 85 q 69 350 69 256 q 89 513 69 445 q 144 633 108 582 q 366 742 221 742 q 528 691 459 742 q 661 364 661 591 q 529 33 661 133 q 366 -20 460 -20 q 203 33 271 -20 m 255 610 q 233 590 255 610 q 192 508 211 570 q 174 375 174 446 q 184 252 174 303 q 218 159 195 200 q 366 72 265 72 q 546 252 508 72 q 557 375 557 303 q 538 508 557 446 q 475 610 519 570 q 365 650 431 650 q 255 610 299 650 z "},"Ŏ":{"ha":904,"x_min":62,"x_max":856,"o":"m 449 1118 q 510 1135 486 1120 q 597 1246 550 1164 l 651 1246 q 651 1240 651 1246 q 606 1118 651 1194 q 536 1053 583 1080 q 446 1027 490 1027 q 355 1053 401 1027 q 285 1118 309 1080 q 240 1240 240 1194 l 240 1246 l 295 1246 q 381 1135 328 1171 q 449 1118 407 1119 m 705 267 q 716 295 705 267 q 735 378 726 323 q 743 503 743 434 q 729 637 743 572 q 695 749 715 702 q 642 835 674 795 q 458 918 574 918 q 345 891 395 918 q 264 821 295 864 q 212 720 233 778 q 175 517 175 618 q 188 352 175 416 q 222 242 201 288 q 275 159 243 197 q 458 77 342 77 q 572 103 522 77 q 653 170 622 129 q 705 267 684 212 m 197 94 q 175 121 197 94 q 123 210 152 147 q 78 344 94 272 q 62 488 62 416 q 75 630 62 560 q 119 770 88 700 q 193 893 149 840 q 306 980 237 947 q 458 1014 375 1014 q 608 983 541 1014 q 720 898 675 951 q 840 644 808 793 q 856 495 856 566 q 843 355 856 424 q 799 218 829 287 q 724 98 768 150 q 611 13 680 45 q 459 -20 542 -20 q 310 11 377 -20 q 197 94 243 41 z "},"ŏ":{"ha":675,"x_min":69,"x_max":661,"o":"m 366 882 q 427 900 403 884 q 513 1011 467 928 l 568 1011 q 568 1004 568 1011 q 523 883 568 958 q 453 818 499 844 q 362 791 407 791 q 271 818 317 791 q 201 883 225 844 q 157 1004 157 958 l 157 1011 l 212 1011 q 298 900 245 935 q 366 882 323 884 m 203 33 q 169 59 203 33 q 102 170 135 85 q 69 350 69 256 q 89 513 69 445 q 144 633 108 582 q 366 742 221 742 q 528 691 459 742 q 661 364 661 591 q 529 33 661 133 q 366 -20 460 -20 q 203 33 271 -20 m 255 610 q 233 590 255 610 q 192 508 211 570 q 174 375 174 446 q 184 252 174 303 q 218 159 195 200 q 366 72 265 72 q 546 252 508 72 q 557 375 557 303 q 538 508 557 446 q 475 610 519 570 q 365 650 431 650 q 255 610 299 650 z "},"Ő":{"ha":904,"x_min":62,"x_max":856,"o":"m 538 1082 l 678 1295 q 715 1317 694 1317 q 751 1305 736 1317 q 770 1270 770 1290 q 760 1235 770 1250 l 598 1038 q 574 1027 589 1027 q 549 1035 560 1027 q 533 1059 533 1046 q 538 1082 533 1072 m 305 1082 l 445 1295 q 482 1317 461 1317 q 518 1305 503 1317 q 537 1270 537 1290 q 526 1235 537 1250 l 365 1038 q 341 1027 355 1027 q 315 1035 327 1027 q 300 1059 300 1046 q 305 1082 300 1072 m 705 267 q 716 295 705 267 q 735 378 726 323 q 743 503 743 434 q 729 637 743 572 q 695 749 715 702 q 642 835 674 795 q 458 918 574 918 q 345 891 395 918 q 264 821 295 864 q 212 720 233 778 q 175 517 175 618 q 188 352 175 416 q 222 242 201 288 q 275 159 243 197 q 458 77 342 77 q 572 103 522 77 q 653 170 622 129 q 705 267 684 212 m 197 94 q 175 121 197 94 q 123 210 152 147 q 78 344 94 272 q 62 488 62 416 q 75 630 62 560 q 119 770 88 700 q 193 893 149 840 q 306 980 237 947 q 458 1014 375 1014 q 608 983 541 1014 q 720 898 675 951 q 840 644 808 793 q 856 495 856 566 q 843 355 856 424 q 799 218 829 287 q 724 98 768 150 q 611 13 680 45 q 459 -20 542 -20 q 310 11 377 -20 q 197 94 243 41 z "},"ő":{"ha":675,"x_min":69,"x_max":669,"o":"m 437 848 l 576 1061 q 614 1083 593 1083 q 650 1072 635 1083 q 669 1036 669 1056 q 658 1001 669 1016 l 496 804 q 473 793 487 793 q 447 801 458 793 q 431 825 431 812 q 437 848 431 838 m 203 848 l 343 1061 q 380 1083 359 1083 q 416 1072 401 1083 q 435 1036 435 1056 q 425 1001 435 1016 l 263 804 q 239 793 254 793 q 214 801 225 793 q 198 825 198 812 q 203 848 198 838 m 203 33 q 169 59 203 33 q 102 170 135 85 q 69 350 69 256 q 89 513 69 445 q 144 633 108 582 q 366 742 221 742 q 528 691 459 742 q 661 364 661 591 q 529 33 661 133 q 366 -20 460 -20 q 203 33 271 -20 m 255 610 q 233 590 255 610 q 192 508 211 570 q 174 375 174 446 q 184 252 174 303 q 218 159 195 200 q 366 72 265 72 q 546 252 508 72 q 557 375 557 303 q 538 508 557 446 q 475 610 519 570 q 365 650 431 650 q 255 610 299 650 z "},"Œ":{"ha":1059,"x_min":62,"x_max":991,"o":"m 476 1014 q 604 987 577 1014 l 991 987 l 991 892 l 680 892 l 680 554 l 962 554 l 962 458 l 680 458 l 680 96 l 991 96 l 991 0 l 579 0 q 450 -20 522 -20 q 311 11 377 -20 q 127 201 191 65 q 62 488 62 337 q 123 780 62 640 q 476 1014 224 1014 m 572 103 l 572 892 q 564 897 570 895 q 456 918 518 918 q 345 891 395 918 q 212 720 254 842 q 175 516 175 618 q 275 159 175 281 q 458 77 341 77 q 572 103 528 77 l 572 103 z "},"œ":{"ha":1008,"x_min":69,"x_max":948,"o":"m 458 98 q 387 365 387 202 q 456 626 387 527 q 359 650 420 650 q 255 610 298 650 q 174 364 174 536 q 278 95 174 159 q 366 72 315 72 q 458 98 412 72 m 947 383 l 948 351 l 948 318 l 495 318 q 581 109 505 178 q 671 72 620 72 q 769 98 722 72 q 838 165 817 124 l 928 127 q 822 20 893 60 q 670 -20 751 -20 q 524 28 588 -20 q 365 -20 457 -20 q 203 33 272 -20 q 69 364 69 135 q 144 633 69 529 q 366 742 221 742 q 522 694 456 742 q 661 742 586 742 q 879 629 804 742 q 947 383 947 526 m 495 410 l 849 410 q 795 579 843 509 q 672 650 748 650 q 581 613 621 650 q 495 410 504 545 z "},"Ŕ":{"ha":747,"x_min":82,"x_max":749,"o":"m 292 1079 q 270 1073 284 1073 q 245 1086 255 1073 q 235 1113 235 1100 q 245 1137 235 1126 l 436 1306 q 464 1318 451 1318 q 487 1316 477 1318 q 508 1299 497 1313 q 519 1275 519 1284 q 499 1227 519 1245 l 292 1079 m 189 525 l 329 525 q 562 610 506 525 q 590 710 590 653 q 527 843 590 794 q 329 892 464 892 l 189 892 l 189 525 m 626 0 l 335 428 l 189 428 l 189 0 l 82 0 l 82 987 l 329 987 q 597 914 493 987 q 701 710 701 840 q 634 534 701 609 q 454 439 567 460 l 749 0 l 626 0 z "},"ŕ":{"ha":465,"x_min":87,"x_max":500,"o":"m 210 844 q 187 838 201 838 q 162 851 172 838 q 152 878 152 865 q 163 901 152 890 l 353 1071 q 381 1083 368 1083 q 404 1080 394 1083 q 426 1063 414 1078 q 437 1040 437 1049 q 416 992 437 1010 l 210 844 m 500 723 l 446 634 q 361 654 412 654 q 269 614 310 654 q 191 366 191 538 l 191 0 l 87 0 l 87 728 l 191 728 l 191 605 q 265 706 210 665 q 387 747 321 747 q 500 723 453 747 z "},"Ŗ":{"ha":747,"x_min":82,"x_max":749,"o":"m 352 -18 q 366 -18 352 -18 q 399 -34 380 -18 q 422 -66 419 -51 q 426 -98 426 -81 q 420 -142 426 -116 q 408 -188 415 -168 q 390 -229 401 -208 q 371 -262 378 -250 q 354 -288 363 -274 q 342 -304 344 -302 l 304 -283 q 353 -163 353 -214 q 307 -146 327 -163 q 280 -93 280 -125 q 302 -39 280 -60 q 352 -18 323 -18 m 189 525 l 329 525 q 562 610 506 525 q 590 710 590 653 q 527 843 590 794 q 329 892 464 892 l 189 892 l 189 525 m 626 0 l 335 428 l 189 428 l 189 0 l 82 0 l 82 987 l 329 987 q 597 914 493 987 q 701 710 701 840 q 634 534 701 609 q 454 439 567 460 l 749 0 l 626 0 z "},"ŗ":{"ha":465,"x_min":77,"x_max":513,"o":"m 149 -18 q 163 -18 149 -18 q 197 -34 177 -18 q 220 -66 216 -51 q 223 -98 223 -81 q 218 -142 223 -116 q 205 -188 212 -168 q 187 -229 198 -208 q 168 -262 176 -250 q 151 -288 161 -274 q 140 -304 141 -302 l 102 -283 q 151 -163 151 -214 q 104 -146 124 -163 q 77 -93 77 -125 q 99 -39 77 -60 q 149 -18 121 -18 m 513 723 l 458 634 q 374 654 425 654 q 281 614 323 654 q 203 366 203 538 l 203 0 l 100 0 l 100 728 l 203 728 l 203 605 q 278 706 222 665 q 400 747 334 747 q 513 723 466 747 z "},"Ř":{"ha":747,"x_min":82,"x_max":749,"o":"m 591 1260 l 401 1027 l 313 1027 l 125 1259 l 251 1259 l 358 1116 l 464 1260 l 591 1260 m 189 525 l 329 525 q 562 610 506 525 q 590 710 590 653 q 527 843 590 794 q 329 892 464 892 l 189 892 l 189 525 m 626 0 l 335 428 l 189 428 l 189 0 l 82 0 l 82 987 l 329 987 q 597 914 493 987 q 701 710 701 840 q 634 534 701 609 q 454 439 567 460 l 749 0 l 626 0 z "},"ř":{"ha":465,"x_min":22,"x_max":507,"o":"m 488 1027 l 298 793 l 210 793 l 22 1025 l 148 1025 l 255 882 l 361 1027 l 488 1027 m 507 723 l 452 634 q 368 654 419 654 q 275 614 317 654 q 197 366 197 538 l 197 0 l 94 0 l 94 728 l 197 728 l 197 605 q 272 706 216 665 q 394 747 328 747 q 507 723 460 747 z "},"Ś":{"ha":732,"x_min":31,"x_max":701,"o":"m 345 1079 q 322 1073 337 1073 q 298 1086 308 1073 q 288 1113 288 1100 q 298 1137 288 1126 l 489 1306 q 517 1318 504 1318 q 540 1316 530 1318 q 561 1299 550 1313 q 572 1275 572 1284 q 552 1227 572 1245 l 345 1079 m 31 222 l 146 243 q 224 130 160 184 q 374 77 288 77 q 529 125 461 77 q 597 252 597 174 q 378 472 597 385 q 332 490 360 479 q 284 509 304 501 q 244 528 264 517 q 195 554 223 538 q 148 591 167 571 q 113 636 130 610 q 77 770 77 688 q 160 948 77 882 q 362 1014 243 1014 q 564 956 482 1014 q 674 810 646 899 l 571 793 q 498 880 555 842 q 365 918 441 918 q 237 876 288 918 q 187 770 187 834 q 216 680 187 713 q 283 625 249 642 q 336 600 317 608 q 388 579 355 592 q 447 556 421 566 q 497 532 472 545 q 555 499 522 519 q 612 456 588 479 q 657 401 635 432 q 701 251 701 340 q 655 99 701 161 q 366 -20 566 -20 q 153 47 236 -20 q 31 222 70 113 z "},"ś":{"ha":625,"x_min":65,"x_max":570,"o":"m 296 844 q 273 838 288 838 q 248 851 258 838 q 238 878 238 865 q 249 901 238 890 l 439 1071 q 467 1083 454 1083 q 490 1080 480 1083 q 512 1063 500 1078 q 523 1040 523 1049 q 503 992 523 1010 l 296 844 m 327 321 q 302 329 327 321 q 250 348 277 337 q 188 378 222 359 q 132 420 153 398 q 82 557 82 473 q 150 692 82 642 q 318 745 218 743 q 534 640 463 745 q 558 591 550 616 l 459 570 q 319 653 422 653 q 225 626 265 653 q 186 551 186 600 q 195 507 186 521 q 211 484 205 492 q 228 468 216 476 q 246 456 239 460 q 266 446 252 452 q 285 438 280 440 q 311 428 294 434 q 349 415 328 422 q 382 403 370 407 q 415 390 393 399 q 449 374 436 381 q 479 356 461 368 q 509 334 498 345 q 533 307 520 323 q 553 275 546 292 q 570 195 570 237 q 496 41 570 102 q 320 -20 423 -20 q 154 26 218 -20 q 65 147 91 71 l 165 166 q 220 96 185 121 q 321 72 256 72 q 426 104 387 72 q 465 195 465 137 q 415 281 465 249 q 327 321 377 304 z "},"Ŝ":{"ha":732,"x_min":31,"x_max":701,"o":"m 593 1027 l 465 1027 l 359 1171 l 252 1028 l 126 1028 l 314 1260 l 403 1260 l 593 1027 m 31 222 l 146 243 q 224 130 160 184 q 374 77 288 77 q 529 125 461 77 q 597 252 597 174 q 378 472 597 385 q 332 490 360 479 q 284 509 304 501 q 244 528 264 517 q 195 554 223 538 q 148 591 167 571 q 113 636 130 610 q 77 770 77 688 q 160 948 77 882 q 362 1014 243 1014 q 564 956 482 1014 q 674 810 646 899 l 571 793 q 498 880 555 842 q 365 918 441 918 q 237 876 288 918 q 187 770 187 834 q 216 680 187 713 q 283 625 249 642 q 336 600 317 608 q 388 579 355 592 q 447 556 421 566 q 497 532 472 545 q 555 499 522 519 q 612 456 588 479 q 657 401 635 432 q 701 251 701 340 q 655 99 701 161 q 366 -20 566 -20 q 153 47 236 -20 q 31 222 70 113 z "},"ŝ":{"ha":625,"x_min":65,"x_max":571,"o":"m 571 794 l 444 794 l 338 939 l 231 795 l 104 795 l 292 1027 l 381 1027 l 571 794 m 327 321 q 302 329 327 321 q 250 348 277 337 q 188 378 222 359 q 132 420 153 398 q 82 557 82 473 q 150 692 82 642 q 318 745 218 743 q 534 640 463 745 q 558 591 550 616 l 459 570 q 319 653 422 653 q 225 626 265 653 q 186 551 186 600 q 195 507 186 521 q 211 484 205 492 q 228 468 216 476 q 246 456 239 460 q 266 446 252 452 q 285 438 280 440 q 311 428 294 434 q 349 415 328 422 q 382 403 370 407 q 415 390 393 399 q 449 374 436 381 q 479 356 461 368 q 509 334 498 345 q 533 307 520 323 q 553 275 546 292 q 570 195 570 237 q 496 41 570 102 q 320 -20 423 -20 q 154 26 218 -20 q 65 147 91 71 l 165 166 q 220 96 185 121 q 321 72 256 72 q 426 104 387 72 q 465 195 465 137 q 415 281 465 249 q 327 321 377 304 z "},"Ş":{"ha":732,"x_min":31,"x_max":701,"o":"m 31 222 l 146 243 q 224 130 160 184 q 374 77 288 77 q 529 125 460 77 q 597 252 597 174 q 524 389 597 332 q 444 442 477 427 q 332 490 399 463 l 294 505 q 168 574 210 538 q 107 644 124 611 q 77 770 77 705 q 160 948 77 882 q 362 1014 242 1014 q 565 956 482 1014 q 674 810 647 898 l 571 793 q 499 880 556 842 q 365 918 442 918 q 237 876 288 918 q 187 770 187 834 q 235 658 187 698 q 300 616 271 629 q 391 578 344 597 q 589 476 530 524 q 661 397 641 435 q 701 241 701 323 q 655 99 701 160 q 366 -20 565 -20 q 154 46 237 -20 q 31 222 71 113 m 375 -20 q 432 -137 432 -75 q 400 -209 432 -182 q 290 -284 352 -249 l 261 -199 q 281 -184 279 -186 q 298 -170 283 -182 q 325 -129 325 -148 q 312 -93 325 -111 q 288 -58 300 -75 l 375 -20 z "},"ş":{"ha":625,"x_min":60,"x_max":564,"o":"m 448 243 q 305 327 418 290 q 127 420 178 367 q 77 557 77 472 q 145 693 77 642 q 313 745 214 744 q 484 689 425 745 q 553 591 538 639 l 454 570 q 315 653 418 653 q 221 627 260 653 q 181 551 181 600 q 216 474 181 500 q 278 438 252 446 q 310 427 304 430 q 326 421 316 425 q 343 415 336 418 q 372 404 351 412 q 465 363 438 380 q 501 336 492 345 q 546 280 537 301 q 564 195 564 238 q 491 41 564 102 q 315 -20 418 -20 q 148 26 212 -20 q 60 147 85 73 l 160 166 q 216 96 180 121 q 316 72 251 72 q 420 104 381 72 q 460 195 460 137 q 448 243 460 224 m 339 -20 q 396 -137 396 -75 q 362 -210 396 -182 q 254 -284 315 -249 l 225 -199 q 236 -191 229 -197 q 244 -184 242 -186 q 289 -129 289 -153 q 279 -96 289 -111 q 251 -58 269 -81 l 339 -20 z "},"Š":{"ha":732,"x_min":31,"x_max":701,"o":"m 591 1260 l 401 1027 l 313 1027 l 125 1259 l 251 1259 l 358 1116 l 464 1260 l 591 1260 m 31 222 l 146 243 q 224 130 160 184 q 374 77 288 77 q 529 125 461 77 q 597 252 597 174 q 378 472 597 385 q 332 490 360 479 q 284 509 304 501 q 244 528 264 517 q 195 554 223 538 q 148 591 167 571 q 113 636 130 610 q 77 770 77 688 q 160 948 77 882 q 362 1014 243 1014 q 564 956 482 1014 q 674 810 646 899 l 571 793 q 498 880 555 842 q 365 918 441 918 q 237 876 288 918 q 187 770 187 834 q 216 680 187 713 q 283 625 249 642 q 336 600 317 608 q 388 579 355 592 q 447 556 421 566 q 497 532 472 545 q 555 499 522 519 q 612 456 588 479 q 657 401 635 432 q 701 251 701 340 q 655 99 701 161 q 366 -20 566 -20 q 153 47 236 -20 q 31 222 70 113 z "},"š":{"ha":625,"x_min":65,"x_max":570,"o":"m 545 1027 l 355 793 l 267 793 l 79 1025 l 205 1025 l 312 882 l 418 1027 l 545 1027 m 327 321 q 302 329 327 321 q 250 348 277 337 q 188 378 222 359 q 132 420 153 398 q 82 557 82 473 q 150 692 82 642 q 318 745 218 743 q 534 640 463 745 q 558 591 550 616 l 459 570 q 319 653 422 653 q 225 626 265 653 q 186 551 186 600 q 195 507 186 521 q 211 484 205 492 q 228 468 216 476 q 246 456 239 460 q 266 446 252 452 q 285 438 280 440 q 311 428 294 434 q 349 415 328 422 q 382 403 370 407 q 415 390 393 399 q 449 374 436 381 q 479 356 461 368 q 509 334 498 345 q 533 307 520 323 q 553 275 546 292 q 570 195 570 237 q 496 41 570 102 q 320 -20 423 -20 q 154 26 218 -20 q 65 147 91 71 l 165 166 q 220 96 185 121 q 321 72 256 72 q 426 104 387 72 q 465 195 465 137 q 415 281 465 249 q 327 321 377 304 z "},"Ţ":{"ha":843,"x_min":60,"x_max":800,"o":"m 459 50 q 516 -67 516 -5 q 420 -186 516 -129 l 374 -214 l 345 -130 q 409 -61 409 -83 q 372 12 409 -40 l 459 50 m 60 987 l 800 987 l 800 892 l 490 892 l 490 0 l 383 0 l 383 892 l 60 892 l 60 987 z "},"ţ":{"ha":472,"x_min":69,"x_max":401,"o":"m 303 50 q 360 -67 360 -5 q 264 -186 360 -129 l 218 -214 l 189 -130 q 253 -61 253 -83 q 216 12 253 -40 l 303 50 m 165 636 l 69 636 l 69 728 l 165 728 l 165 897 l 268 897 l 268 728 l 401 728 l 401 636 l 268 636 l 268 146 q 347 66 268 66 l 395 66 l 395 -20 l 347 -20 q 206 18 247 -20 q 165 143 165 56 l 165 636 z "},"Ť":{"ha":843,"x_min":60,"x_max":800,"o":"m 673 1260 l 483 1027 l 394 1027 l 206 1259 l 332 1259 l 439 1116 l 545 1260 l 673 1260 m 60 987 l 800 987 l 800 892 l 490 892 l 490 0 l 383 0 l 383 892 l 60 892 l 60 987 z "},"ť":{"ha":510,"x_min":69,"x_max":477,"o":"m 477 968 q 467 888 477 915 q 430 813 445 838 l 420 798 l 393 814 q 427 911 427 869 q 395 924 408 911 q 376 967 376 942 q 391 1009 376 992 q 426 1027 406 1027 q 461 1012 445 1027 q 477 977 477 997 l 477 968 m 165 636 l 69 636 l 69 728 l 165 728 l 165 897 l 268 897 l 268 728 l 401 728 l 401 636 l 268 636 l 268 146 q 347 66 268 66 l 395 66 l 395 -20 l 347 -20 q 206 18 247 -20 q 165 143 165 56 l 165 636 z "},"Ŧ":{"ha":843,"x_min":60,"x_max":800,"o":"m 60 987 l 800 987 l 800 892 l 490 892 l 490 483 l 724 483 l 724 387 l 490 387 l 490 0 l 383 0 l 383 387 l 163 387 l 163 483 l 383 483 l 383 892 l 60 892 l 60 987 z "},"ŧ":{"ha":472,"x_min":35,"x_max":437,"o":"m 165 636 l 69 636 l 69 728 l 165 728 l 165 897 l 268 897 l 268 728 l 401 728 l 401 636 l 268 636 l 268 483 l 437 483 l 437 387 l 268 387 l 268 146 q 347 66 268 66 l 395 66 l 395 -20 l 347 -20 q 206 18 246 -20 q 165 143 165 56 l 165 387 l 35 387 l 35 483 l 165 483 l 165 636 z "},"Ũ":{"ha":858,"x_min":82,"x_max":790,"o":"m 220 1198 q 254 1225 236 1210 q 344 1263 296 1263 q 416 1226 376 1263 q 452 1194 438 1207 q 517 1160 488 1160 q 611 1196 565 1160 q 652 1227 629 1211 l 652 1128 q 606 1092 618 1103 q 536 1061 570 1061 q 442 1097 483 1061 q 411 1126 431 1107 q 345 1164 371 1164 q 257 1130 296 1164 q 220 1099 239 1114 l 220 1198 m 681 987 l 790 987 l 790 437 q 696 101 790 222 q 436 -20 603 -20 q 216 58 303 -20 q 82 437 82 178 l 82 987 l 192 987 l 192 437 q 291 133 192 222 q 436 77 353 77 q 608 162 540 77 q 681 437 681 253 l 681 987 z "},"ũ":{"ha":675,"x_min":81,"x_max":642,"o":"m 147 928 q 181 956 163 940 q 271 993 223 993 q 344 956 304 993 q 380 924 366 937 q 444 890 415 890 q 538 926 492 890 q 579 957 557 941 l 579 859 q 533 822 546 833 q 463 791 497 791 q 370 827 410 791 q 338 856 359 837 q 272 895 298 895 q 184 860 224 895 q 147 829 166 844 l 147 928 m 539 728 l 642 728 l 642 0 l 539 0 l 539 123 q 465 21 520 62 q 332 -20 409 -20 q 150 75 218 -20 q 81 361 81 170 l 81 728 l 184 728 l 184 361 q 279 96 184 157 q 367 73 313 73 q 461 114 420 73 q 539 361 539 190 l 539 728 z "},"Ū":{"ha":858,"x_min":82,"x_max":790,"o":"m 206 1173 l 665 1173 l 665 1101 l 206 1101 l 206 1173 m 681 987 l 790 987 l 790 437 q 696 101 790 222 q 436 -20 603 -20 q 216 58 303 -20 q 82 437 82 178 l 82 987 l 192 987 l 192 437 q 291 133 192 222 q 436 77 353 77 q 608 162 540 77 q 681 437 681 253 l 681 987 z "},"ū":{"ha":675,"x_min":81,"x_max":642,"o":"m 134 895 l 593 895 l 593 823 l 134 823 l 134 895 m 539 728 l 642 728 l 642 0 l 539 0 l 539 123 q 465 21 520 62 q 332 -20 409 -20 q 150 75 218 -20 q 81 361 81 170 l 81 728 l 184 728 l 184 361 q 279 96 184 157 q 367 73 313 73 q 461 114 420 73 q 539 361 539 190 l 539 728 z "},"Ŭ":{"ha":858,"x_min":82,"x_max":790,"o":"m 449 1118 q 510 1135 486 1120 q 597 1246 550 1164 l 651 1246 q 651 1240 651 1246 q 606 1118 651 1194 q 536 1053 583 1080 q 446 1027 490 1027 q 355 1053 401 1027 q 285 1118 309 1080 q 240 1240 240 1194 l 240 1246 l 295 1246 q 381 1135 328 1171 q 449 1118 407 1119 m 681 987 l 790 987 l 790 437 q 696 101 790 222 q 436 -20 603 -20 q 216 58 303 -20 q 82 437 82 178 l 82 987 l 192 987 l 192 437 q 291 133 192 222 q 436 77 353 77 q 608 162 540 77 q 681 437 681 253 l 681 987 z "},"ŭ":{"ha":675,"x_min":81,"x_max":642,"o":"m 355 882 q 416 900 393 884 q 503 1011 456 928 l 557 1011 q 557 1004 557 1011 q 513 883 557 958 q 443 818 489 844 q 352 791 397 791 q 261 818 307 791 q 191 883 215 844 q 146 1004 146 958 l 146 1011 l 201 1011 q 288 900 235 935 q 355 882 313 884 m 539 728 l 642 728 l 642 0 l 539 0 l 539 123 q 465 21 520 62 q 332 -20 409 -20 q 150 75 218 -20 q 81 361 81 170 l 81 728 l 184 728 l 184 361 q 279 96 184 157 q 367 73 313 73 q 461 114 420 73 q 539 361 539 190 l 539 728 z "},"Ů":{"ha":858,"x_min":82,"x_max":790,"o":"m 353 1162 q 353 1142 353 1162 q 380 1098 353 1122 q 443 1074 408 1074 q 503 1101 477 1074 q 529 1165 529 1128 q 502 1233 529 1209 q 439 1257 474 1257 q 378 1230 404 1257 q 353 1162 353 1203 m 328 1274 q 437 1320 375 1320 q 543 1285 498 1320 q 601 1167 601 1238 q 554 1051 601 1097 q 445 1005 507 1005 q 340 1040 383 1005 q 281 1158 281 1088 q 328 1274 281 1228 m 681 987 l 790 987 l 790 437 q 696 101 790 222 q 436 -20 603 -20 q 216 58 303 -20 q 82 437 82 178 l 82 987 l 192 987 l 192 437 q 291 133 192 222 q 436 77 353 77 q 608 162 540 77 q 681 437 681 253 l 681 987 z "},"ů":{"ha":675,"x_min":81,"x_max":642,"o":"m 288 916 q 288 896 288 916 q 315 852 288 876 q 377 828 342 828 q 438 855 412 828 q 464 919 464 882 q 436 987 464 963 q 374 1010 409 1010 q 313 984 339 1010 q 288 916 288 957 m 262 1028 q 372 1074 310 1074 q 477 1039 433 1074 q 536 921 536 991 q 489 805 536 850 q 380 759 441 759 q 275 794 318 759 q 216 912 216 842 q 262 1028 216 982 m 539 728 l 642 728 l 642 0 l 539 0 l 539 123 q 465 21 520 62 q 332 -20 409 -20 q 150 75 218 -20 q 81 361 81 170 l 81 728 l 184 728 l 184 361 q 279 96 184 157 q 367 73 313 73 q 461 114 420 73 q 539 361 539 190 l 539 728 z "},"Ű":{"ha":858,"x_min":82,"x_max":790,"o":"m 538 1082 l 678 1295 q 715 1317 694 1317 q 751 1305 736 1317 q 770 1270 770 1290 q 760 1235 770 1250 l 598 1038 q 574 1027 589 1027 q 549 1035 560 1027 q 533 1059 533 1046 q 538 1082 533 1072 m 305 1082 l 445 1295 q 482 1317 461 1317 q 518 1305 503 1317 q 537 1270 537 1290 q 526 1235 537 1250 l 365 1038 q 341 1027 355 1027 q 315 1035 327 1027 q 300 1059 300 1046 q 305 1082 300 1072 m 681 987 l 790 987 l 790 437 q 696 101 790 222 q 436 -20 603 -20 q 216 58 303 -20 q 82 437 82 178 l 82 987 l 192 987 l 192 437 q 291 133 192 222 q 436 77 353 77 q 608 162 540 77 q 681 437 681 253 l 681 987 z "},"ű":{"ha":675,"x_min":110,"x_max":694,"o":"m 463 847 l 602 1060 q 640 1082 618 1082 q 675 1071 661 1082 q 694 1035 694 1055 q 684 1000 694 1015 l 522 804 q 498 792 513 792 q 473 800 484 792 q 457 824 457 811 q 463 847 457 838 m 229 847 l 369 1060 q 406 1082 385 1082 q 442 1071 427 1082 q 461 1035 461 1055 q 450 1000 461 1015 l 289 804 q 265 792 279 792 q 239 800 251 792 q 224 824 224 811 q 229 847 224 838 m 568 728 l 671 728 l 671 0 l 568 0 l 568 123 q 493 21 549 62 q 361 -20 437 -20 q 178 75 246 -20 q 110 361 110 170 l 110 728 l 212 728 l 212 361 q 307 96 212 157 q 395 73 342 73 q 490 114 448 73 q 568 361 568 190 l 568 728 z "},"Ų":{"ha":858,"x_min":82,"x_max":790,"o":"m 592 -129 l 563 -214 q 498 -175 512 -184 q 432 -111 442 -134 q 421 -72 421 -89 q 478 50 421 -4 l 566 12 q 528 -52 528 -37 q 549 -95 528 -77 q 572 -114 570 -112 q 592 -129 574 -115 m 681 987 l 790 987 l 790 437 q 696 101 790 222 q 436 -20 603 -20 q 216 58 303 -20 q 82 437 82 178 l 82 987 l 192 987 l 192 437 q 291 133 192 222 q 436 77 353 77 q 608 162 540 77 q 681 437 681 253 l 681 987 z "},"ų":{"ha":675,"x_min":69,"x_max":652,"o":"m 652 -129 l 623 -214 q 559 -175 572 -184 q 492 -111 503 -134 q 481 -72 481 -89 q 538 50 481 -4 l 626 12 q 589 -52 589 -37 q 609 -95 589 -77 q 632 -114 630 -112 q 652 -129 635 -115 m 527 728 l 630 728 l 630 0 l 527 0 l 527 123 q 452 21 508 62 q 320 -20 397 -20 q 137 75 205 -20 q 69 361 69 170 l 69 728 l 172 728 l 172 361 q 267 96 172 157 q 354 73 301 73 q 449 114 408 73 q 527 361 527 190 l 527 728 z "},"Ŵ":{"ha":1069,"x_min":57,"x_max":1028,"o":"m 770 1027 l 643 1027 l 537 1171 l 430 1028 l 304 1028 l 492 1260 l 581 1260 l 770 1027 m 57 987 l 165 987 l 290 123 l 476 962 l 608 962 l 794 123 l 920 987 l 1028 987 l 872 0 l 724 0 l 543 833 l 363 0 l 211 0 l 57 987 z "},"ŵ":{"ha":932,"x_min":46,"x_max":901,"o":"m 707 794 l 579 794 l 473 939 l 366 795 l 240 795 l 428 1027 l 517 1027 l 707 794 m 473 585 l 319 0 l 240 0 l 46 728 l 150 728 l 281 170 l 422 722 q 525 722 422 722 l 667 170 l 798 728 l 901 728 l 707 0 l 624 0 l 473 585 z "},"Ŷ":{"ha":800,"x_min":52,"x_max":762,"o":"m 634 1027 l 507 1027 l 401 1171 l 294 1028 l 168 1028 l 355 1260 l 444 1260 l 634 1027 m 52 987 l 165 987 l 407 581 l 648 987 l 762 987 l 460 507 l 460 0 l 353 0 l 353 507 l 52 987 z "},"ŷ":{"ha":675,"x_min":81,"x_max":642,"o":"m 595 791 l 467 791 l 361 935 l 254 792 l 128 792 l 316 1024 l 405 1024 l 595 791 m 642 -12 q 616 -135 642 -79 q 549 -228 591 -192 q 353 -304 461 -304 q 106 -186 208 -304 l 178 -129 q 353 -212 248 -212 q 477 -167 420 -212 q 539 -22 539 -117 l 539 123 q 465 21 520 62 q 332 -20 409 -20 q 150 75 218 -20 q 81 361 81 170 l 81 728 l 184 728 l 184 361 q 279 96 184 157 q 367 73 313 73 q 461 114 420 73 q 539 361 539 190 l 539 728 l 642 728 l 642 -12 z "},"Ÿ":{"ha":800,"x_min":52,"x_max":762,"o":"m 52 987 l 165 987 l 407 581 l 648 987 l 762 987 l 460 507 l 460 0 l 353 0 l 353 507 l 52 987 m 496 1143 q 515 1187 496 1168 q 559 1206 534 1206 q 600 1192 583 1206 q 624 1144 624 1173 q 605 1097 624 1116 q 562 1078 586 1078 q 520 1093 538 1078 q 499 1124 503 1107 q 496 1143 496 1141 m 304 1143 q 304 1129 304 1143 q 286 1096 304 1115 q 243 1077 267 1077 q 201 1092 219 1077 q 180 1120 184 1106 q 177 1151 177 1134 q 196 1186 177 1167 q 239 1205 215 1205 q 281 1191 264 1205 q 304 1143 304 1171 z "},"Ź":{"ha":899,"x_min":68,"x_max":844,"o":"m 419 1079 q 396 1073 411 1073 q 372 1086 382 1073 q 361 1113 361 1100 q 372 1137 361 1126 l 563 1306 q 591 1318 578 1318 q 614 1316 604 1318 q 635 1299 624 1313 q 646 1275 646 1284 q 626 1227 646 1245 l 419 1079 m 87 987 l 836 987 l 250 96 l 844 96 l 844 0 l 68 0 l 660 892 l 87 892 l 87 987 z "},"ź":{"ha":652,"x_min":61,"x_max":615,"o":"m 335 844 q 312 838 327 838 q 288 851 298 838 q 277 878 277 865 q 288 901 277 890 l 479 1071 q 507 1083 494 1083 q 530 1080 519 1083 q 551 1063 540 1078 q 562 1040 562 1049 q 542 992 562 1010 l 335 844 m 232 96 l 595 96 l 595 0 l 61 0 l 444 632 l 89 632 l 89 728 l 615 728 l 232 96 z "},"Ż":{"ha":899,"x_min":68,"x_max":844,"o":"m 527 1143 q 527 1129 527 1143 q 508 1096 527 1115 q 465 1077 489 1077 q 424 1092 441 1077 q 403 1120 406 1106 q 399 1151 399 1134 q 418 1186 399 1167 q 462 1205 437 1205 q 503 1191 486 1205 q 527 1143 527 1171 m 87 987 l 836 987 l 250 96 l 844 96 l 844 0 l 68 0 l 660 892 l 87 892 l 87 987 z "},"ż":{"ha":652,"x_min":61,"x_max":615,"o":"m 419 921 q 419 907 419 921 q 400 874 419 893 q 357 855 381 855 q 316 870 334 855 q 295 898 298 884 q 292 929 292 912 q 311 964 292 945 q 354 983 330 983 q 395 969 378 983 q 419 921 419 949 m 232 96 l 595 96 l 595 0 l 61 0 l 444 632 l 89 632 l 89 728 l 615 728 l 232 96 z "},"Ž":{"ha":899,"x_min":68,"x_max":844,"o":"m 710 1260 l 520 1027 l 431 1027 l 243 1259 l 370 1259 l 477 1116 l 583 1260 l 710 1260 m 87 987 l 836 987 l 250 96 l 844 96 l 844 0 l 68 0 l 660 892 l 87 892 l 87 987 z "},"ž":{"ha":652,"x_min":61,"x_max":615,"o":"m 583 1024 l 393 791 l 304 791 l 117 1023 l 243 1023 l 350 880 l 456 1024 l 583 1024 m 232 96 l 595 96 l 595 0 l 61 0 l 444 632 l 89 632 l 89 728 l 615 728 l 232 96 z "},"ſ":{"ha":486,"x_min":178,"x_max":490,"o":"m 178 728 l 178 819 q 248 955 178 899 q 360 1004 311 1004 q 435 990 409 1004 q 490 949 460 977 l 416 878 q 356 913 390 913 q 302 895 322 913 q 283 847 283 878 l 283 728 l 282 0 l 179 0 l 178 728 z "},"ƒ":{"ha":692,"x_min":-4,"x_max":629,"o":"m 629 987 l 627 884 q 578 917 609 901 l 515 930 q 454 904 488 930 q 408 847 420 878 l 365 728 l 497 728 l 464 636 l 331 636 l 99 0 l -4 0 l 228 636 l 134 636 l 167 728 l 260 728 l 294 819 q 407 989 332 918 q 523 1031 451 1031 q 629 987 595 1031 z "},"Ǣ":{"ha":1015,"x_min":62,"x_max":945,"o":"m 492 1165 l 902 1165 l 902 1074 l 492 1074 l 492 1165 m 539 438 l 360 438 l 185 0 l 62 0 l 465 989 l 945 989 l 945 887 l 646 887 l 646 535 l 945 535 l 945 435 l 646 435 l 646 100 l 945 100 l 945 0 l 539 0 l 539 438 m 538 840 l 538 890 l 401 535 l 539 535 l 538 840 z "},"ǣ":{"ha":1037,"x_min":64,"x_max":941,"o":"m 292 905 l 702 905 l 702 813 l 292 813 l 292 905 m 303 409 q 167 241 167 409 q 303 73 167 73 q 424 157 387 73 q 439 230 439 196 q 342 403 439 372 q 303 409 320 409 m 306 740 q 496 617 429 740 q 610 730 551 707 q 687 743 646 743 q 922 536 867 743 q 941 364 941 477 l 939 318 l 538 318 q 549 221 538 269 q 687 73 580 73 q 773 122 743 73 q 797 164 781 133 l 887 128 q 768 -5 833 22 q 687 -20 733 -20 q 536 50 594 -20 q 495 111 524 66 q 439 26 458 45 q 303 -20 393 -20 q 98 98 162 -20 q 64 241 64 161 q 156 448 64 372 q 303 500 219 500 q 428 450 387 500 q 442 429 431 446 l 441 470 q 306 648 441 648 q 180 595 233 648 l 128 665 q 219 726 186 712 q 306 740 252 740 m 836 410 q 687 650 816 650 q 551 507 585 650 q 538 410 538 458 l 836 410 z "},"Ș":{"ha":732,"x_min":31,"x_max":701,"o":"m 406 50 q 463 -67 463 -5 q 368 -186 463 -129 l 321 -214 l 292 -130 q 356 -61 356 -83 q 319 12 356 -40 l 406 50 m 31 222 l 146 243 q 224 130 160 184 q 374 77 288 77 q 529 125 461 77 q 597 252 597 174 q 378 472 597 385 q 332 490 360 479 q 284 509 304 501 q 244 528 264 517 q 195 554 223 538 q 148 591 167 571 q 113 636 130 610 q 77 770 77 688 q 160 948 77 882 q 362 1014 243 1014 q 564 956 482 1014 q 674 810 646 899 l 571 793 q 498 880 555 842 q 365 918 441 918 q 237 876 288 918 q 187 770 187 834 q 216 680 187 713 q 283 625 249 642 q 336 600 317 608 q 388 579 355 592 q 447 556 421 566 q 497 532 472 545 q 555 499 522 519 q 612 456 588 479 q 657 401 635 432 q 701 251 701 340 q 655 99 701 161 q 366 -20 566 -20 q 153 47 236 -20 q 31 222 70 113 z "},"ș":{"ha":625,"x_min":65,"x_max":570,"o":"m 355 50 q 412 -67 412 -5 q 316 -186 412 -129 l 270 -214 l 241 -130 q 304 -61 304 -83 q 267 12 304 -40 l 355 50 m 327 321 q 302 329 327 321 q 250 348 277 337 q 188 378 222 359 q 132 420 153 398 q 82 557 82 473 q 150 692 82 642 q 318 745 218 743 q 534 640 463 745 q 558 591 550 616 l 459 570 q 319 653 422 653 q 225 626 265 653 q 186 551 186 600 q 195 507 186 521 q 211 484 205 492 q 228 468 216 476 q 246 456 239 460 q 266 446 252 452 q 285 438 280 440 q 311 428 294 434 q 349 415 328 422 q 382 403 370 407 q 415 390 393 399 q 449 374 436 381 q 479 356 461 368 q 509 334 498 345 q 533 307 520 323 q 553 275 546 292 q 570 195 570 237 q 496 41 570 102 q 320 -20 423 -20 q 154 26 218 -20 q 65 147 91 71 l 165 166 q 220 96 185 121 q 321 72 256 72 q 426 104 387 72 q 465 195 465 137 q 415 281 465 249 q 327 321 377 304 z "},"Ț":{"ha":843,"x_min":60,"x_max":800,"o":"m 459 50 q 516 -67 516 -5 q 420 -186 516 -129 l 374 -214 l 345 -130 q 409 -61 409 -83 q 372 12 409 -40 l 459 50 m 60 987 l 800 987 l 800 892 l 490 892 l 490 0 l 383 0 l 383 892 l 60 892 l 60 987 z "},"ț":{"ha":472,"x_min":69,"x_max":401,"o":"m 303 50 q 360 -67 360 -5 q 264 -186 360 -129 l 218 -214 l 189 -130 q 253 -61 253 -83 q 216 12 253 -40 l 303 50 m 165 636 l 69 636 l 69 728 l 165 728 l 165 897 l 268 897 l 268 728 l 401 728 l 401 636 l 268 636 l 268 146 q 347 66 268 66 l 395 66 l 395 -20 l 347 -20 q 206 18 247 -20 q 165 143 165 56 l 165 636 z "},"Ȝ":{"ha":635,"x_min":33,"x_max":597,"o":"m 79 -54 q 289 44 146 -41 q 422 150 363 87 q 491 321 481 213 q 492 348 492 326 q 472 408 492 370 q 351 494 437 478 q 309 498 325 498 q 272 494 292 498 l 220 486 l 220 572 l 285 583 q 397 654 349 594 q 446 786 446 713 q 401 895 446 858 q 311 931 357 931 q 193 888 241 931 q 124 791 145 845 l 33 819 q 136 954 68 898 q 331 1028 224 1028 q 512 939 447 1028 q 551 818 551 884 q 529 700 551 753 q 478 613 506 646 q 429 566 450 579 q 485 545 471 550 q 530 507 499 540 q 579 429 562 473 q 597 365 597 384 q 596 340 597 345 q 496 94 555 159 q 313 -55 437 28 q 100 -152 189 -138 l 79 -54 z "},"ȝ":{"ha":635,"x_min":33,"x_max":598,"o":"m 466 -27 q 494 43 489 8 q 473 111 494 71 q 351 199 437 182 q 309 202 329 202 q 272 199 289 202 l 220 190 l 220 275 l 285 287 q 397 358 349 298 q 446 490 446 418 q 402 598 446 562 q 311 635 358 635 q 193 592 240 635 q 124 496 145 549 l 33 524 q 136 658 68 602 q 331 732 224 732 q 512 642 447 732 q 551 522 551 587 q 529 404 551 456 q 478 317 507 351 q 429 271 450 283 q 475 252 450 261 q 578 136 530 233 q 598 64 598 97 l 598 57 q 541 -81 593 -19 q 98 -302 404 -241 l 104 -189 q 466 -27 385 -153 z "},"ɐ":{"ha":673,"x_min":72,"x_max":602,"o":"m 334 325 q 369 325 334 325 q 450 372 403 325 q 498 487 498 418 q 449 602 498 556 q 331 648 401 648 q 214 601 262 648 q 166 485 166 554 q 216 371 166 416 q 334 325 266 325 m 349 233 q 227 270 278 233 q 167 340 175 306 l 167 275 q 210 126 167 180 q 332 73 254 73 q 420 87 378 73 q 486 125 462 101 l 538 54 q 334 -20 448 -20 q 146 58 220 -20 q 72 275 72 136 l 72 720 l 166 720 l 166 614 q 206 676 170 643 q 350 739 275 739 q 531 669 460 739 q 602 488 602 599 q 529 306 602 378 q 349 233 456 233 z "},"ɑ":{"ha":673,"x_min":61,"x_max":602,"o":"m 136 60 q 62 277 63 137 l 61 448 q 61 450 61 448 q 136 665 61 587 q 332 739 226 739 q 507 680 438 739 l 507 728 l 602 728 l 602 0 l 507 0 l 507 106 q 454 31 503 75 q 397 -4 432 11 q 324 -20 361 -20 q 136 60 216 -20 m 157 277 q 346 72 157 72 q 459 119 411 72 q 507 231 507 166 l 506 444 q 463 595 505 543 q 340 647 420 647 q 199 598 248 647 q 157 448 158 547 l 157 277 z "},"ɒ":{"ha":673,"x_min":61,"x_max":602,"o":"m 528 60 q 340 -20 447 -20 q 267 -4 302 -20 q 172 73 208 21 q 156 106 158 93 l 156 0 l 61 0 l 61 728 l 156 728 l 156 680 q 332 739 225 739 q 528 665 438 739 q 602 450 602 587 l 602 448 l 602 277 q 528 60 600 137 m 507 448 q 464 598 505 547 q 329 647 415 647 q 157 444 160 647 l 156 231 q 204 119 156 166 q 317 72 253 72 q 462 126 418 72 q 506 277 506 180 l 507 448 z "},"ɓ":{"ha":708,"x_min":89,"x_max":663,"o":"m 351 -20 q 163 60 243 -20 q 89 277 89 137 l 89 740 q 113 863 89 806 q 263 1012 157 968 q 370 1032 312 1032 q 480 1010 427 1032 q 621 879 574 970 q 646 802 641 840 l 549 802 q 486 901 540 861 q 366 940 433 940 q 245 890 299 940 q 192 750 192 841 l 192 603 q 250 694 219 665 q 393 747 310 747 q 623 581 552 747 q 663 362 663 488 q 600 98 663 206 q 516 12 570 44 q 395 -20 463 -20 l 351 -20 m 505 151 q 531 191 505 151 q 557 365 557 231 q 505 577 557 500 q 374 655 453 655 q 241 577 295 655 q 187 365 187 498 q 241 151 187 231 q 374 72 295 72 q 505 151 453 72 z "},"ɔ":{"ha":625,"x_min":68,"x_max":611,"o":"m 157 549 l 68 593 q 162 700 104 659 q 288 742 220 742 q 557 581 465 742 q 611 372 611 486 q 571 172 611 259 q 460 32 532 84 q 300 -20 389 -20 q 157 28 219 -20 q 68 127 101 73 l 151 179 q 244 84 185 112 q 300 72 271 72 q 448 152 388 72 q 507 359 507 232 q 446 568 507 487 q 298 650 385 650 q 211 616 252 650 q 157 549 170 582 z "},"ɕ":{"ha":625,"x_min":-51,"x_max":611,"o":"m 128 133 q 68 364 68 235 q 123 581 68 486 q 381 742 215 742 q 517 700 459 742 q 611 593 575 659 l 522 549 q 469 616 510 582 q 381 650 428 650 q 233 568 294 650 q 172 375 172 487 q 208 191 172 262 q 299 248 264 229 q 387 273 334 267 l 411 275 q 519 210 481 275 q 543 119 543 172 l 542 115 q 531 67 541 81 q 435 -12 490 10 q 380 -20 425 -18 l 373 -20 q 171 75 261 -20 q -3 -113 101 11 l -51 -47 q 128 133 69 84 m 247 134 q 380 72 303 72 q 435 84 409 72 q 452 133 452 121 l 452 134 q 425 178 450 168 q 378 188 399 188 l 336 180 q 247 134 290 163 z "},"ɖ":{"ha":887,"x_min":87,"x_max":869,"o":"m 507 577 q 480 616 507 577 q 374 655 453 655 q 243 578 294 655 q 191 366 191 501 q 243 151 191 231 q 374 72 295 72 q 507 151 453 72 q 561 365 561 231 q 507 577 561 498 m 557 1027 l 661 1027 l 661 -115 q 730 -199 661 -199 l 747 -197 l 762 -191 l 775 -183 l 786 -175 l 796 -165 l 869 -235 q 836 -264 844 -258 q 751 -290 799 -290 q 612 -228 681 -290 q 557 -94 557 -178 l 557 125 q 432 -8 513 21 q 351 -20 400 -20 q 255 2 301 -20 q 179 60 210 23 q 87 366 87 170 q 149 629 87 520 q 355 747 217 747 q 557 601 494 747 l 557 1027 z "},"ɗ":{"ha":879,"x_min":87,"x_max":869,"o":"m 507 577 q 480 616 507 577 q 374 655 453 655 q 243 578 294 655 q 191 366 191 501 q 243 151 191 231 q 374 72 295 72 q 507 151 453 72 q 561 365 561 231 q 507 577 561 498 m 869 971 l 796 902 l 786 911 l 775 920 l 762 928 l 747 933 l 730 935 q 661 852 661 935 l 661 0 l 557 0 l 557 125 q 432 -8 513 21 q 351 -20 400 -20 q 255 2 301 -20 q 179 60 210 23 q 87 366 87 170 q 149 629 87 520 q 355 747 217 747 q 557 601 494 747 l 557 831 q 612 964 557 915 q 751 1027 681 1027 q 839 998 799 1027 q 869 971 844 994 z "},"ɘ":{"ha":687,"x_min":66,"x_max":627,"o":"m 519 410 q 434 613 511 545 q 342 650 393 650 q 219 579 267 650 q 165 410 172 509 l 519 410 m 66 351 l 67 383 q 136 629 67 526 q 224 711 170 680 q 354 742 278 742 q 495 692 430 742 q 627 364 627 591 q 595 172 627 258 q 496 33 562 85 q 347 -20 431 -20 q 192 20 263 -20 q 86 127 121 60 l 176 165 q 245 98 198 124 q 343 72 292 72 q 434 109 395 72 q 519 318 509 178 l 66 318 l 66 351 z "},"ə":{"ha":687,"x_min":66,"x_max":627,"o":"m 519 313 l 165 313 q 219 143 172 214 q 342 73 267 73 q 434 109 393 73 q 519 313 511 178 m 67 339 l 66 372 l 66 404 l 519 404 q 434 614 509 545 q 344 650 395 650 q 245 624 293 650 q 176 557 197 597 l 86 595 q 192 702 121 663 q 348 742 263 742 q 497 690 432 742 q 594 551 562 639 q 627 356 627 464 q 594 164 627 249 q 495 30 560 80 q 353 -20 430 -20 q 136 94 211 -20 q 67 339 67 197 z "},"ɚ":{"ha":777,"x_min":66,"x_max":760,"o":"m 438 610 q 346 650 398 650 q 245 624 293 650 l 191 702 q 342 742 263 742 q 528 661 450 742 l 651 728 l 760 429 l 682 392 l 609 586 l 585 573 q 627 369 627 489 q 496 31 627 132 q 353 -20 430 -20 q 136 94 211 -20 q 67 339 67 197 l 66 372 l 66 404 l 438 610 m 494 524 l 165 346 l 165 313 q 219 143 172 214 q 342 73 267 73 q 434 109 393 73 q 496 201 474 145 q 519 306 517 257 q 521 370 521 355 q 494 524 521 452 z "},"ɛ":{"ha":687,"x_min":94,"x_max":593,"o":"m 593 132 q 495 22 564 63 q 358 -20 427 -20 q 170 45 247 -20 q 94 202 94 109 q 111 328 94 296 q 160 391 127 361 q 206 423 193 421 l 263 452 q 161 505 191 475 q 140 571 140 530 q 172 655 140 612 q 353 745 239 745 q 473 709 420 745 q 553 616 526 673 l 486 581 q 437 635 469 613 q 365 658 404 658 l 353 658 q 283 640 309 658 q 235 572 235 607 q 275 503 235 523 q 366 483 316 483 l 414 483 l 414 398 l 376 398 q 264 364 319 398 q 219 321 237 347 q 200 222 200 294 q 250 114 200 151 q 357 77 300 77 q 454 99 413 77 q 514 158 494 121 l 593 132 z "},"ɜ":{"ha":687,"x_min":94,"x_max":593,"o":"m 94 132 l 173 158 q 233 99 193 121 q 330 77 274 77 q 437 114 387 77 q 487 222 487 151 q 468 321 487 294 q 370 389 433 371 q 311 398 343 398 l 273 398 l 273 483 l 321 483 q 412 503 371 483 q 452 572 452 523 q 404 640 452 607 q 334 658 378 658 l 322 658 q 250 635 283 658 q 201 581 218 613 l 134 616 q 214 709 161 673 q 327 745 267 745 q 517 653 447 745 q 547 571 547 612 q 526 505 547 530 q 424 452 496 475 l 481 423 q 527 391 494 421 q 576 328 559 361 q 593 202 593 296 q 517 45 593 109 q 329 -20 440 -20 q 192 22 260 -20 q 94 132 123 63 z "},"ɝ":{"ha":732,"x_min":94,"x_max":715,"o":"m 334 745 q 503 669 437 745 l 606 728 l 715 429 l 637 392 l 564 586 l 547 576 q 526 505 547 530 q 424 452 496 475 l 481 423 q 527 391 494 421 q 576 328 559 361 q 593 202 593 296 q 517 45 593 109 q 329 -20 440 -20 q 192 22 260 -20 q 94 132 123 63 l 173 158 q 233 99 193 121 q 330 77 274 77 q 437 114 387 77 q 487 222 487 151 q 468 321 487 294 q 370 389 433 371 q 311 398 343 398 l 273 398 l 273 483 l 321 483 q 412 503 371 483 q 452 572 452 523 q 404 640 452 607 q 334 658 378 658 l 322 658 q 250 635 283 658 q 201 581 218 613 l 134 616 q 214 709 161 673 q 334 745 267 745 z "},"ɞ":{"ha":666,"x_min":68,"x_max":642,"o":"m 380 -20 l 376 -20 q 219 32 290 -20 q 108 172 148 84 q 68 364 68 259 q 123 581 68 486 q 274 722 182 684 q 382 745 330 745 q 565 653 495 745 q 595 570 595 612 q 576 509 595 528 q 472 452 545 475 l 529 423 q 575 391 543 421 q 625 328 608 361 q 642 202 642 296 q 565 45 642 109 q 380 -20 488 -20 m 498 589 q 381 650 443 650 q 233 568 294 650 q 172 359 172 487 q 232 152 172 232 q 311 85 267 104 q 379 77 337 77 q 465 101 422 77 q 535 212 535 153 q 517 321 535 294 q 418 389 481 371 q 359 398 391 398 l 321 398 l 321 483 l 370 483 q 460 503 419 483 q 500 572 500 523 q 498 589 500 581 z "},"ɟ":{"ha":357,"x_min":-81,"x_max":345,"o":"m -81 -235 l -8 -165 l 2 -175 l 13 -183 l 26 -191 l 41 -197 l 58 -199 q 127 -115 127 -199 l 127 0 l 12 0 l 12 96 l 127 96 l 127 728 l 231 728 l 231 96 l 345 96 l 345 0 l 231 0 l 231 -94 q 176 -228 231 -178 q 37 -290 107 -290 q -51 -262 -11 -290 q -81 -235 -56 -258 z "},"ɠ":{"ha":883,"x_min":78,"x_max":860,"o":"m 234 577 q 208 539 234 577 q 182 365 182 500 q 234 151 182 231 q 365 72 286 72 q 498 151 444 72 q 552 365 552 231 q 498 577 552 498 q 365 655 444 655 q 234 577 286 655 m 652 -12 q 566 -228 652 -146 q 376 -304 485 -304 q 261 -282 315 -304 q 119 -151 166 -241 q 94 -74 100 -113 l 191 -74 q 254 -172 200 -132 q 375 -212 309 -212 q 495 -163 441 -212 q 549 -22 549 -113 l 549 125 q 347 -20 487 -20 q 118 146 190 -20 q 78 366 78 239 q 140 629 78 520 q 346 747 208 747 q 549 601 486 747 l 549 831 q 603 964 549 915 q 742 1027 671 1027 q 830 998 789 1027 q 860 971 836 994 l 787 902 l 777 911 l 766 920 l 754 928 l 739 933 l 721 935 q 652 852 652 935 l 652 -12 z "},"ɡ":{"ha":692,"x_min":78,"x_max":652,"o":"m 652 -12 q 566 -228 652 -146 q 376 -304 485 -304 q 261 -282 315 -304 q 119 -151 166 -241 q 94 -74 100 -113 l 191 -74 q 254 -172 200 -132 q 375 -212 309 -212 q 495 -163 441 -212 q 549 -22 549 -113 l 549 125 q 347 -20 487 -20 q 118 146 190 -20 q 78 366 78 239 q 140 629 78 520 q 346 747 208 747 q 549 601 486 747 l 549 728 l 652 728 l 652 -12 m 234 577 q 208 539 234 577 q 182 365 182 500 q 234 151 182 231 q 365 72 286 72 q 498 151 444 72 q 552 365 552 231 q 498 577 552 498 q 365 655 444 655 q 234 577 286 655 z "},"ɢ":{"ha":667,"x_min":50,"x_max":610,"o":"m 349 -14 l 347 -14 q 218 18 276 -14 q 69 221 110 78 q 50 353 50 290 q 96 568 50 473 q 239 717 149 675 q 357 740 288 740 q 563 624 488 740 l 494 565 q 434 625 466 604 q 349 645 401 645 q 186 541 245 645 q 146 443 160 497 q 132 347 132 388 q 146 252 132 307 q 250 89 179 129 q 329 68 288 68 q 450 102 431 68 q 491 171 479 130 q 513 275 513 243 l 338 275 l 338 377 l 610 377 l 610 302 q 590 174 610 228 q 550 91 570 119 q 501 38 530 62 q 349 -14 440 -14 z "},"ɣ":{"ha":678,"x_min":56,"x_max":656,"o":"m 407 5 q 486 -174 486 -155 l 486 -181 q 367 -348 481 -348 l 363 -348 q 358 -347 361 -347 l 350 -347 q 334 -344 340 -347 q 323 -340 327 -342 q 281 -314 293 -332 q 253 -262 262 -288 q 243 -192 243 -237 l 246 -162 l 246 -161 q 302 0 247 -139 l 56 728 l 164 728 l 354 132 l 549 728 l 656 728 l 407 5 m 406 -181 l 406 -182 l 406 -181 m 405 -181 l 405 -179 q 363 -96 399 -156 l 326 -182 l 325 -192 q 342 -258 325 -243 q 365 -267 349 -264 l 367 -267 q 395 -246 387 -267 q 405 -181 404 -226 z "},"ɤ":{"ha":446,"x_min":22,"x_max":404,"o":"m 221 81 q 261 162 261 81 q 219 251 261 172 q 181 156 181 163 q 189 103 181 123 q 221 81 197 83 m 224 -1 l 214 0 q 112 76 138 5 q 100 156 100 109 l 102 186 q 157 344 103 210 l 22 741 l 98 741 l 212 385 l 329 741 l 404 741 l 267 343 q 337 195 332 214 q 341 143 342 177 q 327 72 340 109 q 224 -1 298 -1 z "},"ɥ":{"ha":722,"x_min":87,"x_max":648,"o":"m 545 747 l 648 747 l 648 -240 l 545 -240 l 545 142 q 471 41 526 81 q 349 0 416 0 q 106 209 158 0 q 87 380 87 282 l 87 747 l 190 747 l 190 380 q 285 115 190 177 q 366 93 319 93 q 448 117 412 93 q 534 271 513 161 q 545 381 545 325 l 545 747 z "},"ɦ":{"ha":722,"x_min":85,"x_max":648,"o":"m 191 0 l 87 0 l 85 728 l 85 740 q 172 956 85 874 q 258 1011 208 990 q 367 1032 309 1032 q 476 1010 425 1032 q 618 879 570 970 q 643 802 637 840 l 546 802 q 483 901 536 861 q 363 940 429 940 q 248 895 296 940 q 191 784 199 850 l 191 605 q 265 707 210 667 q 387 747 319 747 q 629 538 576 747 q 648 367 648 463 l 648 0 l 546 0 l 546 367 q 451 632 546 570 q 370 654 416 654 q 233 568 279 654 q 191 366 191 487 l 191 0 z "},"ɧ":{"ha":722,"x_min":85,"x_max":648,"o":"m 191 0 l 87 0 l 85 728 l 85 740 q 172 956 85 874 q 258 1011 208 990 q 367 1032 309 1032 q 476 1010 425 1032 q 618 879 570 970 q 643 802 637 840 l 546 802 q 483 901 536 861 q 363 940 429 940 q 248 895 296 940 q 191 784 199 850 l 191 605 q 265 707 210 667 q 387 747 319 747 q 629 538 576 747 q 648 367 648 463 l 648 -94 q 632 -172 648 -136 q 544 -263 606 -231 q 367 -260 442 -317 q 337 -234 359 -254 l 410 -165 l 431 -183 l 444 -191 l 458 -196 l 476 -198 q 545 -115 545 -198 l 545 367 l 546 367 q 451 632 546 570 q 370 654 416 654 q 233 568 279 654 q 191 366 191 487 l 191 0 z "},"ɨ":{"ha":292,"x_min":0,"x_max":292,"o":"m 82 904 q 101 949 82 930 q 144 968 120 968 q 186 954 168 968 q 210 906 210 934 q 191 859 210 878 q 148 840 172 840 q 106 854 123 840 q 85 885 89 869 q 82 904 82 902 m 95 728 l 197 728 l 197 483 l 292 483 l 292 387 l 197 387 l 197 0 l 95 0 l 95 387 l 0 387 l 0 483 l 95 483 l 95 728 z "},"ɩ":{"ha":423,"x_min":35,"x_max":406,"o":"m 92 695 l 35 695 l 35 791 l 197 791 l 197 175 q 267 92 197 92 l 285 94 l 300 99 l 312 107 l 323 115 l 333 125 l 406 56 q 373 26 381 33 q 288 0 336 0 q 212 19 250 0 q 92 196 92 81 l 92 695 z "},"ɪ":{"ha":301,"x_min":41,"x_max":271,"o":"m 211 632 l 211 96 l 271 96 l 271 0 l 41 0 l 41 96 l 104 96 l 104 632 l 41 632 l 41 728 l 271 728 l 271 632 l 211 632 z "},"ɫ":{"ha":472,"x_min":5,"x_max":437,"o":"m 165 897 l 268 897 l 268 498 l 270 496 l 309 486 q 396 521 353 486 l 437 552 l 437 454 q 391 417 403 428 q 321 387 355 387 q 268 396 287 387 l 268 146 q 347 66 268 66 l 395 66 l 395 -20 l 347 -20 q 206 18 246 -20 q 165 143 165 56 l 165 475 l 160 479 l 127 490 q 42 454 82 490 q 5 424 33 446 l 5 523 q 42 553 27 540 q 129 588 81 588 q 165 578 147 588 l 165 897 z "},"ɬ":{"ha":502,"x_min":-114,"x_max":479,"o":"m 188 448 q 431 690 287 517 l 479 625 q 294 438 340 472 q 188 366 247 405 l 188 140 q 269 69 188 69 l 269 -20 q 148 5 192 -20 q 85 138 85 41 l 85 313 q 18 303 49 303 q -92 367 -54 303 q -114 458 -114 404 l -114 463 q -103 510 -114 473 q 85 686 -62 654 l 85 986 l 188 986 l 188 448 m 85 595 q -24 437 -12 567 q 1 400 -24 410 q 51 390 27 390 l 85 395 l 85 595 z "},"ɭ":{"ha":526,"x_min":178,"x_max":490,"o":"m 179 987 l 282 987 l 283 -119 q 302 -168 283 -150 q 345 -185 322 -185 q 396 -173 384 -185 q 416 -150 408 -161 l 490 -221 q 434 -264 458 -251 q 377 -277 410 -277 q 248 -227 310 -277 q 178 -92 178 -172 l 179 987 z "},"ɮ":{"ha":770,"x_min":75,"x_max":746,"o":"m 188 140 q 269 69 188 69 l 269 -20 q 148 5 192 -20 q 85 138 85 41 l 85 986 l 188 986 l 188 140 m 345 247 l 575 633 l 220 633 l 220 728 l 746 728 l 495 306 q 536 287 519 298 q 578 264 553 276 q 635 214 603 253 q 701 39 701 134 q 605 -181 701 -94 q 369 -269 510 -269 q 198 -217 284 -269 q 75 -78 113 -166 l 180 -46 q 259 -137 205 -101 q 369 -172 313 -172 q 529 -114 465 -172 q 594 39 594 -56 q 524 194 594 138 q 452 233 490 220 l 345 247 z "},"ɯ":{"ha":1040,"x_min":87,"x_max":968,"o":"m 476 747 l 579 747 l 579 376 q 617 151 579 218 q 717 93 650 93 q 865 374 865 93 l 865 747 l 968 747 l 968 20 l 865 20 l 865 143 q 842 98 849 111 q 793 35 816 52 q 678 0 747 0 q 558 46 609 0 q 490 164 508 93 q 421 47 472 94 q 296 0 370 0 q 138 81 189 0 q 87 304 87 163 l 87 747 l 190 747 l 190 379 q 197 250 190 296 q 214 181 204 203 q 237 138 223 159 q 326 98 266 98 q 476 375 476 98 l 476 747 z "},"ɰ":{"ha":1040,"x_min":87,"x_max":968,"o":"m 476 747 l 579 747 l 579 376 q 617 151 579 218 q 717 93 650 93 q 865 374 865 93 l 865 747 l 968 747 l 968 -258 l 865 -258 l 865 143 q 842 98 849 111 q 793 35 816 52 q 678 0 747 0 q 558 46 609 0 q 490 164 508 93 q 421 47 472 94 q 296 0 370 0 q 138 81 189 0 q 87 304 87 163 l 87 747 l 190 747 l 190 379 q 197 250 190 296 q 214 181 204 203 q 237 138 223 159 q 326 98 266 98 q 476 375 476 98 l 476 747 z "},"ɱ":{"ha":1040,"x_min":87,"x_max":968,"o":"m 579 0 l 476 0 l 476 371 q 438 597 476 530 q 338 654 406 654 q 191 373 191 654 l 191 0 l 87 0 l 87 728 l 191 728 l 191 604 q 203 629 195 614 q 215 653 210 643 q 237 684 220 663 q 269 718 253 706 q 377 747 308 747 q 497 701 446 747 q 566 583 547 654 q 634 701 583 654 q 759 747 685 747 q 917 666 866 747 q 968 443 968 585 l 968 -94 q 913 -228 968 -178 q 774 -290 846 -290 q 686 -262 727 -290 q 656 -235 681 -258 l 729 -165 l 739 -175 l 750 -183 l 762 -191 l 777 -197 l 795 -199 q 865 -115 865 -199 l 865 0 l 865 368 q 858 498 865 452 q 842 566 851 544 q 818 609 832 589 q 730 650 789 650 q 579 372 579 650 l 579 0 z "},"ɲ":{"ha":770,"x_min":12,"x_max":744,"o":"m 184 0 l 183 0 l 183 728 l 286 728 l 286 605 q 361 707 306 666 q 483 747 416 747 q 726 538 673 747 q 744 367 744 465 l 744 0 l 642 0 l 642 367 q 547 632 642 570 q 465 654 512 654 q 297 477 334 654 q 286 366 286 422 l 286 0 l 288 -1 l 288 -7 q 263 -136 288 -46 q 203 -227 250 -183 q 15 -305 120 -305 l 12 -305 q 15 -214 13 -298 q 134 -164 84 -214 q 184 -23 184 -114 l 184 0 z "},"ɳ":{"ha":823,"x_min":73,"x_max":807,"o":"m 634 45 l 635 45 l 635 -22 q 685 -164 635 -114 q 804 -214 734 -214 q 807 -304 806 -298 l 804 -304 q 618 -228 701 -304 q 555 -136 569 -182 q 532 -6 532 -48 l 532 367 q 437 632 532 570 q 355 654 402 654 q 186 477 223 654 q 176 366 176 426 l 176 0 l 73 0 l 73 728 l 176 728 l 176 605 q 251 707 196 667 q 372 747 305 747 q 615 538 562 747 q 634 367 634 463 l 634 45 z "},"ɴ":{"ha":693,"x_min":71,"x_max":635,"o":"m 71 0 l 71 721 l 163 721 l 530 146 l 530 721 l 635 721 l 635 0 l 535 0 l 165 589 l 165 0 l 71 0 z "},"ɵ":{"ha":687,"x_min":66,"x_max":636,"o":"m 260 109 q 351 72 300 72 q 443 109 403 72 q 528 312 519 178 l 530 318 l 174 318 q 260 109 184 178 m 174 410 l 528 410 q 475 579 522 509 q 351 650 427 650 q 260 613 300 650 q 174 410 183 544 m 198 692 q 351 742 264 742 q 504 692 439 742 q 636 364 636 591 q 505 33 636 138 q 351 -20 439 -20 q 197 33 264 -20 q 66 364 66 138 q 198 692 66 591 z "},"ɶ":{"ha":1008,"x_min":69,"x_max":948,"o":"m 458 98 q 387 365 387 202 q 456 626 387 527 q 359 650 420 650 q 255 610 298 650 q 174 364 174 536 q 278 95 174 159 q 366 72 315 72 q 458 98 412 72 m 947 383 l 948 351 l 948 318 l 495 318 q 581 109 505 178 q 671 72 620 72 q 769 98 722 72 q 838 165 817 124 l 928 127 q 822 20 893 60 q 670 -20 751 -20 q 524 28 588 -20 q 365 -20 457 -20 q 203 33 272 -20 q 69 364 69 135 q 144 633 69 529 q 366 742 221 742 q 522 694 456 742 q 661 742 586 742 q 879 629 804 742 q 947 383 947 526 m 495 410 l 849 410 q 795 579 843 509 q 672 650 748 650 q 581 613 621 650 q 495 410 504 545 z "},"ɷ":{"ha":819,"x_min":37,"x_max":789,"o":"m 413 150 q 366 69 397 104 q 231 0 302 0 q 71 172 136 0 q 37 367 37 260 q 71 559 37 475 q 170 693 104 644 q 322 743 235 743 l 504 743 q 656 693 591 743 q 789 366 789 592 q 756 172 789 258 q 595 0 691 0 q 525 18 558 0 q 431 112 469 47 q 413 150 419 132 m 592 110 q 681 319 671 177 l 681 411 q 596 614 672 545 q 504 651 555 651 l 322 651 q 231 614 271 651 q 145 411 154 546 l 145 319 q 234 110 155 177 q 294 126 272 110 q 365 233 339 155 q 371 282 371 257 l 371 483 l 456 483 l 456 282 q 462 233 456 257 q 532 126 488 154 q 592 110 554 110 z "},"ɸ":{"ha":901,"x_min":68,"x_max":833,"o":"m 381 663 q 246 598 304 656 q 171 381 171 519 q 262 152 171 243 q 381 73 316 98 l 381 663 m 647 592 q 501 663 595 643 l 501 68 q 646 153 572 83 q 736 373 736 244 l 736 376 q 647 592 736 503 m 224 987 l 669 987 l 669 891 l 503 891 l 503 743 q 677 673 615 729 q 760 590 726 637 q 833 363 827 517 l 833 349 q 731 103 833 203 q 503 -11 630 3 l 503 -172 l 669 -172 l 669 -269 l 224 -269 l 224 -172 l 381 -172 l 381 -7 q 180 98 266 12 q 69 369 69 209 l 68 370 q 180 642 68 529 q 381 745 269 730 l 381 891 l 224 891 l 224 987 z "},"ɹ":{"ha":465,"x_min":87,"x_max":500,"o":"m 87 24 l 142 113 q 226 93 175 93 q 319 133 277 93 q 397 381 397 209 l 397 747 l 500 747 l 500 20 l 397 20 l 397 142 q 321 40 377 81 q 200 0 266 0 q 87 24 134 0 z "},"ɺ":{"ha":533,"x_min":87,"x_max":500,"o":"m 87 24 l 142 113 q 226 93 175 93 q 319 133 277 93 q 397 381 397 209 l 397 1027 l 500 1027 l 500 20 l 397 20 l 397 142 q 321 40 377 81 q 200 0 266 0 q 87 24 134 0 z "},"ɻ":{"ha":734,"x_min":87,"x_max":709,"o":"m 87 24 l 142 113 q 226 93 175 93 q 317 132 277 93 q 377 232 357 171 q 397 381 397 292 l 397 742 l 500 742 l 500 -115 q 570 -198 500 -198 l 587 -196 l 602 -191 l 615 -183 l 636 -165 l 709 -234 q 676 -262 687 -254 q 591 -290 640 -290 q 514 -270 552 -290 q 452 -229 475 -250 q 413 -172 429 -208 q 397 -94 397 -136 l 397 142 q 321 40 377 81 q 200 0 266 0 q 87 24 134 0 z "},"ɼ":{"ha":533,"x_min":87,"x_max":500,"o":"m 500 723 l 446 634 q 361 654 412 654 q 269 614 311 654 q 191 366 191 538 l 191 -258 l 87 -258 l 87 728 l 191 728 l 191 605 q 266 707 210 667 q 387 747 321 747 q 500 723 453 747 z "},"ɽ":{"ha":533,"x_min":87,"x_max":500,"o":"m 500 724 l 446 635 q 361 655 412 655 q 269 615 311 655 q 209 513 228 575 q 191 367 191 452 l 191 -115 q 260 -199 191 -199 l 278 -197 l 293 -191 l 305 -183 l 316 -175 l 326 -165 l 399 -235 q 366 -264 374 -258 q 281 -290 329 -290 q 205 -271 243 -290 q 87 -94 87 -211 l 87 728 l 191 728 l 191 606 q 266 707 210 667 q 388 748 322 748 q 500 724 453 748 z "},"ɾ":{"ha":423,"x_min":10,"x_max":406,"o":"m 92 96 l 92 595 q 109 673 92 638 q 249 785 149 757 q 294 791 271 791 q 376 762 337 791 q 406 736 384 756 l 333 667 l 312 685 l 300 692 l 285 698 l 267 700 q 197 616 197 700 l 197 96 l 279 96 l 279 0 l 10 0 l 10 96 l 92 96 z "},"ɿ":{"ha":423,"x_min":10,"x_max":406,"o":"m 324 96 l 406 96 l 406 0 l 137 0 l 137 96 l 218 96 l 218 616 q 149 700 218 700 l 132 698 l 117 692 l 104 685 l 83 667 l 10 736 q 43 764 32 756 q 128 791 79 791 q 205 771 167 791 q 266 730 243 751 q 306 673 289 709 q 323 595 323 637 l 324 96 z "},"ʀ":{"ha":624,"x_min":66,"x_max":574,"o":"m 232 383 q 422 519 422 383 q 377 616 422 581 q 232 651 332 651 l 165 651 l 165 383 l 232 383 m 454 0 l 241 313 l 165 313 l 165 0 l 66 0 l 66 721 l 267 721 q 463 667 387 721 q 539 519 539 614 q 491 391 539 446 q 359 321 442 336 l 574 0 l 454 0 z "},"ʁ":{"ha":624,"x_min":66,"x_max":574,"o":"m 422 203 q 232 338 422 338 l 165 338 l 165 70 l 232 70 q 377 105 331 70 q 422 203 422 141 m 454 721 l 574 721 l 359 400 q 491 330 443 385 q 539 203 539 276 q 463 54 539 108 q 267 0 387 0 l 66 0 l 66 721 l 165 721 l 165 409 l 241 409 l 454 721 z "},"ʂ":{"ha":625,"x_min":65,"x_max":570,"o":"m 452 243 q 313 326 422 291 q 132 420 184 366 q 82 557 82 472 q 150 693 82 642 q 318 745 218 744 q 534 640 463 745 q 558 591 550 616 l 459 570 q 319 653 422 653 q 225 627 264 653 q 186 551 186 600 q 254 452 186 489 q 291 436 273 441 q 314 428 308 431 q 324 423 321 425 q 349 415 334 421 l 415 390 l 449 374 l 479 356 l 509 334 l 533 307 l 553 275 l 565 239 l 570 195 q 497 41 570 102 q 327 -20 424 -20 q 171 15 231 -20 l 171 -115 q 240 -199 171 -199 l 258 -197 l 273 -191 l 286 -183 l 296 -175 l 307 -165 l 379 -235 q 346 -264 355 -258 q 261 -290 309 -290 q 122 -228 191 -290 q 68 -94 68 -178 l 68 140 l 65 147 l 165 166 q 221 96 185 121 q 321 72 256 72 q 426 104 387 72 q 465 195 465 137 q 452 243 465 222 z "},"ʃ":{"ha":526,"x_min":-28,"x_max":490,"o":"m 178 819 q 248 955 178 899 q 360 1004 311 1004 q 435 990 409 1004 q 490 949 460 977 l 416 878 q 356 913 390 913 q 302 895 322 913 q 283 847 283 878 l 283 -92 q 263 -168 283 -132 q 151 -263 227 -233 q 85 -277 118 -277 q 27 -263 52 -277 q -28 -221 2 -250 l 45 -150 q 79 -179 63 -174 q 118 -185 95 -185 q 160 -168 140 -185 q 179 -119 179 -151 l 178 819 z "},"ʄ":{"ha":357,"x_min":-81,"x_max":345,"o":"m -81 -235 l -8 -165 l 2 -175 l 13 -183 l 26 -191 l 41 -197 l 58 -199 q 127 -115 127 -199 l 127 0 l 12 0 l 12 96 l 127 96 l 127 728 q 110 769 110 744 q 142 844 110 817 q 220 901 184 880 l 252 920 l 281 836 l 262 821 q 217 765 217 787 q 224 744 217 760 q 231 728 231 728 l 231 96 l 345 96 l 345 0 l 231 0 l 231 -94 q 176 -228 231 -178 q 37 -290 107 -290 q -51 -262 -11 -290 q -81 -235 -56 -258 z "},"ʅ":{"ha":526,"x_min":-28,"x_max":490,"o":"m 283 545 l 283 -119 q 302 -168 283 -150 q 345 -185 322 -185 q 396 -173 384 -185 q 416 -150 408 -161 l 490 -221 q 434 -264 458 -251 q 377 -277 410 -277 q 248 -227 310 -277 q 178 -92 178 -172 l 179 573 q 160 622 179 604 q 118 639 140 639 q 67 627 80 639 q 45 604 54 614 l -28 675 q 27 716 1 702 q 86 730 54 730 q 152 717 119 730 q 214 681 184 704 q 263 622 243 658 q 283 545 283 586 z "},"ʆ":{"ha":526,"x_min":-115,"x_max":490,"o":"m 283 104 l 319 105 q 475 101 384 105 l 486 20 q 283 31 359 31 l 283 -92 q 263 -168 283 -132 q 151 -263 227 -233 q 85 -277 118 -277 q 11 -254 52 -277 q -115 -88 -115 -186 q -106 -38 -115 -66 q -59 20 -98 -10 q 26 64 -20 50 q 179 96 73 78 l 178 819 q 248 955 178 899 q 360 1004 311 1004 q 435 990 409 1004 q 490 949 460 977 l 416 878 q 356 913 390 913 q 302 895 322 913 q 283 847 283 878 l 283 104 m 50 -172 q 81 -180 66 -174 q 118 -185 95 -185 q 160 -168 140 -185 q 179 -119 179 -151 l 179 25 q 39 -12 99 15 q -22 -77 -2 -33 q -28 -103 -28 -88 q -9 -127 -28 -118 l 50 -172 z "},"ʇ":{"ha":472,"x_min":69,"x_max":401,"o":"m 305 261 l 401 261 l 401 170 l 305 170 l 305 0 l 203 0 l 203 170 l 69 170 l 69 261 l 203 261 l 203 751 q 123 831 203 831 l 76 831 l 76 917 l 123 917 q 264 879 223 917 q 305 754 305 841 l 305 261 z "},"ʈ":{"ha":472,"x_min":69,"x_max":465,"o":"m 165 636 l 69 636 l 69 728 l 165 728 l 165 897 l 268 897 l 268 728 l 401 728 l 401 636 l 268 636 l 268 -103 q 347 -182 268 -182 l 465 -182 l 465 -269 l 347 -269 q 206 -231 248 -269 q 165 -106 165 -193 l 165 636 z "},"ʉ":{"ha":722,"x_min":34,"x_max":694,"o":"m 538 728 l 642 728 l 642 483 l 694 483 l 694 387 l 642 387 l 642 0 l 538 0 l 538 123 q 464 21 519 62 q 342 -20 408 -20 q 152 71 219 -20 q 80 361 80 168 l 80 387 l 34 387 l 34 483 l 80 483 l 80 728 l 182 728 l 182 483 l 538 483 l 538 728 m 538 387 l 182 387 l 182 361 q 278 96 182 158 q 359 73 313 73 q 496 160 450 73 q 538 361 538 240 l 538 387 z "},"ʊ":{"ha":715,"x_min":34,"x_max":681,"o":"m 61 364 q 144 644 61 533 l 34 644 l 34 741 l 293 741 l 293 644 q 165 364 165 576 q 210 159 165 239 q 358 72 258 72 q 505 159 457 72 q 549 364 549 239 q 528 515 549 444 q 468 610 507 587 l 422 638 l 422 734 l 681 734 l 681 638 l 574 638 q 654 364 654 538 q 521 33 654 134 q 358 -20 452 -20 q 195 33 264 -20 q 61 364 61 135 z "},"ʋ":{"ha":688,"x_min":21,"x_max":644,"o":"m 358 -19 l 342 -18 q 243 4 301 -18 q 80 361 80 66 l 80 689 l 77 695 l 21 695 l 21 791 l 183 791 l 183 695 l 182 694 l 182 361 q 278 96 182 158 q 359 75 312 75 q 448 111 406 75 q 536 319 526 177 l 536 411 q 450 614 527 546 q 358 651 410 651 l 358 743 q 511 693 446 743 q 644 366 644 591 q 611 173 644 260 q 512 34 578 86 q 358 -19 446 -19 z "},"ʌ":{"ha":694,"x_min":56,"x_max":656,"o":"m 302 728 l 406 728 l 656 0 l 549 0 l 354 595 l 164 0 l 56 0 l 302 728 z "},"ʍ":{"ha":932,"x_min":46,"x_max":901,"o":"m 473 143 l 624 728 l 707 728 l 901 0 l 798 0 l 667 558 l 525 5 l 422 5 l 281 558 l 150 0 l 46 0 l 240 728 l 319 728 l 473 143 z "},"ʎ":{"ha":694,"x_min":56,"x_max":656,"o":"m 407 628 l 409 628 l 656 -100 l 547 -100 l 357 496 l 163 -100 l 56 -100 l 441 1027 l 549 1027 l 407 628 z "},"ʏ":{"ha":705,"x_min":60,"x_max":644,"o":"m 60 728 l 159 728 l 353 321 l 545 728 l 644 728 l 401 248 l 401 0 l 301 0 l 301 248 l 60 728 z "},"ʐ":{"ha":831,"x_min":61,"x_max":803,"o":"m 803 -235 q 770 -264 779 -258 q 685 -290 733 -290 q 610 -271 647 -290 q 492 -94 492 -211 l 492 0 l 61 0 l 444 632 l 89 632 l 89 728 l 615 728 l 232 96 l 595 96 l 595 -115 q 664 -199 595 -199 l 682 -197 l 697 -191 l 709 -183 l 720 -175 l 730 -165 l 803 -235 z "},"ʑ":{"ha":755,"x_min":61,"x_max":739,"o":"m 282 0 q 195 -100 247 -38 l 146 -35 l 178 0 l 61 0 l 444 632 l 89 632 l 89 728 l 615 728 l 232 96 l 271 96 q 341 157 315 138 q 489 256 446 233 q 592 286 545 286 q 667 271 638 286 q 718 221 696 256 q 739 132 739 186 l 739 127 q 728 79 739 105 q 633 0 696 0 l 282 0 m 378 96 l 636 96 q 659 142 658 96 l 659 144 q 629 188 659 176 q 574 199 598 199 l 534 193 q 379 96 455 163 l 378 96 z "},"ʒ":{"ha":1158,"x_min":475,"x_max":1147,"o":"m 745 247 l 976 633 l 621 633 l 621 728 l 1147 728 l 896 306 q 937 287 920 298 q 979 264 954 276 q 1035 214 1003 253 q 1101 39 1101 134 q 1006 -181 1101 -94 q 770 -269 911 -269 q 599 -217 685 -269 q 475 -78 513 -166 l 581 -46 q 660 -137 606 -101 q 770 -172 713 -172 q 930 -114 865 -172 q 995 39 995 -56 q 924 194 995 138 q 853 233 889 221 l 745 247 z "},"ʓ":{"ha":675,"x_min":24,"x_max":624,"o":"m 222 247 l 453 633 l 98 633 l 98 728 l 624 728 l 373 306 q 414 287 397 298 q 456 264 431 276 q 513 214 481 253 q 578 31 578 134 q 512 -151 578 -73 q 618 -263 557 -197 l 569 -328 q 458 -202 511 -258 q 255 -269 369 -269 q 76 -217 142 -269 q 37 -152 49 -194 q 24 -101 24 -109 l 24 -96 q 105 48 24 9 q 144 58 125 58 q 274 29 218 58 q 377 -36 329 -1 q 429 -76 425 -72 q 437 -81 434 -79 q 472 28 472 -32 q 401 194 472 138 q 330 233 368 220 l 222 247 m 137 -137 q 258 -172 191 -172 q 385 -132 326 -172 q 230 -35 307 -64 q 188 -28 208 -28 q 141 -38 167 -28 q 115 -82 116 -47 l 115 -83 q 137 -137 115 -100 z "},"ʔ":{"ha":668,"x_min":39,"x_max":632,"o":"m 389 340 l 389 0 l 282 0 l 282 342 q 300 432 282 400 q 367 517 328 486 l 439 578 l 467 602 l 479 614 l 500 642 l 509 656 l 515 674 l 521 694 l 524 716 l 525 742 q 473 873 525 827 q 336 920 422 920 q 233 889 280 920 q 162 817 186 859 q 138 736 138 774 l 39 753 q 134 940 52 865 q 332 1015 217 1015 q 538 949 451 1015 q 606 863 581 917 q 632 745 632 810 q 498 500 632 601 l 456 469 l 422 438 l 397 396 l 389 340 z "},"ʕ":{"ha":668,"x_min":39,"x_max":632,"o":"m 282 340 l 274 396 l 248 438 l 215 469 l 174 500 q 119 548 146 521 q 65 627 92 575 q 39 745 39 679 q 132 949 39 877 q 337 1015 220 1015 q 536 940 454 1015 q 632 753 618 865 l 533 736 q 509 816 533 774 q 437 889 484 858 q 334 920 390 920 q 197 873 249 920 q 146 742 146 827 l 147 716 l 151 694 l 156 674 l 163 656 l 171 642 l 181 628 l 193 614 l 218 590 l 304 517 q 389 342 389 448 l 389 0 l 282 0 l 282 340 z "},"ʖ":{"ha":668,"x_min":39,"x_max":632,"o":"m 389 675 l 397 618 l 422 577 l 456 547 l 498 514 q 632 271 632 414 q 606 152 632 205 q 443 17 560 56 q 332 0 391 0 q 135 76 218 0 q 39 262 52 151 l 138 279 q 162 198 138 240 q 233 126 186 157 q 336 96 280 96 q 473 142 420 96 q 525 273 525 189 l 524 299 l 521 321 l 515 341 l 509 358 l 500 374 l 490 388 l 467 413 l 404 468 l 367 498 q 311 560 326 533 q 282 673 282 615 l 282 1015 l 389 1015 l 389 675 z "},"ʗ":{"ha":642,"x_min":68,"x_max":611,"o":"m 69 136 l 68 267 l 68 364 q 123 581 68 486 q 381 742 215 742 q 517 700 459 742 q 611 593 575 659 l 522 549 q 469 616 510 582 q 381 650 428 650 q 234 570 294 650 q 173 393 174 490 l 169 290 q 173 86 169 200 q 234 -106 176 -28 q 380 -183 292 -183 q 437 -170 409 -183 q 528 -76 494 -143 l 611 -128 q 522 -227 578 -182 q 375 -275 460 -275 q 219 -222 290 -275 q 69 90 85 -125 l 69 136 z "},"ʘ":{"ha":904,"x_min":62,"x_max":856,"o":"m 653 170 q 743 502 743 290 q 642 835 743 709 q 458 918 575 918 q 264 821 336 918 q 175 492 175 701 q 275 159 175 281 q 458 77 341 77 q 572 103 522 77 q 653 170 623 130 m 123 210 q 62 490 62 337 q 119 770 62 640 q 307 981 184 921 q 458 1014 375 1014 q 608 982 541 1014 q 795 781 727 926 q 856 492 856 650 q 799 218 856 345 q 723 96 767 147 q 610 13 679 45 q 459 -20 541 -20 q 123 210 231 -20 m 521 622 q 585 503 585 587 q 548 424 585 460 q 460 389 511 389 q 372 424 409 389 q 335 503 335 460 q 351 576 335 547 q 398 622 368 606 q 460 638 429 638 q 521 622 491 638 z "},"ʙ":{"ha":624,"x_min":62,"x_max":562,"o":"m 62 0 l 62 726 l 302 726 q 405 703 354 726 q 486 638 455 680 q 517 552 517 597 q 495 472 517 508 q 448 420 473 435 l 397 393 l 450 372 q 506 331 479 359 q 562 216 562 274 q 486 61 562 122 q 297 0 410 0 l 62 0 m 144 429 l 290 429 q 374 459 339 429 q 410 534 410 490 q 373 607 410 578 q 289 637 336 637 l 144 637 l 144 429 m 144 348 l 144 92 l 285 92 q 406 126 356 92 q 456 220 456 161 q 391 316 456 276 q 281 348 341 348 l 144 348 z "},"ʚ":{"ha":666,"x_min":68,"x_max":642,"o":"m 642 372 q 642 316 642 372 q 602 172 642 259 q 491 32 562 84 q 333 -20 420 -20 l 330 -20 q 145 45 222 -20 q 68 202 68 109 q 85 328 68 296 q 135 391 102 361 q 180 423 168 421 l 238 452 q 140 502 165 475 q 115 570 115 528 q 147 655 115 612 q 328 745 214 745 q 433 723 380 745 q 587 581 528 684 q 642 372 642 486 m 329 650 q 212 589 267 650 q 210 572 210 581 q 250 503 210 523 q 340 483 291 483 l 389 483 l 389 398 l 351 398 q 239 364 294 398 q 193 321 211 347 q 175 212 175 295 q 244 101 175 152 q 330 77 288 77 q 398 85 372 77 q 478 152 444 105 q 538 359 538 232 q 476 568 538 486 q 329 650 415 650 z "},"ʛ":{"ha":840,"x_min":66,"x_max":816,"o":"m 627 404 l 627 372 l 627 339 q 557 94 627 199 q 351 -20 483 -20 q 199 30 264 -20 q 66 358 66 132 q 198 690 66 585 q 346 742 262 742 q 502 702 430 742 l 505 701 l 505 770 q 521 848 505 812 q 609 940 547 908 q 693 966 659 966 q 786 937 747 966 q 816 911 794 931 l 743 842 l 722 860 l 709 867 l 694 873 l 677 875 q 608 791 608 875 l 608 595 l 517 557 q 449 624 497 597 q 350 650 400 650 q 260 614 299 650 q 174 404 184 545 l 174 313 q 259 109 183 177 q 351 73 300 73 q 474 143 427 73 q 528 313 522 214 l 366 313 l 367 404 l 627 404 z "},"ʜ":{"ha":623,"x_min":69,"x_max":553,"o":"m 69 728 l 172 728 l 172 409 l 450 410 l 450 729 l 553 728 l 553 0 l 450 1 l 450 317 l 172 317 l 172 0 l 69 0 l 69 728 z "},"ʝ":{"ha":473,"x_min":-146,"x_max":448,"o":"m 134 859 q 115 903 115 877 q 134 949 115 930 q 179 968 153 968 q 224 949 205 968 q 243 905 243 931 q 224 859 243 878 q 179 840 205 840 q 134 859 153 840 m -14 58 q 127 14 61 58 l 127 728 l 231 728 l 231 -54 l 252 -71 q 448 -263 313 -115 l 399 -328 q 225 -141 295 -205 q 126 -264 203 -224 q 43 -290 77 -290 q -51 -262 -11 -290 q -86 -230 -56 -258 q -131 -159 -117 -203 q -146 -101 -146 -116 l -146 -96 q -65 48 -146 9 q -14 58 -45 58 m 127 -68 q 30 -28 63 -28 q -29 -38 -3 -28 q -56 -82 -54 -47 q -8 -165 -56 -100 l 2 -175 l 13 -183 l 26 -191 l 41 -197 l 58 -199 q 127 -115 127 -199 l 127 -68 z "},"ʞ":{"ha":640,"x_min":37,"x_max":587,"o":"m 350 310 l 37 728 l 155 728 l 412 380 l 484 471 l 484 728 l 587 728 l 587 -258 l 484 -258 l 484 333 l 207 0 l 89 0 l 350 310 z "},"ʟ":{"ha":657,"x_min":82,"x_max":587,"o":"m 82 742 l 189 742 l 189 96 l 587 96 l 587 0 l 82 0 l 82 742 z "},"ʠ":{"ha":868,"x_min":65,"x_max":847,"o":"m 485 577 q 458 616 485 577 q 352 655 431 655 q 221 578 273 655 q 170 366 170 501 q 221 151 170 231 q 352 72 273 72 q 485 151 431 72 q 539 365 539 231 q 485 577 539 498 m 719 -304 q 536 -139 536 -304 l 536 125 q 450 12 500 44 q 333 -20 400 -20 q 212 13 265 -20 q 81 224 115 73 q 65 366 65 292 q 80 507 65 440 q 127 629 96 574 q 333 747 195 747 q 536 601 473 747 l 536 728 q 553 874 541 845 q 591 926 566 903 q 729 987 659 987 q 817 959 777 987 q 847 932 823 955 l 774 863 l 764 872 l 753 880 l 741 888 l 726 894 l 708 896 q 639 812 639 896 l 639 -135 q 656 -194 639 -175 q 719 -212 674 -212 l 719 -304 z "},"ʡ":{"ha":668,"x_min":39,"x_max":632,"o":"m 282 201 l 66 201 l 66 297 l 282 297 l 282 342 q 300 432 282 400 q 367 517 328 486 l 439 578 l 467 602 l 479 614 l 500 642 l 509 656 l 515 674 l 521 694 l 524 716 l 525 742 q 473 873 525 827 q 336 920 422 920 q 233 889 280 920 q 162 817 186 859 q 138 736 138 774 l 39 753 q 134 940 52 865 q 332 1015 217 1015 q 538 949 451 1015 q 606 863 581 917 q 632 745 632 810 q 540 536 632 627 q 498 500 518 516 l 456 469 l 422 438 l 397 396 l 389 340 l 389 297 l 627 297 l 627 201 l 389 201 l 389 0 l 282 0 l 282 201 z "},"ʢ":{"ha":668,"x_min":39,"x_max":632,"o":"m 389 201 l 389 0 l 282 0 l 282 201 l 44 201 l 44 297 l 282 297 l 282 340 l 274 396 l 248 438 l 215 469 l 174 500 q 120 547 149 519 q 65 627 92 575 q 39 745 39 679 q 132 949 39 877 q 337 1015 220 1015 q 536 940 454 1015 q 632 753 618 865 l 533 736 q 509 816 533 774 q 437 889 484 858 q 334 920 390 920 q 197 873 249 920 q 146 742 146 827 l 147 716 l 151 694 l 156 674 l 163 656 l 171 642 l 181 628 l 193 614 l 218 590 l 304 517 q 389 342 389 448 l 389 297 l 605 297 l 605 201 l 389 201 z "},"ʣ":{"ha":1225,"x_min":87,"x_max":1195,"o":"m 507 577 q 480 616 507 577 q 374 655 453 655 q 243 578 294 655 q 191 366 191 501 q 243 151 191 231 q 374 72 295 72 q 507 151 453 72 q 561 365 561 231 q 507 577 561 498 m 557 986 l 661 986 l 661 33 l 1024 632 l 669 632 l 669 728 l 1195 728 l 812 96 l 1175 96 l 1175 0 l 557 0 l 557 125 q 432 -8 513 21 q 351 -20 400 -20 q 255 2 301 -20 q 179 60 210 23 q 87 366 87 170 q 149 629 87 520 q 355 747 217 747 q 557 601 494 747 l 557 986 z "},"ʤ":{"ha":1158,"x_min":87,"x_max":1147,"o":"m 507 577 q 480 616 507 577 q 374 655 453 655 q 243 578 294 655 q 191 366 191 501 q 243 151 191 231 q 374 72 295 72 q 507 151 453 72 q 561 365 561 231 q 507 577 561 498 m 557 986 l 661 986 l 661 728 l 1147 728 l 896 306 q 937 287 920 298 q 979 264 954 276 q 1035 214 1003 253 q 1101 39 1101 134 q 1006 -181 1101 -94 q 770 -269 911 -269 q 599 -217 685 -269 q 475 -78 513 -166 l 581 -46 q 660 -137 606 -101 q 770 -172 713 -172 q 930 -114 865 -172 q 995 39 995 -56 q 924 194 995 138 q 853 233 889 221 l 745 247 l 976 633 l 661 633 l 661 0 l 557 0 l 557 125 q 432 -8 513 21 q 351 -20 400 -20 q 255 2 301 -20 q 179 60 210 23 q 87 366 87 170 q 149 629 87 520 q 355 747 217 747 q 557 601 494 747 l 557 986 z "},"ʥ":{"ha":1385,"x_min":87,"x_max":1358,"o":"m 507 577 q 480 616 507 577 q 374 655 453 655 q 243 578 294 655 q 191 366 191 501 q 243 151 191 231 q 374 72 295 72 q 507 151 453 72 q 561 365 561 231 q 507 577 561 498 m 557 986 l 661 986 l 661 16 l 1034 632 l 679 632 l 679 728 l 1205 728 l 822 96 l 890 96 q 960 157 934 138 q 1108 256 1065 233 q 1211 286 1164 286 q 1286 271 1257 286 q 1337 221 1316 256 q 1358 132 1358 186 l 1358 127 q 1348 79 1357 93 q 1252 0 1307 22 l 901 0 q 814 -100 866 -38 l 765 -35 l 798 0 l 557 0 l 557 125 q 432 -8 513 21 q 351 -20 400 -20 q 255 2 301 -20 q 179 60 210 23 q 87 366 87 170 q 149 629 87 520 q 355 747 217 747 q 557 601 494 747 l 557 986 m 998 96 l 1252 96 q 1268 144 1268 132 l 1268 146 q 1242 190 1266 180 q 1194 199 1217 199 l 1153 193 q 998 96 1074 163 l 998 96 z "},"ʦ":{"ha":823,"x_min":69,"x_max":800,"o":"m 165 636 l 69 636 l 69 728 l 165 728 l 165 897 l 268 897 l 268 728 l 447 728 q 548 744 492 743 q 764 640 693 746 q 789 591 781 616 l 690 570 q 550 653 653 653 q 456 627 495 653 q 416 551 416 600 q 484 452 416 489 q 521 436 504 441 q 545 428 538 431 q 555 423 551 425 q 579 415 564 421 l 646 390 l 680 374 l 710 356 l 739 334 l 764 307 l 784 275 l 795 239 l 800 195 q 727 41 800 102 q 551 -20 654 -20 l 347 -20 q 206 18 246 -20 q 165 143 165 56 l 165 636 m 340 66 q 549 72 452 66 q 656 104 593 73 q 696 195 696 123 q 646 281 696 250 q 564 319 606 307 q 363 420 416 364 q 313 549 313 472 q 332 636 313 598 l 268 636 l 268 146 q 340 66 268 70 z "},"ʧ":{"ha":773,"x_min":69,"x_max":745,"o":"m 165 636 l 69 636 l 69 728 l 165 728 l 165 897 l 268 897 l 268 728 l 433 728 l 433 819 q 503 955 433 899 q 615 1004 566 1004 q 690 990 664 1004 q 745 949 715 977 l 671 878 q 611 913 645 913 q 557 895 577 913 q 538 847 538 878 l 538 -92 q 518 -168 538 -132 q 406 -263 481 -233 q 340 -277 373 -277 q 282 -263 307 -277 q 227 -221 257 -250 l 300 -150 q 334 -179 318 -173 q 373 -185 350 -185 q 415 -168 395 -185 q 434 -119 434 -151 l 433 636 l 268 636 l 268 146 q 347 66 268 66 l 395 66 l 395 -20 l 347 -20 q 206 18 246 -20 q 165 143 165 56 l 165 636 z "},"ʨ":{"ha":978,"x_min":69,"x_max":949,"o":"m 711 -20 q 527 58 604 -20 q 395 -20 458 -19 l 347 -20 q 206 18 246 -20 q 165 143 165 56 l 165 636 l 69 636 l 69 728 l 165 728 l 165 897 l 268 897 l 268 728 l 401 728 l 401 636 l 268 636 l 268 146 q 347 66 268 66 l 395 66 q 476 117 422 66 q 407 364 407 221 q 461 581 407 486 q 720 742 553 742 q 855 700 797 742 q 949 593 913 658 l 861 549 q 807 616 848 582 q 720 650 766 650 q 572 568 633 650 q 511 373 511 486 q 548 189 511 260 q 726 273 633 261 l 749 275 q 859 210 820 275 q 881 119 881 174 l 880 115 q 869 67 879 81 q 774 -12 829 9 q 718 -20 764 -18 l 711 -20 m 589 130 q 718 72 643 72 q 774 84 748 72 q 791 133 791 119 l 791 134 q 716 188 787 188 l 675 180 q 589 130 627 163 z "},"ʩ":{"ha":1004,"x_min":85,"x_max":977,"o":"m 282 636 l 282 0 l 179 0 l 179 636 l 85 636 l 85 728 l 178 728 l 178 819 q 248 955 178 899 q 360 1004 311 1004 q 435 990 409 1004 q 490 949 460 977 l 416 878 q 356 913 390 913 q 302 895 322 913 q 283 847 283 878 l 283 728 l 518 728 l 518 605 q 593 707 538 666 q 715 747 648 747 q 958 538 905 747 q 976 367 976 465 l 976 1 l 977 0 l 977 -6 q 953 -136 977 -48 q 892 -225 940 -181 q 704 -304 808 -304 l 701 -304 q 704 -214 702 -298 q 824 -164 774 -214 q 873 -22 873 -114 l 873 367 q 779 632 873 570 q 697 654 744 654 q 616 631 651 654 q 529 477 550 587 q 518 366 518 422 l 518 0 l 415 0 l 415 636 l 282 636 z "},"ʪ":{"ha":718,"x_min":104,"x_max":707,"o":"m 104 0 l 104 987 l 211 987 l 211 149 l 302 166 q 358 96 322 121 q 458 72 393 72 q 563 104 524 72 q 602 195 602 137 q 552 281 602 250 q 463 322 512 307 q 269 420 321 366 q 219 557 219 472 q 287 693 219 642 q 455 745 355 744 q 671 640 600 745 q 695 591 687 616 l 596 570 q 456 653 559 653 q 362 627 401 653 q 323 551 323 600 q 391 452 323 489 q 428 436 410 441 q 451 428 445 431 q 461 423 458 425 q 486 415 471 421 l 552 390 l 586 374 l 616 356 l 646 334 l 670 307 l 690 275 l 702 239 l 707 195 q 634 41 707 102 q 457 -20 561 -20 q 296 22 354 -20 q 211 125 237 64 l 211 0 l 104 0 z "},"ʫ":{"ha":711,"x_min":104,"x_max":684,"o":"m 104 0 l 104 987 l 211 987 l 211 728 l 684 728 l 301 96 l 664 96 l 664 0 l 104 0 m 211 632 l 211 133 l 513 632 l 211 632 z "},"ʬ":{"ha":746,"x_min":45,"x_max":686,"o":"m 365 1025 l 250 587 l 190 587 l 45 1133 l 122 1133 l 220 714 l 327 1128 l 404 1128 l 510 714 l 608 1133 l 686 1133 l 540 587 l 477 587 l 365 1025 m 365 438 l 250 0 l 190 0 l 45 546 l 122 546 l 220 127 l 327 542 l 404 542 l 510 127 l 608 546 l 686 546 l 540 0 l 477 0 l 365 438 z "},"ʭ":{"ha":812,"x_min":82,"x_max":745,"o":"m 82 483 l 745 483 l 745 134 l 637 134 l 637 387 l 189 387 l 189 134 l 82 134 l 82 483 m 82 987 l 745 987 l 745 638 l 637 638 l 637 892 l 189 892 l 189 638 l 82 638 l 82 987 z "},"ʮ":{"ha":825,"x_min":25,"x_max":791,"o":"m 25 692 q 58 721 50 715 q 143 747 95 747 q 282 685 213 747 q 336 551 336 635 l 336 340 l 334 340 q 345 261 336 307 q 374 176 354 215 q 509 93 416 93 q 646 179 600 93 q 688 381 688 260 l 688 747 l 791 747 l 791 -253 l 688 -253 l 688 142 q 614 40 669 81 q 492 0 559 0 q 302 90 368 0 q 231 380 231 185 l 231 521 l 233 521 l 233 572 q 164 656 233 656 l 146 654 l 132 648 l 119 640 l 108 632 l 98 623 l 25 692 z "},"ʯ":{"ha":1024,"x_min":25,"x_max":1000,"o":"m 688 747 l 791 747 l 791 -68 q 861 -151 791 -151 l 879 -149 l 894 -144 l 906 -136 l 917 -127 l 927 -118 l 1000 -187 q 967 -216 975 -210 q 882 -243 930 -243 q 806 -224 844 -243 q 688 -47 688 -163 l 688 142 q 614 40 669 81 q 492 0 559 0 q 302 90 368 0 q 252 199 269 134 q 231 380 235 264 l 233 521 l 233 572 q 164 656 233 656 l 146 654 l 132 648 l 119 640 l 108 632 l 98 623 l 25 692 q 58 721 50 715 q 143 747 95 747 q 282 685 213 747 q 336 551 336 635 l 336 340 l 334 340 q 345 261 336 307 q 374 176 354 215 q 509 93 416 93 q 646 179 600 93 q 688 381 688 260 l 688 747 z "},"ˆ":{"ha":709,"x_min":126,"x_max":593,"o":"m 593 1027 l 465 1027 l 359 1171 l 252 1028 l 126 1028 l 314 1260 l 403 1260 l 593 1027 z "},"ˇ":{"ha":720,"x_min":125,"x_max":591,"o":"m 591 1260 l 401 1027 l 313 1027 l 125 1259 l 251 1259 l 358 1116 l 464 1260 l 591 1260 z "},"ˍ":{"ha":644,"x_min":127,"x_max":587,"o":"m 127 -75 l 587 -75 l 587 -146 l 127 -146 l 127 -75 z "},"˘":{"ha":883,"x_min":240,"x_max":651,"o":"m 449 1118 q 510 1135 486 1120 q 597 1246 550 1164 l 651 1246 q 651 1240 651 1246 q 606 1118 651 1194 q 536 1053 583 1080 q 446 1027 490 1027 q 355 1053 401 1027 q 285 1118 309 1080 q 240 1240 240 1194 l 240 1246 l 295 1246 q 381 1135 328 1171 q 449 1118 407 1119 z "},"˙":{"ha":285,"x_min":52,"x_max":179,"o":"m 179 1143 q 179 1129 179 1143 q 160 1096 179 1115 q 117 1077 141 1077 q 76 1092 94 1077 q 55 1120 58 1106 q 52 1151 52 1134 q 71 1186 52 1167 q 114 1205 90 1205 q 155 1191 138 1205 q 179 1143 179 1171 z "},"˚":{"ha":703,"x_min":191,"x_max":511,"o":"m 263 1164 q 263 1144 263 1164 q 291 1100 263 1124 q 353 1076 318 1076 q 414 1103 388 1076 q 439 1167 439 1130 q 412 1235 439 1211 q 350 1259 385 1259 q 289 1232 315 1259 q 263 1164 263 1205 m 238 1276 q 347 1322 286 1322 q 453 1287 409 1322 q 511 1169 511 1240 q 464 1053 511 1099 q 355 1007 417 1007 q 250 1042 294 1007 q 191 1160 191 1090 q 238 1276 191 1230 z "},"˛":{"ha":321,"x_min":79,"x_max":250,"o":"m 250 -129 l 221 -214 q 157 -175 170 -184 q 90 -111 100 -134 q 79 -72 79 -89 q 136 50 79 -4 l 224 12 q 186 -52 186 -37 q 207 -95 186 -77 q 230 -114 228 -112 q 250 -129 233 -115 z "},"˜":{"ha":498,"x_min":43,"x_max":475,"o":"m 43 518 q 77 546 59 530 q 167 583 119 583 q 239 547 199 583 q 275 514 261 528 q 340 481 311 481 q 434 517 388 481 q 475 547 452 531 l 475 449 q 429 412 441 423 q 359 382 393 382 q 265 418 306 382 q 234 446 254 427 q 168 485 194 485 q 80 450 119 485 q 43 419 62 435 l 43 518 z "},"˝":{"ha":901,"x_min":300,"x_max":770,"o":"m 538 1082 l 678 1295 q 715 1317 694 1317 q 751 1305 736 1317 q 770 1270 770 1290 q 760 1235 770 1250 l 598 1038 q 574 1027 589 1027 q 549 1035 560 1027 q 533 1059 533 1046 q 538 1082 533 1072 m 305 1082 l 445 1295 q 482 1317 461 1317 q 518 1305 503 1317 q 537 1270 537 1290 q 526 1235 537 1250 l 365 1038 q 341 1027 355 1027 q 315 1035 327 1027 q 300 1059 300 1046 q 305 1082 300 1072 z "},"̀":{"ha":0,"x_min":-650,"x_max":-412,"o":"m -640 983 q -650 1015 -650 994 q -634 1050 -650 1035 q -604 1065 -618 1065 q -557 1044 -570 1063 l -416 831 l -412 822 l -412 813 q -423 787 -412 799 q -450 776 -435 776 q -475 787 -465 776 l -640 983 z "},"́":{"ha":0,"x_min":-656,"x_max":-417,"o":"m -510 1034 q -471 1057 -496 1057 q -432 1039 -446 1057 q -417 1005 -417 1021 q -428 975 -417 989 l -591 777 q -616 766 -602 766 q -644 777 -631 766 q -656 799 -656 787 q -650 822 -656 810 l -510 1034 z "},"̂":{"ha":0,"x_min":-592,"x_max":-125,"o":"m -125 811 l -253 811 l -359 956 l -466 812 l -592 812 l -404 1044 l -315 1044 l -125 811 z "},"̃":{"ha":0,"x_min":-585,"x_max":-153,"o":"m -378 968 q -369 962 -378 968 q -342 944 -359 956 q -310 921 -326 932 q -276 910 -294 911 q -231 923 -258 909 q -175 959 -205 937 l -153 976 l -153 878 q -240 816 -227 821 q -260 810 -253 810 l -281 810 q -377 862 -307 810 q -425 896 -401 879 q -463 913 -450 913 q -564 866 -507 913 q -571 860 -566 864 q -580 852 -576 857 q -585 848 -585 848 l -585 947 q -511 1001 -527 994 q -468 1012 -489 1012 q -421 996 -446 1012 q -378 968 -396 980 z "},"̄":{"ha":0,"x_min":-595,"x_max":-136,"o":"m -595 896 l -136 896 l -136 824 l -595 824 l -595 896 z "},"̆":{"ha":0,"x_min":-585,"x_max":-71,"o":"m -471 1018 q -450 980 -463 996 q -326 902 -399 902 q -197 977 -235 902 l -176 1017 l -71 1017 q -119 919 -92 956 q -326 810 -195 810 q -527 908 -450 810 q -585 1018 -562 951 l -471 1018 z "},"̇":{"ha":0,"x_min":-585,"x_max":-457,"o":"m -585 870 q -547 928 -585 912 q -522 935 -534 935 q -463 897 -479 935 l -458 883 q -457 870 -457 878 q -496 812 -457 828 q -522 806 -507 806 q -580 844 -564 806 l -584 858 q -585 870 -585 863 z "},"̈":{"ha":0,"x_min":-580,"x_max":-132,"o":"m -260 871 q -221 930 -260 913 q -196 936 -209 936 q -138 898 -154 936 l -134 884 q -132 871 -132 879 q -171 813 -132 829 q -196 808 -182 808 q -254 845 -238 808 l -258 859 q -260 871 -260 865 m -580 870 q -541 928 -580 912 q -516 935 -528 935 q -457 897 -473 935 l -453 883 q -452 870 -452 878 q -491 812 -452 828 q -516 806 -502 806 q -574 844 -558 806 l -578 858 q -580 870 -580 863 z "},"̊":{"ha":0,"x_min":-585,"x_max":-229,"o":"m -494 1040 q -506 999 -506 1016 q -439 894 -506 918 q -408 890 -425 890 q -321 943 -349 890 q -310 991 -310 969 q -310 1002 -310 991 q -311 1013 -310 1006 q -377 1088 -323 1069 q -408 1093 -392 1093 q -494 1040 -467 1093 m -585 989 q -510 1132 -585 1079 q -408 1164 -463 1164 q -261 1088 -314 1164 q -234 1031 -238 1057 q -229 989 -229 1005 q -304 845 -229 897 q -408 813 -352 813 q -553 888 -502 813 q -581 945 -576 920 q -585 989 -585 970 z "},"̋":{"ha":0,"x_min":-586,"x_max":-119,"o":"m -439 1044 q -400 1066 -425 1066 q -361 1048 -376 1066 q -347 1015 -347 1030 q -357 984 -347 999 l -520 787 q -546 776 -531 776 q -573 786 -561 776 q -586 808 -586 797 q -580 831 -586 819 l -439 1044 m -212 1034 q -173 1057 -197 1057 q -133 1039 -148 1057 q -119 1005 -119 1021 q -130 975 -119 989 l -292 777 q -318 766 -303 766 q -346 777 -333 766 q -358 799 -358 787 q -352 822 -358 810 l -212 1034 z "},"̌":{"ha":0,"x_min":-597,"x_max":-131,"o":"m -131 1036 l -321 802 l -410 802 l -597 1034 l -471 1034 l -364 891 l -258 1036 l -131 1036 z "},"̐":{"ha":0,"x_min":-585,"x_max":-71,"o":"m -471 1018 q -450 980 -463 996 q -326 902 -399 902 q -197 977 -235 902 l -176 1017 l -71 1017 q -119 919 -92 956 q -326 810 -195 810 q -527 908 -450 810 q -585 1018 -562 951 l -471 1018 m -388 1080 q -349 1138 -388 1122 q -324 1144 -337 1144 q -266 1106 -282 1144 l -261 1093 q -260 1080 -260 1087 q -299 1021 -260 1038 q -324 1016 -310 1016 q -382 1053 -366 1016 l -387 1067 q -388 1080 -388 1073 z "},"̣":{"ha":0,"x_min":-583,"x_max":-454,"o":"m -583 -174 q -544 -115 -583 -132 q -519 -110 -533 -110 q -460 -147 -477 -110 l -456 -161 q -454 -174 -454 -167 q -494 -232 -454 -216 q -519 -238 -506 -238 q -577 -200 -561 -238 l -581 -186 q -583 -174 -583 -181 z "},"̤":{"ha":0,"x_min":-580,"x_max":-132,"o":"m -260 -174 q -221 -115 -260 -132 q -196 -110 -210 -110 q -138 -147 -154 -110 l -134 -161 q -132 -174 -132 -167 q -171 -232 -132 -216 q -196 -238 -183 -238 q -254 -200 -238 -238 l -258 -186 q -260 -174 -260 -181 m -580 -175 q -541 -117 -580 -133 q -516 -111 -530 -111 q -457 -149 -473 -111 l -453 -163 q -452 -175 -452 -168 q -491 -233 -452 -217 q -516 -239 -503 -239 q -574 -201 -558 -239 l -578 -188 q -580 -175 -580 -182 z "},"̥":{"ha":0,"x_min":-585,"x_max":-229,"o":"m -494 -213 q -506 -254 -506 -237 q -439 -359 -506 -335 q -408 -363 -425 -363 q -321 -310 -349 -363 q -310 -261 -310 -283 q -310 -250 -310 -261 q -311 -239 -310 -246 q -377 -164 -323 -184 q -408 -160 -392 -160 q -494 -213 -467 -160 m -585 -264 q -510 -121 -585 -174 q -408 -89 -463 -89 q -261 -164 -314 -89 q -234 -221 -238 -195 q -229 -264 -229 -247 q -304 -408 -229 -355 q -408 -439 -352 -439 q -553 -364 -502 -439 q -581 -308 -576 -333 q -585 -264 -585 -282 z "},"̧":{"ha":0,"x_min":-585,"x_max":-414,"o":"m -471 50 q -414 -67 -414 -5 q -510 -186 -414 -129 l -556 -214 l -585 -130 q -522 -61 -522 -83 q -559 12 -522 -40 l -471 50 z "},"̨":{"ha":0,"x_min":-585,"x_max":-414,"o":"m -528 -214 q -585 -97 -585 -158 q -490 22 -585 -35 l -444 50 l -414 -35 q -478 -103 -478 -81 q -441 -176 -478 -124 l -528 -214 z "},"̮":{"ha":883,"x_min":240,"x_max":651,"o":"m 449 -178 q 510 -160 486 -176 q 597 -49 550 -132 l 651 -49 q 651 -56 651 -49 q 606 -177 651 -102 q 536 -242 583 -216 q 446 -269 490 -269 q 355 -242 401 -269 q 285 -177 309 -216 q 240 -56 240 -102 l 240 -49 l 295 -49 q 381 -160 328 -125 q 449 -178 407 -176 z "},"̱":{"ha":0,"x_min":-585,"x_max":-175,"o":"m -585 -94 l -175 -94 l -175 -186 l -585 -186 l -585 -94 z "},"Ͱ":{"ha":637,"x_min":82,"x_max":555,"o":"m 82 987 l 189 987 l 189 553 q 555 553 189 553 l 555 457 q 189 457 555 457 l 189 0 l 82 0 l 82 987 z "},"ͱ":{"ha":637,"x_min":82,"x_max":555,"o":"m 82 728 l 189 728 l 189 401 q 555 401 189 401 l 555 305 q 189 305 555 305 l 189 0 l 82 0 l 82 728 z "},"Ͷ":{"ha":862,"x_min":82,"x_max":794,"o":"m 794 0 l 687 0 l 687 807 l 180 0 l 82 0 l 82 987 l 189 987 l 189 200 l 690 987 l 794 987 l 794 0 z "},"ͺ":{"ha":275,"x_min":70,"x_max":216,"o":"m 70 64 q 92 115 70 94 q 141 137 113 137 q 189 121 170 137 q 216 66 216 98 q 194 13 216 34 q 145 -9 173 -9 q 97 8 117 -9 q 73 40 77 24 q 70 64 70 56 z "},"ͻ":{"ha":625,"x_min":68,"x_max":611,"o":"m 137 570 l 68 593 q 162 700 104 659 q 288 742 220 742 q 557 581 465 742 q 611 372 611 486 q 571 172 611 259 q 460 32 532 84 q 300 -20 389 -20 q 157 28 219 -20 q 68 127 101 73 l 151 179 q 244 84 185 112 q 300 72 271 72 q 448 152 388 72 q 507 360 507 232 q 441 576 507 488 q 289 665 374 665 q 188 637 224 665 q 137 570 153 608 z "}}}
